/* XPM */
static char *_2784f29298746f8c16ae0111681bc29j8ApMNdYKv8sRSlE[] = {
/* columns rows colors chars-per-pixel */
"64 64 161 2 ",
"   c #0F1407",
".  c #091008",
"X  c #171D09",
"o  c #290B03",
"O  c #3D0701",
"+  c #3B0902",
"@  c #251F08",
"#  c #2A1D09",
"$  c #331606",
"%  c #3A1306",
"&  c #371D08",
"*  c #172A0D",
"=  c #0D2815",
"-  c #083311",
";  c #0D3C15",
":  c #0A3C1F",
">  c #232009",
",  c #2B230B",
"<  c #2C2E0E",
"1  c #3B220A",
"2  c #39290B",
"3  c #28320F",
"4  c #253411",
"5  c #283411",
"6  c #2D3B13",
"7  c #333511",
"8  c #3B3611",
"9  c #343912",
"0  c #400902",
"q  c #480F05",
"w  c #5F0701",
"e  c #560902",
"r  c #5B0C02",
"t  c #4A1305",
"y  c #441E08",
"u  c #501606",
"i  c #5D1305",
"p  c #521F09",
"a  c #6B0700",
"s  c #640B02",
"d  c #6B0901",
"f  c #740700",
"g  c #7D0800",
"h  c #611305",
"j  c #47240B",
"k  c #49280C",
"l  c #45370F",
"z  c #413611",
"x  c #4E3F12",
"c  c #533F12",
"v  c #61250A",
"b  c #6E240A",
"n  c #622C0C",
"m  c #0D441A",
"M  c #0D4A1D",
"N  c #0E571A",
"B  c #2E4414",
"V  c #374014",
"C  c #0E552D",
"Z  c #0F662E",
"A  c #0F6A2B",
"S  c #106D2F",
"D  c #13732C",
"F  c #0F6432",
"G  c #0F6E32",
"H  c #127533",
"J  c #444314",
"K  c #4B4314",
"L  c #484B17",
"P  c #4B4E18",
"I  c #554414",
"U  c #594214",
"Y  c #44531B",
"T  c #4B541A",
"R  c #4F5A1C",
"E  c #52551A",
"W  c #575D1D",
"Q  c #585D1C",
"!  c #614D15",
"~  c #6B5517",
"^  c #615118",
"/  c #6F5818",
"(  c #715A19",
")  c #5D611E",
"_  c #567325",
"`  c #606720",
"'  c #616A21",
"]  c #6B6C22",
"[  c #6A7323",
"{  c #6E7925",
"}  c #707023",
"|  c #737D27",
" . c #820900",
".. c #8B0A01",
"X. c #920A00",
"o. c #9D0A00",
"O. c #9B1B11",
"+. c #A30C01",
"@. c #AB0C00",
"#. c #B00C00",
"$. c #BE0D00",
"%. c #AE1308",
"&. c #B21004",
"*. c #B91003",
"=. c #AD1D11",
"-. c #C40D00",
";. c #CC0E00",
":. c #D20E00",
">. c #DE0F00",
",. c #D51103",
"<. c #DE1203",
"1. c #E01708",
"2. c #E21D0E",
"3. c #E31E10",
"4. c #D42517",
"5. c #E52415",
"6. c #E42B1B",
"7. c #E82D1C",
"8. c #EB301F",
"9. c #DE3625",
"0. c #E03222",
"q. c #EB3422",
"w. c #ED3927",
"e. c #F2432F",
"r. c #EE4732",
"t. c #F44933",
"y. c #F64E38",
"u. c #F9543D",
"i. c #FB5740",
"p. c #FE5D45",
"a. c #0F8F27",
"s. c #0E8F2A",
"d. c #108329",
"f. c #10982A",
"g. c #128B31",
"h. c #129E33",
"j. c #7C862A",
"k. c #7F892B",
"l. c #7E9D32",
"z. c #75A334",
"x. c #7AA534",
"c. c #838D2C",
"v. c #85912D",
"b. c #8C962F",
"n. c #8C982F",
"m. c #8F9B30",
"M. c #959E31",
"N. c #85AA36",
"B. c #8BAD37",
"V. c #95A232",
"C. c #9AA533",
"Z. c #9CAA34",
"A. c #97B237",
"S. c #97B238",
"D. c #9CB438",
"F. c #A1AE36",
"G. c #A3B237",
"H. c #A4B639",
"J. c #A8B738",
"K. c #A6B939",
"L. c #ADBC3A",
/* pixels */
"z.x.L.L.L.L.L.L.L.L.L.L.L.L.L.L.L.L.L.L.L.L.L.L.L.L.L.L.L.L.L.L.L.L.L.L.L.L.L.L.L.L.L.L.L.L.L.L.L.L.L.L.L.L.L.L.L.L.L.L.L.L.x.x.",
"x.x.L.L.L.L.L.L.L.L.L.L.L.L.L.L.L.L.L.L.L.L.L.L.L.L.L.L.L.L.L.L.L.L.L.L.L.L.L.L.L.L.L.L.L.L.L.L.L.L.L.L.L.L.L.L.L.L.L.L.L.L.x.x.",
"D.D.L.L.L.L.L.L.L.L.L.L.L.L.L.L.L.L.L.L.L.L.L.L.L.L.L.L.L.L.L.L.L.L.L.L.L.L.L.L.L.L.L.L.L.L.L.L.L.L.L.L.L.L.L.L.L.L.L.L.L.L.D.D.",
"L.L.L.L.L.L.L.L.L.L.L.L.L.L.L.L.L.L.L.L.L.L.L.L.L.L.L.L.L.L.L.L.L.L.L.L.L.L.L.L.L.L.L.L.L.L.L.L.L.L.L.L.L.L.L.L.L.L.L.L.L.L.L.L.",
"L.L.L.L.L.L.L.L.L.L.L.L.L.L.L.L.L.L.L.L.L.L.L.L.L.L.L.L.L.L.L.L.L.L.L.L.L.L.L.L.L.L.L.L.L.L.L.L.L.L.L.L.L.L.L.L.L.L.L.L.L.L.L.L.",
"L.L.L.L.L.L.L.L.L.L.L.L.L.L.L.L.L.L.L.L.L.L.L.L.L.L.L.L.L.L.L.L.L.L.L.L.L.L.L.L.L.L.L.L.L.L.L.L.L.L.L.L.L.L.L.L.L.L.L.L.L.L.L.L.",
"L.L.L.L.L.L.H.D.H.L.L.L.L.L.L.L.L.L.L.L.L.L.L.L.L.L.L.L.L.L.L.L.L.L.L.L.L.L.L.L.K.D.K.L.L.L.L.L.L.L.L.L.L.L.L.L.L.L.L.L.L.L.L.L.",
"L.L.L.L.L.L.S.z.N.L.L.L.L.L.L.L.L.L.L.L.L.L.L.L.L.L.L.L.L.L.L.L.L.L.L.L.L.L.L.L.D.x.B.L.L.L.L.L.L.L.L.L.L.L.L.L.L.L.L.L.L.L.L.L.",
"L.L.L.L.L.L.A.x.N.L.L.L.L.L.L.L.L.L.L.L.L.L.L.L.L.L.L.L.L.L.L.L.L.L.L.L.L.L.L.L.L.x.B.L.L.L.L.L.L.L.L.L.L.L.L.L.L.L.L.L.L.L.L.L.",
"L.L.L.L.L.L.L.L.D.x.N.L.L.L.L.L.L.L.L.L.L.L.L.L.L.L.L.L.L.L.L.L.L.L.L.L.L.L.L.L.L.L.A.x.B.L.L.L.L.L.L.L.L.L.L.L.L.L.L.L.L.L.L.L.",
"L.L.L.L.L.L.L.L.D.z.B.L.L.L.L.L.L.L.L.L.L.L.L.L.L.L.L.L.L.L.L.L.L.L.L.L.L.L.L.L.L.L.D.x.B.L.L.L.L.L.L.L.L.L.L.L.L.L.L.L.L.L.L.L.",
"L.L.L.L.L.L.L.L.L.L.L.L.L.L.L.L.L.L.L.L.L.L.L.L.L.L.L.L.L.L.L.L.L.L.L.L.L.L.L.L.L.L.L.K.L.L.L.L.L.L.L.L.L.L.L.L.L.L.L.L.L.L.L.L.",
"L.L.L.L.L.L.L.L.L.L.L.L.L.L.L.L.L.L.L.L.L.L.L.L.L.L.L.L.L.L.L.L.L.L.L.L.L.L.L.L.L.L.L.L.L.L.L.L.L.L.L.L.L.L.L.L.L.L.L.L.L.L.L.L.",
"L.L.L.L.L.L.L.L.L.L.L.L.L.L.L.L.L.L.L.L.L.L.L.L.L.L.L.L.L.L.L.L.L.L.L.L.L.L.L.L.L.L.L.L.L.L.L.L.L.L.L.L.L.L.L.L.L.L.L.L.L.L.L.L.",
"L.L.L.L.L.L.L.L.L.L.L.L.L.L.L.L.L.L.L.L.L.L.L.L.L.L.L.L.L.L.L.L.L.L.L.L.L.L.L.L.L.L.L.L.L.L.L.L.L.L.L.L.L.L.L.L.L.L.L.L.L.L.L.L.",
"L.L.L.L.L.L.L.L.L.L.L.L.L.L.L.L.L.L.L.G.D.L.L.L.L.L.L.L.L.L.L.L.L.L.L.L.L.L.L.L.L.L.L.L.L.L.L.L.L.L.L.L.L.K.D.L.L.L.L.L.L.L.L.L.",
"L.L.L.L.L.L.L.L.L.L.L.L.L.L.L.L.L.L.L.B.x.D.L.L.L.G.H.J.L.L.L.L.L.L.L.L.L.L.L.L.L.L.L.L.L.L.L.L.L.L.L.L.L.B.x.D.L.L.L.L.L.L.L.L.",
"L.L.L.L.L.L.L.L.L.L.L.L.L.L.L.L.L.L.D.B.N.D.L.L.Z.V R ' Z.L.L.L.L.L.L.L.L.L.L.L.L.L.L.L.L.L.L.L.L.L.L.K.D.B.N.D.L.L.L.L.L.L.L.L.",
"L.L.L.L.L.L.L.L.L.L.L.L.L.L.L.L.L.B.x.S.L.L.L.L.Z.6 N * ' G.L.L.L.L.J.J.J.J.L.L.L.L.L.L.L.L.L.L.L.L.L.B.x.S.L.L.L.L.L.L.L.L.L.L.",
"L.L.L.L.L.L.L.L.L.L.L.L.L.L.L.L.K.B.x.A.L.L.L.L.C.B a.N 4 { G.L.L.C.` Q Q [ L.L.L.L.L.L.L.L.L.L.L.L.L.B.x.D.L.L.L.L.L.L.L.L.L.L.",
"L.L.L.L.L.L.L.L.L.L.L.L.L.L.L.L.L.L.L.L.L.L.L.L.Z.B f.g.m 5 { G.F.` @ z 8 9 L.L.L.L.L.L.L.L.L.L.L.L.L.L.L.L.L.L.L.L.L.L.L.L.L.L.",
"L.L.L.L.L.L.L.L.L.L.L.L.L.L.L.L.L.L.L.L.L.L.L.L.Z.V d.h.A ; 6 { [ K x / I 9 J.L.L.L.L.L.L.L.L.L.L.L.L.L.L.L.L.L.L.L.L.L.L.L.L.L.",
"L.L.L.L.L.L.L.L.L.L.L.L.L.L.L.L.L.L.L.L.L.L.L.L.Z.9 ; s.G Z m X > I ( ! , 8 L.L.L.L.L.L.L.L.L.L.L.L.L.L.L.L.L.L.L.L.L.L.L.L.L.L.",
"L.L.L.L.L.L.L.L.L.L.L.L.L.L.L.L.L.L.L.L.L.L.L.L.H.c.3 - S F : . l / ! @ 3 M.L.L.L.L.L.L.L.L.L.L.L.L.L.L.L.L.L.L.L.L.L.L.L.L.L.L.",
"L.L.L.L.L.L.L.L.L.L.L.L.L.L.L.L.L.L.L.L.L.L.L.L.L.H.k.* D H C = x ~ , < c.J.L.L.L.L.L.L.L.L.L.L.L.L.L.L.L.L.L.L.L.L.L.L.L.L.L.L.",
"L.L.L.L.L.L.L.L.L.L.L.L.L.L.L.L.L.L.L.L.L.L.L.L.H.C.c.> m D M   c ! < j.M.C.M.F.K.L.L.L.L.L.L.L.L.L.L.L.L.L.L.L.L.L.L.L.L.L.L.L.",
"L.L.L.L.L.L.L.L.L.L.L.L.L.L.L.L.L.L.L.L.L.L.K.b.} n h e e q o 2 c y + i h h p P | M.L.L.L.L.L.L.L.L.L.L.L.L.L.L.L.L.L.L.L.L.L.L.",
"L.L.L.L.L.L.L.L.L.L.L.L.L.L.L.L.L.L.L.L.L.L.n.J h *.,.:.:.@.w O 0 d ..4.,.:.@.s y W V.L.L.L.L.L.L.L.L.L.L.L.L.L.L.L.L.L.L.L.L.L.",
"L.L.L.L.L.L.L.L.L.L.L.L.L.L.L.L.L.L.L.L.L.V.L t &.5.7.7.<.-.o...g  .=.r.1.>.>.-.g & ) C.L.L.L.L.L.L.L.L.L.L.L.L.L.L.L.L.L.L.L.L.",
"L.L.L.L.L.L.L.L.L.L.L.L.L.L.L.L.L.L.L.L.V.Y % O.9.u.p.u.1.<.,.$.@.%.0.t.1.>.>.>.$.s 2 c.L.L.L.L.L.L.L.L.L.L.L.L.L.L.L.L.L.L.L.L.",
"L.L.L.L.L.L.L.L.L.L.L.L.L.L.L.L.L.L.L.K.[ j ..9.u.p.p.e.1.>.<.2.6.q.y.w.1.>.>.>.;. .j k.L.L.L.L.L.L.L.L.L.L.L.L.L.L.L.L.L.L.L.L.",
"L.L.L.L.L.L.L.L.L.L.L.L.L.L.L.L.L.L.L.k.7 d -.w.i.p.i.5.<.<.>.2.6.5.5.1.>.>.>.>.:.X.i ~ H.L.L.L.L.L.L.L.L.L.L.L.L.L.L.L.L.L.L.L.",
"L.L.L.L.L.L.L.L.L.L.L.L.L.L.L.L.L.L.L.| v #.>.q.u.i.8.<.>.>.>.>.<.<.>.>.>.>.>.>.:.o.d U C.L.L.L.L.L.L.L.L.L.L.L.L.L.L.L.L.L.L.L.",
"L.L.L.L.L.L.L.L.L.L.L.L.L.L.L.L.L.L.L.| b $.>.2.3.3.<.>.>.>.>.>.>.>.>.>.>.>.>.>.>.-.g U C.L.L.L.L.L.L.L.L.L.L.L.L.L.L.L.L.L.L.L.",
"L.L.L.L.L.L.L.L.L.L.L.L.L.L.L.L.L.L.L.| b -.1.q.5.1.>.>.>.>.>.>.>.>.>.>.>.>.>.>.>.-. .U C.L.L.L.L.L.L.L.L.L.L.L.L.L.L.L.L.L.L.L.",
"L.L.L.L.L.L.L.L.L.L.L.L.L.L.L.L.L.L.L.| b $.8.u.i.5.<.>.>.>.>.>.>.>.>.>.>.>.>.>.;.o.d U Z.L.L.L.L.L.L.L.L.L.L.L.L.L.L.L.L.L.L.L.",
"L.L.L.L.L.L.L.L.L.L.L.L.L.L.L.L.L.L.L.| b $.q.i.y.3.<.>.>.>.>.>.>.>.>.>.>.>.>.>.-.X.a c C.L.L.L.L.L.L.L.L.L.L.L.L.L.L.L.L.L.L.L.",
"L.L.L.L.L.L.L.L.L.L.L.L.L.L.L.L.L.L.L.| b $.7.e.5.<.>.>.>.>.>.>.>.>.>.>.>.>.>.>.+.g s U C.L.L.L.L.L.L.L.L.L.L.L.L.L.L.L.L.L.L.L.",
"L.L.L.L.L.L.L.L.L.L.L.L.L.L.L.L.L.L.L.| v @.<.<.<.>.>.>.>.>.>.>.>.>.>.>.>.>.>.-.X.g h ^ Z.L.L.L.L.L.L.L.L.L.L.L.L.L.L.L.L.L.L.L.",
"L.L.L.L.L.L.L.L.L.L.L.L.L.L.L.L.L.L.L.k.7 f :.>.>.>.<.>.>.>.>.>.>.>.>.>.>.>.:.o.g a k k.L.L.L.L.L.L.L.L.L.L.L.L.L.L.L.L.L.L.L.L.",
"L.L.L.L.L.L.L.L.L.L.L.L.L.L.L.L.L.L.L.L.] b -.>.>.>.>.>.>.>.>.>.>.>.>.>.>.:.+.g g r I m.L.L.L.L.L.L.L.L.L.L.L.L.L.L.L.L.L.L.L.L.",
"L.L.L.L.L.L.L.L.L.L.L.L.L.L.L.L.L.L.L.L.{ 1 g -.>.>.>.>.>.>.>.>.>.>.>.>.-.X. .g a k j.L.L.L.L.L.L.L.L.L.L.L.L.L.L.L.L.L.L.L.L.L.",
"L.L.L.L.L.L.L.L.L.L.L.L.L.L.L.L.L.L.L.L.C.Y $ ..:.>.>.>.>.>.:.>.:.>.:.o.X.g g f u T l.L.L.L.L.L.L.L.L.L.L.L.L.L.L.L.L.L.L.L.L.L.",
"L.L.L.L.L.L.L.L.L.L.L.L.L.L.L.L.L.L.L.L.K.l.Y $ +.>.:.>.$.X........... . .g g a j _ N.K.L.L.L.L.L.L.L.L.L.L.L.L.L.L.L.L.L.L.L.L.",
"L.L.L.L.L.L.L.L.L.L.L.L.L.L.L.L.L.L.L.B.x.D.Z.E % o.X... . .g g g g g g g g a p ] G.D.z.B.L.L.L.L.L.L.L.L.L.L.L.L.L.L.L.L.L.L.L.",
"L.L.L.L.L.L.L.L.L.L.L.L.L.L.L.L.L.L.L.B.z.D.L.M.J & o d g g f d a a g g f e # ] G.L.D.z.B.L.L.L.L.L.L.L.L.L.L.L.L.L.L.L.L.L.L.L.",
"L.L.L.L.L.L.L.L.L.L.L.L.L.L.L.L.L.L.L.H.D.K.L.K.Z.m.z s d a u , # & s d r , T K.L.L.K.D.K.L.L.L.L.L.L.L.L.L.L.L.L.L.L.L.L.L.L.L.",
"L.L.L.L.L.L.L.L.L.L.L.L.L.L.L.L.L.L.L.L.L.L.L.L.L.L.n.8 , , ^ C.Z.v.8 , J C.F.L.L.L.L.L.L.L.L.L.L.L.L.L.L.L.L.L.L.L.L.L.L.L.L.L.",
"L.L.L.L.L.L.L.L.L.L.L.L.L.L.L.L.L.L.L.L.L.L.L.L.L.L.L.J.G.G.J.L.L.L.F.J.L.L.L.L.L.L.L.L.L.L.L.L.L.L.L.L.L.L.L.L.L.L.L.L.L.L.L.L.",
"L.L.L.L.L.L.L.L.L.L.L.L.L.L.L.L.L.L.L.L.L.L.L.L.L.L.L.L.L.L.L.L.L.L.L.L.L.L.L.L.L.L.L.L.L.L.L.L.L.L.L.L.L.L.L.L.L.L.L.L.L.L.L.L.",
"L.L.L.L.L.L.L.L.L.L.L.L.L.L.L.L.L.L.L.L.L.L.L.L.L.L.L.L.L.L.L.L.L.L.L.L.L.L.L.L.L.L.L.L.L.L.L.L.L.L.L.L.L.L.L.L.L.L.L.L.L.L.L.L.",
"L.L.L.L.L.L.L.L.L.N.B.L.L.L.L.L.L.L.L.L.L.L.L.L.L.L.L.L.L.L.L.L.L.L.L.L.L.L.L.L.L.L.L.L.L.L.L.L.L.L.L.L.L.B.x.D.L.L.L.L.L.L.L.L.",
"L.L.L.L.L.L.L.L.D.x.B.K.L.L.L.L.L.L.L.L.L.L.L.L.L.L.L.L.L.L.L.L.L.L.L.L.L.L.L.L.L.L.L.L.L.L.L.L.L.L.L.L.K.B.z.D.L.L.L.L.L.L.L.L.",
"L.L.L.L.L.L.L.L.L.K.D.x.B.L.L.L.L.L.L.L.L.L.L.L.L.L.L.L.L.L.L.L.L.L.L.L.L.L.L.L.L.L.L.L.L.L.L.L.L.L.L.S.x.S.L.L.L.L.L.L.L.L.L.L.",
"L.L.L.L.L.L.L.L.L.L.D.x.B.L.L.L.L.L.L.L.L.L.L.L.L.L.L.L.L.L.L.L.L.L.L.L.L.L.L.L.L.L.L.L.L.L.L.L.L.L.L.D.x.D.L.L.L.L.L.L.L.L.L.L.",
"L.L.L.L.L.L.L.L.L.L.L.K.L.L.L.L.L.L.L.L.L.L.L.L.L.L.L.L.L.L.L.L.L.L.L.L.L.L.L.L.L.L.L.L.L.L.L.L.L.L.L.L.K.L.L.L.L.L.L.L.L.L.L.L.",
"L.L.L.L.L.L.L.L.L.L.L.L.L.L.L.L.L.L.L.L.L.L.L.L.L.L.L.L.L.L.L.L.L.L.L.L.L.L.L.L.L.L.L.L.L.L.L.L.L.L.L.L.L.L.L.L.L.L.L.L.L.L.L.L.",
"N.B.L.L.L.L.L.L.L.L.L.L.L.L.L.L.L.L.L.L.L.L.L.L.L.L.L.L.L.L.L.L.L.L.L.L.L.L.L.L.L.L.L.L.L.L.L.L.L.L.L.L.L.L.L.L.L.L.L.L.L.L.B.N.",
"z.x.L.L.L.L.L.L.L.L.L.L.L.L.L.L.L.L.L.L.L.L.L.L.L.L.L.L.L.L.L.L.L.L.L.L.L.L.L.L.L.L.L.L.L.L.L.L.L.L.L.L.L.L.L.L.L.L.L.L.L.L.x.z.",
"z.x.L.L.L.L.L.L.L.L.L.L.L.L.L.L.L.L.L.L.L.L.L.L.L.L.L.L.L.L.L.L.L.L.L.L.L.L.L.L.L.L.L.L.L.L.L.L.L.L.L.L.L.L.L.L.L.L.L.L.L.L.x.z.",
"z.x.L.L.L.L.L.L.L.L.L.L.L.L.L.L.L.L.L.L.L.L.L.L.L.L.L.L.L.L.L.L.L.L.L.L.L.L.L.L.L.L.L.L.L.L.L.L.L.L.L.L.L.L.L.L.L.L.L.L.L.L.x.z.",
"z.x.L.L.L.L.L.L.L.L.L.L.L.L.L.L.L.L.L.L.L.L.L.L.L.L.L.L.L.L.L.L.L.L.L.L.L.L.L.L.L.L.L.L.L.L.L.L.L.L.L.L.L.L.L.L.L.L.L.L.L.K.x.z.",
"z.x.L.L.L.L.L.L.L.L.L.L.L.L.L.L.L.L.L.L.L.L.L.L.L.L.L.L.L.L.L.L.L.L.L.L.L.L.L.L.L.L.L.L.L.L.L.L.L.L.L.L.L.L.L.L.L.L.L.L.L.L.x.z.",
"z.x.K.L.L.L.L.L.L.L.L.L.L.L.L.L.L.L.L.L.L.L.L.L.L.L.L.L.L.L.L.L.L.L.L.L.L.L.L.L.L.L.L.L.L.L.L.L.L.L.L.L.L.L.L.L.L.L.L.L.L.L.x.z."
};
