/* XPM */
static char *d6dc67107a1b4ca8a55fe539a76bc2afvCapDGSKAmULGO5B[] = {
/* columns rows colors chars-per-pixel */
"64 64 211 2 ",
"   c #110A09",
".  c #3C2D37",
"X  c #343131",
"o  c #4A3C34",
"O  c #42313A",
"+  c #496528",
"@  c #7C773F",
"#  c #482D45",
"$  c #572B4B",
"%  c #592C4D",
"&  c #573A4C",
"*  c #5A3851",
"=  c #6B324D",
"-  c #78374F",
";  c #643A56",
":  c #733953",
">  c #5E414A",
",  c #5D514A",
"<  c #5B4255",
"1  c #654447",
"2  c #76474A",
"3  c #6B5952",
"4  c #74654B",
"5  c #714D66",
"6  c #6B5E70",
"7  c #843D31",
"8  c #8E4A3F",
"9  c #853D4F",
"0  c #863D51",
"q  c #8B524C",
"w  c #95544A",
"e  c #8F4757",
"r  c #954354",
"t  c #964855",
"y  c #984959",
"u  c #9F5257",
"i  c #AB4F52",
"p  c #AC5451",
"a  c #BB5655",
"s  c #976F4D",
"d  c #9E6B4B",
"f  c #AC7050",
"g  c #8C5A6B",
"h  c #985364",
"j  c #9E5D6D",
"k  c #896269",
"l  c #896E68",
"z  c #9B706B",
"x  c #876576",
"c  c #A96C6F",
"v  c #BB726D",
"b  c #B77371",
"n  c #B67776",
"m  c #DB6754",
"M  c #DF6956",
"N  c #DC6A5A",
"B  c #D77F57",
"V  c #E26955",
"C  c #E36D5A",
"Z  c #D16D60",
"A  c #CB7577",
"S  c #D37D7B",
"D  c #E57260",
"F  c #739F33",
"G  c #75A334",
"H  c #7AA535",
"J  c #85AA36",
"K  c #8BAC36",
"L  c #93B037",
"P  c #9BB438",
"I  c #A4AE3C",
"U  c #AAA93E",
"Y  c #A2B63A",
"T  c #AAB53B",
"R  c #A6B939",
"E  c #ADBC3A",
"W  c #858342",
"Q  c #BF915E",
"!  c #AAA742",
"~  c #B8AD49",
"^  c #AFBD40",
"/  c #B1BE43",
"(  c #B5B248",
")  c #BBAD58",
"_  c #AEBC56",
"`  c #BBB256",
"'  c #B0BD54",
"]  c #B2BD5C",
"[  c #AC897D",
"{  c #D48355",
"}  c #C4906A",
"|  c #CA8776",
" . c #D9867A",
".. c #DB917E",
"X. c #B3C149",
"o. c #B7C557",
"O. c #B8C557",
"+. c #BAC65A",
"@. c #BAC465",
"#. c #BECA65",
"$. c #C1CC6B",
"%. c #C3CF73",
"&. c #C7D27C",
"*. c #7D798A",
"=. c #8C7289",
"-. c #847E8D",
";. c #8B7D8A",
":. c #A97B8B",
">. c #D1748A",
",. c #8C8897",
"<. c #8A8A9B",
"1. c #908494",
"2. c #B99485",
"3. c #AF8C9C",
"4. c #9C96A6",
"5. c #B39EAD",
"6. c #B4BCA5",
"7. c #ADB0B4",
"8. c #D79587",
"9. c #D58890",
"0. c #E28A89",
"q. c #EF8A9C",
"w. c #EF9A96",
"e. c #D5AA96",
"r. c #F8A68F",
"t. c #F8A893",
"y. c #FCAA93",
"u. c #F6B29B",
"i. c #FCB39C",
"p. c #CB8DA2",
"a. c #C997A9",
"s. c #CB9FB2",
"d. c #E68AA1",
"f. c #ED98AC",
"g. c #D1AAAA",
"h. c #C7B4A9",
"j. c #CBA6B6",
"k. c #DBA7B7",
"l. c #D1ABBD",
"z. c #C9B2B8",
"x. c #D5B9B8",
"c. c #F5A7A5",
"v. c #E7BAA1",
"b. c #E9BCA3",
"n. c #FDB5A2",
"m. c #FCBBA4",
"M. c #F6B7A9",
"N. c #E9ABBA",
"B. c #E2B8B5",
"V. c #F2BEB6",
"C. c #BBC09C",
"Z. c #BCC0A6",
"A. c #BCC0B7",
"S. c #BFC1B8",
"D. c #C9D485",
"F. c #CFD995",
"G. c #D2D896",
"H. c #D9DCA9",
"J. c #D2CCB4",
"K. c #FDC0A6",
"L. c #F6C4AB",
"P. c #FCC4AC",
"I. c #FCC9AF",
"U. c #EAC7B2",
"Y. c #FDCBB0",
"T. c #FBC7B8",
"R. c #DBE1AA",
"E. c #DAE5BF",
"W. c #BDB5C4",
"Q. c #BDBCCB",
"!. c #C6B5C2",
"~. c #C5BCCA",
"^. c #D6BCC2",
"/. c #EABFC9",
"(. c #C8C4CC",
"). c #C3C3D2",
"_. c #CBC8D4",
"`. c #CDCCD9",
"'. c #D6CED8",
"]. c #D2D2DC",
"[. c #D9D4DE",
"{. c #FED2C6",
"}. c #FDD4C9",
"|. c #FDD9CF",
" X c #EBD7DC",
".X c #F8DAD8",
"XX c #E6EBC9",
"oX c #FEE0D6",
"OX c #FDE1DA",
"+X c #FEE8DD",
"@X c #EDF1D9",
"#X c #F1F4DE",
"$X c #D6D6E0",
"%X c #DCDBE4",
"&X c #E2DDE3",
"*X c #F9DEE5",
"=X c #E7E6E5",
"-X c #E2E2E9",
";X c #E8E8EE",
":X c #FDE7E5",
">X c #EEF1E5",
",X c #F4F5E4",
"<X c #F2F4EB",
"1X c #EEEEF2",
"2X c #F4F3F4",
"3X c #FEF5F3",
"4X c #FDFAF6",
"5X c #FBF7F8",
"6X c #FEFDFD",
"7X c #FEFEFD",
"8X c white",
/* pixels */
"+ + K L E E E E E E E E E E E E E E E E E E E E E E E E E E E E E E E E E E E E E E E E E E E E E E E E E E E E E E E E P K + + ",
"F F R E E E E E E E E E E E E E E E E E E E E E E E E E E E E E E E E E E E E E E E E E E E E E E E E E E E E E E E E E E R H F ",
"J K E E E E E E E E E E E E E E E E E E E E E E E E E E E E E E E E E E E E E E E E E E E E E E E E E E E E E E E E E E E R K J ",
"R E E E E E E E E E E E E E E E E E E E E E E E E E E E E E E E E E E E E E E E E E E E E E E E E E E E E E E E E E E E E E E E ",
"E E E E E E E E E E E E E E E E E E E E E E E E E E E E E E E E E E E E E E E E E E E E E E E E E E E E E E E E E E E E E E E E ",
"E E E E E E E E E E E E E E E E E E E E E E E E E E E E E E E E E E E E E E E E E E E E E E E E E E E E E E E E E E E E E E E E ",
"E E E E E E E R E E E E E E E E E E E E E E E E E E E E E E E E E E E E E E E E E R E E E E E E E E E E E E E E E E E E E E E E ",
"E E E E E E J H L E E E E E E E E E E E E E E E E E E E E E E E E E E E E E E E K G L R E E E E E E E E E E E E E E E E E E E E ",
"E E E E E R J H K E R E E E E E E E E E E E E E E E E E E E E E E E E E E E E E R H L R E E E E E E E E E E E E E E E E E E E E ",
"E E E E E E R Y L J L E E E E E E E E E E E E E E E E E E E E E E E E E E E E E E R L J K Y E E E E E E E E E E E E E E E E E E ",
"E E E E E E E E P H K E E E E E E E E E E E E E E E E E E E E E E E E E E E E E E E L H J Y E E E E E E E E E E E E E E E E E E ",
"E E E E E E E E R P R E E E E E E E E E E E E E E E E E E E E E E E E E E E E E E E R Y Y E E E E E E E E E E E E E E E E E E E ",
"E E E E E E E E E E E E E E E E E E E E E E E E E E E E E E E E E E E E E E E E E E E E E E E E E E E E E E E E E E E E E E E E ",
"E E E E E E E E E E E E E E E E E E E E E E E E E E E E E E E E E E E E E E E E E E E E E E E E E E E E E E E E E E E E E E E E ",
"E E E E E E E E E E E E E E E E E E E E E E E E E E E E E E E E E E E E E E E E E E E E E E E E E E E E E E E E E E E E E E E E ",
"E E E E E E E E E E E E E E E E E E / #.%.+.E E E E E E E E E E E E E E E E E E E E / $.%.X.E E E E E E E E E E E E E E E E E E ",
"E E E E E E E E E E E E E E E E E E @.E.>XD.^ ^ E E E E E E E E E E E E E E E E E E #.@X@X$.E E E E E E E K H P E E E E E E E E ",
"E E E E E E E E E E E E E E E E / O.#.XX<XF.o.X.E E E E E E E E E E E E E E E E X.+.F.,X#X&.O./ E E E E R K H P E E E E E E E E ",
"E E E E E E E E E / E E E E E E #.#X4X7X7X5X,XF.E E E E E E E E E E E E E E E E R.<X4X7X7X4X@X#.E E E J H P R E E E E E E E E E ",
"E E E E E E E E E E E E E E E E #.#X4X7X7X7X<XF.( E E X.O.O.O.O.o.+.+.+.X.E E ( H.4X5X7X7X4X>X%.E E E J H P E E E E E E E E E E ",
"E E E E E E E E E E E E E E E E @.`.$X1X5X-X).a.A } E D.,X,X,X,X,X,X,X,XD.E } A j.(.$X2X2X$X].>X$.E E E E E E E E E E E E E E E ",
"E E E E E E E E E E E E E E E E @.`.`.1X2X$X!.a.>.} X.G.4X7X7X7X7X7X7X5XF.X.} >.s.~.].2X2X].].1X$.E E E E E E E E E E E E E E E ",
"E E E E E E E E E E E E E E E E @.&X-X&X[.z.p.a.a.h.R.XX7X7X7X7X7X7X7X7XXXR.U./.k.p.j.'.%X-X=XH.X.E E E E E E E E E E E E E E E ",
"E E E E E E E E E E E E E E E E #.#X2X].!.p.>.a.).%X7X7X7X7X7X7X7X7X7X7X7X5X7X5XN.>.p.l.`.1X,X$.E E E E E E E E E E E E E E E E ",
"E E E E E E E E E E E E E E E E o.R.H.g.a.a.a.!.~.%X7X7X7X7X7X7X7X7X7X7X7X7X7X7X XN.k.s.j.J.G.+.E E E E E E E E E E E E E E E E ",
"E E E E E E E E E E E E E E E E E ^ ( | >.j.Q.Q.).%X7X7X7X7X7X7X7X7X7X7X7X7X7X7X7X4X.Xd.A ~ / E E E E E E E E E E E E E E E E E ",
"E E E E E E E E E E E E E E E E E E ~ | >.l.).`.%X1X7X7X7X7X7X7X7X7X7X7X7X7X7X7X7X7X*Xd.S ~ E E E E E E E E E E E E E E E E E E ",
"E E E E E E E E E E E E E E E E E R ~ ..d.l._.-X7X7X7X7X7X7X7X7X7X7X7X7X7X7X7X7X7X7X:Xf.0.` E E E E E E E E E E E E E E E E E E ",
"E E E E E E E E E E E E E E E E E E ( 8.q.l.).-X7X7X7X7X7X7X3X3X4X7X7X7X7X7X7X7X7X7X*Xf.0.~ E E E E E E E E E E E E E E E E E E ",
"E E E E E E E E E E E E E E E E E E ( ..d.l._.-X7X7X7X7X7X:XT.m.:X7X7X7X7X7X7X7X7X7X*Xf.0.` E E E E E E E E E E E E E E E E E E ",
"E E E E E E E E E E E E E E E E E E ( ..f.l.).&X3X4X7X7X3XOXm.m.OX3X3X3X4X7X3X3X5X7X:Xc.w.` E E E E E E E E E E E E E E E E E E ",
"E E E E E E E E E E E E E E E E E E ' h.~.Q.(.B.n.}.7X.Xm.m.P.P.m.n.n.n.OX7X}.m..X7X7X3XXX#.E E E E E E E E E E E E E E E E E E ",
"E E E E E E E E E E E E E E E E E E ' 6.).).~.B.i.T.3X|.y.i.P.P.i.y.y.y.|.3XT.i.|.4X7X7X,X#.E E E E E E E E E E E E E E E E E E ",
"E E E E E E E E E E E E E E E E E R ' J._.%X=X{.y.i.Y.P.K.P.P.I.K.m.m.m.I.I.n.y.|.7X7X7X#X#.E E E E E E E E E E E E E E E E E E ",
"E E E E E E E E E E E E E E E E E E ' 6._.;X5X{.y.y.r.u.L.L.P.Y.Y.Y.L.L.u.r.r.y.|.7X7X7X#X#.E E E E E E E E E E E E E E E E E E ",
"E E E E E E E E E E E E E E E E E E ' 6.`.;X3X{.r. .z z z 2.v.Y.Y.L.2.[ z z 8.n.|.7X7X7X#X$.E E E E E E E E E E E E E E E E E E ",
"E E E E E E E E E E E E E E E E E E ' J.`.1X3X{.r.c . . . 3 e.Y.I.g.4 . . O [ L.+X7X7X7X,X#.E E E E E E E E E E E E E E E E E E ",
"E E E E E E E E E E E E E E E E E E ' J.%X2X4X}.r.| l l l [ v.I.I.v.2.l l l e.I.+X7X7X7X#X#.E E E E E E E E E E E E E E E E E E ",
"E E E E E E E E E E E E E E E E E E O.E.7X7X3X{.y.i.L.L.L.I.I.Y.Y.I.I.L.L.L.L.I.+X7X7X7X#X#.E E E E E E E E E E E E E E E E E E ",
"E E E E E E E E E E E E E E E E E E +.XX7X7X4X{.y.i.L.I.Y.Y.Y.Y.Y.Y.I.Y.P.P.I.Y.+X7X7X7X#X#.E E E E E E E E E E E E E E E E E E ",
"E E E E E E E E E E E E E E E E E E +.XX7X7X4X}.y.w.q.c.m.T.Y.Y.Y.Y.Y.I.c.q.c.Y.:X7X7X7X#X#.E E E E E E E E E E E E E E E E E E ",
"E E E E E E E E E E E E E E E E E E O.XX4X7X5X}.u.w.q.c.P.Y.I.I.Y.Y.Y.I.c.q.c.T.+X7X7X7X,X#.E E E E E E E E E E E E E E E E E E ",
"E E E E E E E E E E E E E E E E E E O.Z.].;X5X&X(.U.L.L.Y.I.I.I.I.I.I.I.P.P.U.(.-X7X7X7X>X#.E E E E E E E E E E E E E E E E E E ",
"E E E E E E E E E E E E E E E E E E ' Z.`.;X5X%X7.x.v.U.b.b.b.v.v.v.b.b.b.U.z.Q.-X7X7X4X@X#.E E E E E E E E E E E E E E E E E E ",
"E E E E E E E E E E E E E E E E E E _ 6.`.;X2Xz.j k 3 , o o o o o o o o , 3 k j ^.5X2X%X(.o.E E E E E E E E E E E E E E E E E E ",
"E E E E E E E E E E E E E E E E E R _ 6._.;X<Xs.t - O X                 X . 2 u z.5X1X`.7.] E E E E E E E E E E E E E E E E E E ",
"E E E E E E E E E E E E E E E E E E ' 6.`.;X3Xg.a p w 8 7 7 7 7 7 7 7 7 8 w p a B.5X2X`.S.o.^ E E E E E E E E E E E E E E E E E ",
"E E E E E E E E E E E E E E E E E E ' Z.`.;X3Xc.V m m M m m m M m m m m m m m C V.5X2X`.S.+.R E E E E E E E E E E E E E E E E E ",
"E E E E E E E E E E E E E E E E E E _ Z.`.;X3Xc.M V V N b b b b b b b b Z V V C U.5X1X`.J.] E E E E E E E E E E E E E E E E E E ",
"E E E E E E E E E E E E E E E E E E _ Z._.;X2XM.V V N b -.*.-.-.-.-.-.;.v V V C V.4X1X'.7.] E E E E E E E E E E E E E E E E E E ",
"E E E E E E E E E E R E E E E E E E X.Z._.-X.Xr.M m Z n <.<.<.<.<.<.<.,.n Z C C M..X&X_.S.o.E E E E E E E E R E E E E E E E E E ",
"E E E E E E E E R J K E E E E E E R o.Z.!.8.D C m v 1.4.Q.Q.Q.Q.Q.Q.Q.Q.4.;.v V C D 0.z.S.] E E E E E E E K H P E E E E E E E E ",
"E E E E E E E E P H K E E E E E E E _ h.z.8.V M Z n <.4.(.).).).).).).Q.4.<.n Z N V S z.(.] E E E E E R R K H P E E E E E E E E ",
"E E E E E E E E E E L H J E E E E E ' 6.z.9.N v 1.4.Q.Q.Q.).).).~.).).).Q.W.4.;.v C  .z.6.] E E E E E K H P R E E E E E E E E E ",
"E E E E E E E E E E P H J E E E E E ' C.z. .m c *.4.W.!.W.W.W.W.W.W.W.W.W.W.4.*.v C S g.h.o.E E E E E L H Y R E E E E E E E E E ",
"E E E E E E E E E E E R E E E E E E E _ ] { m i * 5 j j j j j j j j j j j j 5 ; i C { ) ' / E E E E E E R E E E E E E E E E E E ",
"E E E E E E E E E E E E E E E E E E E E U { m r $ : y y y p y r e r 0 0 y y - % i m { ~ E E E E E E E E E E E E E E E E E E E E ",
"J J E E E E E E E E E E E E E E E E E E E f i 9 $ g 3.3.3.:.h r 0 y g x x x : % r a f ! E E E E E E E E E E E E E E E E E E K K ",
"G H E E E E E E E E E E E E E E E E E E U d 9 - $ =.Q.Q.Q.5.j r y y =.*.*.*.5 % - t d ! E E E E E E E E E E E E E E E E E E H G ",
"G H E E E E E E E E E E E E E E E E E E U d r 9 % 5 1.1.=.=.h 0 0 : 5 6 6 6 < % - t u ! E E E E E E E E E E E E E E E E E R H G ",
"G H R E E E E E E E E E E E E E E E E E U d r = $ * < * $ = r 0 = $ % $ * < & $ 9 0 d ! E E E E E E E E E E E E E E E E E E H G ",
"G H E E E E E E E E E E E E E E E E E E U s w q < & & > 1 2 q q 2 1 1 1 * * > > q w f ! E E E E E E E E E E E E E E E E E R H G ",
"H H R E E E E E E E E E E E E E E E E E E E T T I F # , I T T T T T R Y 4 # 4 E E T E E E E E E E E E E E E E E E E E E E R H G ",
"G H R E E E E E E E E E E E E E E E E E E E E Y I s O 4 Y E E E E E E E , # W X.E E E E E E E E E E E E E E E E E E E E E R H G "
};
