/* XPM */
static char *ZXhpdA__[] = {
/* columns rows colors chars-per-pixel */
"64 64 219 2 ",
"   c #231D3A",
".  c #382440",
"X  c #393C56",
"o  c #493249",
"O  c #54344B",
"+  c #5C364D",
"@  c #5D394C",
"#  c #62374D",
"$  c #65394B",
"%  c #6B3B4B",
"&  c #763C4B",
"*  c #673750",
"=  c #663851",
"-  c #6B3952",
";  c #753B55",
":  c #7B3D54",
">  c #6A454E",
",  c #76434D",
"<  c #7D4455",
"1  c #79465D",
"2  c #6D5159",
"3  c #725254",
"4  c #4E596E",
"5  c #744B65",
"6  c #794B62",
"7  c #6E566C",
"8  c #79566C",
"9  c #54677A",
"0  c #75657C",
"q  c #A7343C",
"w  c #B23134",
"e  c #B63838",
"r  c #C73B33",
"t  c #B4443D",
"y  c #C94C3C",
"u  c #D84D36",
"i  c #CD523B",
"p  c #D8543B",
"a  c #E0623B",
"s  c #833B4D",
"d  c #8A3A4C",
"f  c #973744",
"g  c #943D4A",
"h  c #833F52",
"j  c #883E50",
"k  c #AA3C41",
"l  c #87454D",
"z  c #8C414D",
"x  c #844C4E",
"c  c #934247",
"v  c #93434E",
"b  c #9B454C",
"n  c #944A4E",
"m  c #9D4A4E",
"M  c #89544E",
"N  c #94574C",
"B  c #854253",
"V  c #8B4251",
"C  c #834A55",
"Z  c #8B4A54",
"A  c #854B59",
"S  c #8C4C59",
"D  c #914450",
"F  c #944B53",
"G  c #9B4D53",
"H  c #904D5A",
"J  c #885652",
"K  c #87505E",
"L  c #8B525C",
"P  c #945555",
"I  c #9C5255",
"U  c #9D5D59",
"Y  c #AC4746",
"T  c #A2464A",
"R  c #A5494C",
"E  c #AA4B4B",
"W  c #B44B46",
"Q  c #BB4B42",
"!  c #A4554A",
"~  c #AE534D",
"^  c #B4544C",
"/  c #B9564C",
"(  c #B7584A",
")  c #BB5C4C",
"_  c #A44D50",
"`  c #A35353",
"'  c #AA5552",
"]  c #AC5A53",
"[  c #B85C51",
"{  c #8A654D",
"}  c #94624D",
"|  c #9B674A",
" . c #897247",
".. c #947949",
"X. c #9D6557",
"o. c #A46647",
"O. c #A36D4D",
"+. c #BA614C",
"@. c #AF774C",
"#. c #A3635A",
"$. c #A96B5B",
"%. c #BD6354",
"&. c #B76855",
"*. c #B36D59",
"=. c #B67A5E",
"-. c #875464",
";. c #8A5664",
":. c #8C5966",
">. c #915A64",
",. c #8F606C",
"<. c #996C6A",
"1. c #836777",
"2. c #A56762",
"3. c #AC7769",
"4. c #B57869",
"5. c #A17271",
"6. c #AB7E77",
"7. c #C34A41",
"8. c #C75746",
"9. c #D55942",
"0. c #C4644D",
"q. c #CA634E",
"w. c #CB6A4D",
"e. c #DD6144",
"r. c #D26E4F",
"t. c #C66752",
"y. c #CC6A51",
"u. c #D26A52",
"i. c #C77857",
"p. c #DB7554",
"a. c #E86A47",
"s. c #F1764D",
"d. c #E37A54",
"f. c #688A32",
"g. c #75A334",
"h. c #7BA635",
"j. c #8A9A3E",
"k. c #AE953E",
"l. c #87AB36",
"z. c #8BAD36",
"x. c #98A93A",
"c. c #95B137",
"v. c #9CB438",
"b. c #A6A73F",
"n. c #A6AC3D",
"m. c #A9AC3D",
"M. c #BAA33A",
"N. c #A3B43B",
"B. c #AAB43D",
"V. c #A5B839",
"C. c #ADBC3A",
"Z. c #998946",
"A. c #899240",
"S. c #9D9445",
"D. c #9F9D41",
"F. c #AC8743",
"G. c #A09C41",
"H. c #A4A641",
"J. c #A6AB41",
"K. c #ACB443",
"L. c #BA856A",
"P. c #B98A76",
"I. c #C7845D",
"U. c #C8855E",
"Y. c #C38660",
"T. c #C48961",
"R. c #CA8E62",
"E. c #CD9264",
"W. c #CD956A",
"Q. c #CF986D",
"!. c #D09768",
"~. c #D19A6C",
"^. c #C38D70",
"/. c #CA9977",
"(. c #D39E71",
"). c #D39B78",
"_. c #E5996E",
"`. c #D5A375",
"'. c #D6A579",
"]. c #D9A77A",
"[. c #D9AB7D",
"{. c #6F6D88",
"}. c #6F718B",
"|. c #74758B",
" X c #6D7791",
".X c #6E7A94",
"XX c #6C7E99",
"oX c #747C92",
"OX c #787F93",
"+X c #887682",
"@X c #6E819B",
"#X c #7A8395",
"$X c #75899D",
"%X c #748DA3",
"&X c #7795A7",
"*X c #7A9CAC",
"=X c #7CA0AF",
"-X c #7EA5B2",
";X c #BD9381",
":X c #80A4B0",
">X c #80AAB5",
",X c #C69D84",
"<X c #CDA282",
"1X c #D5AA82",
"2X c #DAAE81",
"3X c #D3AB8B",
"4X c #DCB184",
"5X c #DDB48A",
"6X c #DFB98D",
"7X c #D3AF90",
"8X c #DCB993",
"9X c #E3AB83",
"0X c #E8B387",
"qX c #E1BA8D",
"wX c #E2BE93",
"eX c #E5C295",
"rX c #E6C599",
"tX c #E7C89C",
"yX c #E9CA9D",
/* pixels */
"g.h.C.C.C.C.C.C.C.C.C.C.C.C.C.C.C.C.C.C.C.C.C.C.C.C.C.C.C.C.C.C.C.C.C.C.C.C.C.C.C.C.C.C.C.C.C.C.C.C.C.C.C.C.C.C.C.C.C.C.C.C.h.g.",
"h.h.C.C.C.C.C.C.C.C.C.C.C.C.C.C.C.C.C.C.C.C.C.C.C.C.C.C.C.C.C.C.C.C.C.C.C.C.C.C.C.C.C.C.C.C.C.C.C.C.C.C.C.C.C.C.C.C.C.C.C.C.h.h.",
"V.C.C.C.C.C.C.C.C.C.C.C.C.C.C.C.C.C.C.C.C.C.C.C.C.C.C.C.C.C.C.C.C.C.C.C.C.C.C.C.C.C.C.C.C.C.C.C.C.C.C.C.C.C.C.C.C.C.C.C.C.C.C.C.",
"C.C.C.C.C.C.C.C.C.C.C.C.C.C.C.C.C.C.C.C.C.C.C.C.C.C.C.C.C.C.C.C.C.C.C.C.C.C.C.C.C.C.C.C.C.C.C.C.C.C.C.C.C.C.C.C.C.C.C.C.C.C.C.C.",
"C.C.C.C.C.C.C.C.C.C.C.C.C.C.C.C.C.C.C.C.C.C.C.C.C.C.C.C.C.C.C.C.C.C.C.C.C.C.C.C.C.C.C.C.C.C.C.C.C.C.C.C.C.C.C.C.C.C.C.C.C.C.C.C.",
"C.C.C.C.C.C.C.C.C.C.C.C.C.C.C.C.C.C.C.C.C.C.C.C.C.C.C.C.C.C.C.C.C.C.C.C.C.C.C.C.C.C.C.C.C.C.C.C.C.C.C.C.C.C.C.C.C.C.C.C.C.C.C.C.",
"C.C.C.C.C.C.V.v.V.C.C.C.C.C.C.C.C.C.C.C.C.C.C.C.C.C.C.C.C.C.C.C.C.C.C.C.C.C.C.C.C.v.V.C.C.C.C.C.C.C.C.C.C.C.C.C.C.C.C.C.C.C.C.C.",
"C.C.C.C.C.C.c.h.c.C.C.C.C.C.C.C.C.C.C.C.C.C.C.C.C.C.C.C.C.C.C.C.C.C.C.C.C.C.C.C.v.g.z.C.C.C.C.C.C.C.C.C.C.C.C.C.C.C.C.C.C.C.C.C.",
"C.C.C.C.C.C.c.h.z.C.C.C.C.C.C.C.C.C.C.C.C.C.C.C.C.C.C.C.C.C.C.C.C.C.C.C.C.C.C.C.V.h.z.V.C.C.C.C.C.C.C.C.C.C.C.C.C.C.C.C.C.C.C.C.",
"C.C.C.C.C.C.C.V.c.g.l.C.C.C.C.C.C.C.C.C.C.C.C.B.m.b.n.b.n.n.m.m.B.M.m.B.m.J.m.m.n.n.v.h.l.V.C.C.C.C.C.C.C.C.C.C.C.C.C.C.C.C.C.C.",
"C.C.C.C.C.C.C.C.c.g.z.C.C.C.C.C.C.C.C.C.C.C.n.| s ; ; ; s g T T v v b b E g E g g o.x.g.l.V.C.C.C.C.C.C.C.C.C.C.C.C.C.C.C.C.C.C.",
"C.C.C.C.C.C.C.C.C.C.C.C.C.C.C.C.C.C.C.C.C.C.} f f ; ; ; f r e.9.8.R y i Q 7.8.R T 8.N J.V.C.C.C.C.C.C.C.C.C.C.C.C.C.C.C.C.C.C.C.",
"C.C.C.C.C.C.C.C.C.C.C.C.C.C.C.C.C.C.C.C.C.B.C s ; < < < ; g I G G _ D G _ D D T v F j J.C.C.C.C.C.C.C.C.C.C.C.C.C.C.C.C.C.C.C.C.",
"C.C.C.C.C.C.C.C.C.C.C.C.C.C.C.C.C.C.C.C.C...B ; Z =.L.L.S ; ; ; h V : ; j ; ; j s v : ..C.C.C.C.C.C.C.C.C.C.C.C.C.C.C.C.C.C.C.C.",
"C.C.C.C.C.C.C.C.C.C.C.C.C.C.C.C.C.C.C.C.M w s ; O.R.R.E.=.; s e u p 8.R Q u k Y i Y h i +.B.C.C.C.C.C.C.C.C.C.C.C.C.C.C.C.C.C.C.",
"C.C.C.C.C.C.C.C.C.C.C.C.C.C.C.C.C.C.C.3 f f ; L (.eXyXtXrX5.; c ) %.t.%.R / [ ~ [ W E T ~ ..C.C.C.C.C.C.C.c.l.v.C.C.C.C.C.C.C.C.",
"C.C.C.C.C.C.C.C.C.C.C.C.C.C.C.C.C.C.B.j.& ; : 3.qXrXeX3X5X7X1 ; ; : ; j b ; V j ; g v : < Z.C.V.C.C.C.C.C.z.g.c.C.C.C.C.C.C.C.C.",
"C.C.C.C.C.C.C.C.C.C.C.C.C.C.C.C.C.b...d & ; P R.E.5X6X(.`.wXP.1 : d g b g d d b d s T T v n F.C.C.C.C.V.v.z.l.v.C.C.C.C.C.C.C.C.",
"C.C.C.C.C.C.C.C.C.C.C.C.C.C.C.C.N. .f f ; < L.(.).wXtXrXeX5XT.P ; w 9.e.9.7.W 7.8.T i 8.b W 7.@.V.C.C.z.h.v.B.C.C.C.C.C.C.C.C.C.",
"C.C.C.C.C.C.C.C.C.C.C.C.C.C.C.C.n. .l & ; #.5XwXrXtXyXyXtX'.E.$.: s F G I I T G G E V F T z j ..V.C.C.c.h.v.C.C.C.C.C.C.C.C.C.C.",
"C.C.C.C.C.C.C.C.C.C.C.C.C.C.C.m.j.x 1 ; : U.`.eXyXyXyXyXyX5XE.W.>.; ; ; ; h h ; h j ; ; j j h P Z.C.C.C.C.C.C.C.C.C.C.C.C.C.C.C.",
"C.C.C.C.C.C.C.C.C.C.C.C.C.C.B.k.r f ; ; 3.E.!.qXyXyXyXyXyXyXeXeX1XA : f r 9.9.7.b y y R 7.9.g Y p F.C.C.C.C.C.C.C.C.C.C.C.C.C.C.",
"C.C.C.C.C.C.C.C.C.C.C.C.C.C.n.s q : ; A eXyXyXyXyXyX5X<XwXyXtXyXyX3.; : r y.u.u./ R 0.[ ^ [ W R ^ D S.C.C.C.C.C.C.C.C.C.C.C.C.C.",
"C.C.C.C.C.C.C.C.C.C.C.C.C.C.b.{ ; ; ; /.tXyXtX6X4.h h V ; ;.7XrXyXeXK ; ; ; : : D h ; D h ; g h ; { n.C.C.C.C.C.C.C.C.C.C.C.C.C.",
"C.C.C.C.C.C.C.C.C.C.C.C.C.G.g : ; ; U 8XyXyX5XU ; ; j ^ ; ; -.,XtXyX;X; ; : f T T b j g g j j T T : E b.C.C.C.C.C.C.C.C.C.C.C.C.",
"C.C.C.C.C.C.C.C.C.C.C.C.S.d w s ; B /.tXyXrX4.j ; ; j t.; ; ; ;.3XyXyX:.; h e 9.a.e.0.Y 8.8.W 9.t v y ) G.C.C.C.C.C.C.C.C.C.C.C.",
"C.C.C.C.C.C.C.C.C.C.C.C.S.d s ; ; 3.1XqXtXwX_ : ; ; j t.; ; ; ; ;XtXyX7X; ; j m I ` _ T D _ G D R b V N S.C.C.C.C.C.C.C.C.C.C.C.",
"C.C.C.C.C.C.C.C.C.C.C.H.{ ; ; ; :.3XwX'.1XwX_ j G ' *.i.*.] ] F ;XrXyXtX6.; ; : : h h j : h h ; h l B z } G.C.C.C.C.C.C.C.C.C.C.",
"C.C.C.C.C.C.C.C.C.C.Z.t q % ; < P.rXyXeX).eX_ : h V G t.H B < : ;XrXyXyX8X;.; s w u u u r Q y y b u 9.g Q a M.C.C.C.C.C.C.C.C.C.",
"C.C.C.C.C.C.C.C.C.K.N q d ; ; J `.qXtXyXyXwXT ; ; ; j ) ; ; ; ; ;XwX!.E.1X,X; ; f 0.t.[ ^ W / u.^ W q.W E W } m.C.C.C.C.C.C.C.C.",
"C.C.C.C.C.C.C.C.C.m...C ; ; < L.E.`.eXyXyXwX_ h : ; B ] : < ; : ;XrX2X].rX7X<.; ; ; ; ; : D B : b ; ; D h : Z.B.C.C.C.C.C.C.C.C.",
"C.C.C.C.C.C.C.C.k.o.s z : ; < E.`.wXyXyXyX0Xt.] ] ] ] ] ] ] ] ] 4.<XtXyXrX5XP.A ; ; f f T T g d T b j b E v g o.m.C.C.C.C.C.C.C.",
"C.C.C.C.C.C.C.C.N w g ; ; ; A ~.5X4X2X0XrX_.] ] &.[ ] %.%.%.%.] V ` wXyXrX].'.<.; ; q r e.e.9./ 7.9.0.7.9.E Y 8.o.J.C.C.C.C.C.C.",
"C.C.C.C.C.C.C.C.M d : ; ; ; < ~.2XE.E.!.'.9X3.$.$.$.$.$.#.$.$.$.$.^.eX].].`.(.,X-.; ; g I ` _ _ b I ' F F T g H N K.C.C.C.C.C.C.",
"C.C.C.C.C.C.C.C.G.{ ; ; : ; < !.4X5X<X,X<XrXqX0X2X2X4X2X4X2X9X[.2XwXyX).E.E.R.2XP.B j ; ; ; ; : : ; h : : h ; : ..C.C.C.C.C.C.C.",
"C.C.C.C.C.C.C.C.n.{ ; V v ; < E.(.6X1XW.E.W.(.wXyXyXyXyXyXwX`.~.qXyXyX].!.1XQ.2X'.S R : g e Q k k R Q b T Q E h i { C.C.C.C.C.C.",
"C.C.C.C.C.C.C.C.S.; ; b v ; < R.E.E./.,X,X).9X0X0X0X0X0X0X_._.0X0X].,XrXrXtX8X'.E.A R : f u s.s.a.8.8.s.q.q.a.Q c a.! K.C.C.C.C.",
"C.C.C.C.C.C.C.C.; ; : D F F F I I ` ` ` S p.d.q.8.[ ) 8./ / 0.r.d.) ; ' b b b D b D j V j g : : h j b h D g h g v < { K.C.C.C.C.",
"C.C.C.C.C.C.C.C., < V ' ^ / / q.u.y.t.%.G ) ^ b _ ^ ^ E E E ^ ) 0.~ B y./ / / / ^ ^ R m b h 5 5 6 >.5 6 -.5 h h ; { K.C.C.C.C.C.",
"C.C.C.C.C.C.C.B.Z...M V D _ T b b D ; ; ; E ' G _ ^ ^ W E E E G H b : E R T T m T R T V b S 0  X.X.X X X X}.5 ; ; H.C.C.C.C.C.C.",
"C.C.C.C.C.C.C.C.C.H.J < h h V *.*.$.$.$.$.&.&.0.^ E E E E E E &.&.G : ' *.*.*.&.*.l B h : 1 }.XXXXXXXXXXXX X8 : : K.C.C.C.C.C.C.",
"C.C.C.C.C.C.C.C.C.H.{ ` R : C R.E.].4XW.E.L.Z Z B B s h V h V Z S B L Y.E.'.(.E.E.Z ~ ! : 5 {.XXXX.X%X&X@X X-.j h K.C.C.C.C.C.C.",
"C.C.C.C.C.C.C.C.C.H.O.0.+.j F E.Q.8XrXrXeX`.T.T.T.T.T.T.Y.Y.T.T.T.T.U.~.6XtXrX'.E.A w.0.V 5 {.$X*XXX&X>X*XXX-.h V H.C.C.C.C.C.C.",
"C.C.C.C.C.C.C.C.C.H.O.0.^ E < E.'.1X7XrXyXyXyXyXeX[.'.'.2XtXyXyXyXyXyXyXtXrX5X[.!.Z w./ b 1 oX-X>X>X>X>X>X&X;.R j G.C.C.C.C.C.C.",
"C.C.C.C.C.C.C.C.C.H.O.+.^ T < Q.6XyXyXyXyXyXyXyXyXyXyXyXyXyXyXyXyXyXyXyXyXwX(.~.!.S r.~ E H #X=X*X%X>X=X%XoX-.R V G.C.C.C.C.C.C.",
"C.C.C.C.C.C.C.C.C.H.O.0.^ R < Q.wXyXeXeXyXyXyXyXyXyXyXyXyXyXyXyXyXyXyXyXyXyXtXeXeXL y.i.E L }.%X=X-X&X&X$XoX;.R V G.C.C.C.C.C.C.",
"C.C.C.C.C.C.C.C.C.H.O.y.0.R < Q.8XyX2X6XyXyXyXyXyXyXyXyXyXyXyXyXyXrXtXyXyXyXyXyXyXL w.T.E H {.*X=X4 7 4 :X:X,.R V D.C.C.C.C.C.C.",
"C.C.C.C.C.C.C.C.C.H.O.q.u.E < W.2X[.'.rXyXwX5.5.5.5.5.5.5.5.5.5.5.P.8XyXyXeX6XtXyXL w.i.E H OX:X9   * . 0 :X,.R V D.C.C.C.C.C.C.",
"C.C.C.C.C.C.C.C.C.J.O.y.u.E V R.].eXeXtXyX<.V z z l j d s l s s n S ^.yXrX4XwXyXyXL w.i.Y H OX*XX   : . 8 %X,.R j G.C.C.C.C.C.C.",
"C.C.C.C.C.C.C.C.C.J.O.y.u.R H E.[.yXtXtXyX3 % + + + # O $ # O # @ - =.'.!.[.yXyXyXK w.U.E H {.@XX   g . 5 }.;.R D G.C.C.C.C.C.C.",
"C.C.C.C.C.C.C.C.V.A.O.y.u.E F Q.eXtXyXyXyX2 = + % = N O E ; O B s ; =.4XyXyXyXyXyXA w.U.E H }.*XX % v s 6 oX>.R D G.C.C.C.C.C.C.",
"C.C.C.C.C.C.C.C.v.g.} q.u.E F Q.eXyXyXyXyX2 = > l l %., u.! x ( F ; L.yXyXyXyXyXyX-.q.I.E H oX:XX   s . 5 #X,.R d G.C.C.C.C.C.C.",
"C.C.C.C.C.C.C.C.v.j.N ^ q.E G Q.eXeXtXtXyX2 - % 0.p.d.d.d.d.p.d.P ; L.yXyXyXeXqXeXK +.I.E H }.&XX   * . 5 #X,.R D G.C.C.C.C.C.C.",
"C.C.C.C.C.C.C.C.V.H.} E ) Y F E.'.'.qXtXyX2 = + l N N N I N F N , ; P.yXyXyXeX[.].A ) I.Y H OX:Xo o & o h :X,.R D H.C.C.C.C.C.C.",
"C.C.C.C.C.C.C.C.C.H.N ! / E F T.E.!.4XyXyX2 % # * + - o l s O # + - P.yXyXyXyXeX~.A 8.i.Y H :X|.> m m z g +X:.E g G.C.C.C.C.C.C.",
"C.C.C.C.C.C.C.C.C.H.} E / E G Q.[.`.`.].eX2 - x u.t.+.O ( b $ x , ; L.yX[.`.'.qX6XA 0.0.Y D |.8 b _ V V g +X,.R D D.C.C.C.C.C.C.",
"C.C.C.C.C.C.C.C.C.J.} ) ) E G Q.[.E.E.E.eX3 - x M N w.O 0.) , ] S ; P.4XE.E.E.E.wXL 0.0.b 1 #X%XoXXX X.X X%X:.R D G.C.C.C.C.B.V.",
"g.h.V.C.C.C.C.C.C.H.} ) ) E H R.'.qXrXqX5X2 * > +.y.w.@ +.o., +.B - L.tX[.[.[.eXyXA 0.0.b 1 $X>X>X%X>X>X>X>X,.R D G.C.C.C.C.h.h.",
"g.h.C.C.C.C.C.C.C.H.} +.) E B R.E.E.4X~.E.> % $ $ & ^ O z R @ n , ; L.`.!.[.eX].E.A 0.w.b 1 #X-X*X&X>X-X%XXX;.V D G.C.C.C.V.h.h.",
"g.h.C.C.C.C.C.C.C.H.} [ ) E < T.!.'.qX[.E.> - % c l ! , P ! < N , ; *.!.`.`.5X].E.C 0.q.b 6 |.%X*X>X>X*X%X$X;.h b G.C.C.C.C.h.g.",
"g.h.C.C.C.C.C.C.C.H.} ) ) T B U.~.qXeX[.E.3 - % +.p.p.p.d.d.d.p.Z ; =.~.[.`.[.'.E.A 0.0.b 6 {.%X%X=X>X=X-X%X:.h n D.C.C.C.C.h.g.",
"g.h.C.C.C.C.C.C.C.H.} %.) T < U #.2.2.#.U @ = # x M M M x M C x % + J U #.X.` U U < w.q.T B 6 8 8 1.1.1.1.8 A h v D.C.C.C.C.h.g.",
"g.h.C.C.C.C.C.C.C.H.} ) ) R ; R ~ E E E ! + O + # # & O % s # $ @ o v E E ! ! E E < y.q.R T _ _ R ~ _ ~ E R b h v G.C.C.C.V.h.g.",
"f.f.V.C.C.C.C.C.C.H.} / ) T ; l V v D v v O * - * * - % - - - = - O : D D D V V B ; y.q.R g j j D D j j V V v h v H.C.C.C.V.f.f."
};
