/* XPM */
static char *Ng__[] = {
/* columns rows colors chars-per-pixel */
"64 64 131 2 ",
"   c #763A43",
".  c #7B3C44",
"X  c #76394E",
"o  c #7C3B4E",
"O  c #843D4E",
"+  c #883F4E",
"@  c #883F50",
"#  c #854146",
"$  c #8E4147",
"%  c #86414E",
"&  c #8C414E",
"*  c #974B47",
"=  c #9A4A47",
"-  c #93434D",
";  c #9A454D",
":  c #94494E",
">  c #9A4C4E",
",  c #9F504C",
"<  c #8D4350",
"1  c #914551",
"2  c #9C4551",
"3  c #954D50",
"4  c #994C50",
"5  c #9D5352",
"6  c #A1474D",
"7  c #A4494D",
"8  c #AB4B4D",
"9  c #B04F4D",
"0  c #A5524D",
"q  c #AA544C",
"w  c #AE594D",
"e  c #B4534D",
"r  c #B8564D",
"t  c #B5594E",
"y  c #BE5E4C",
"u  c #A44750",
"i  c #A44B54",
"p  c #AB4951",
"a  c #A55252",
"s  c #AC5653",
"d  c #A55A53",
"f  c #AA5D53",
"g  c #B45750",
"h  c #B55A51",
"j  c #BA5D54",
"k  c #B36354",
"l  c #B96754",
"z  c #BD6A55",
"x  c #C15E4D",
"c  c #C4614C",
"v  c #C4624C",
"b  c #C5624C",
"n  c #C5634C",
"m  c #C6634C",
"M  c #C4604E",
"N  c #C5604E",
"B  c #C5624E",
"V  c #C6634E",
"C  c #C7634E",
"Z  c #C7624F",
"A  c #C6634F",
"S  c #C7634F",
"D  c #C7644C",
"F  c #C4624E",
"G  c #C8634F",
"H  c #C8654C",
"J  c #C8664C",
"K  c #C9664C",
"L  c #CA674C",
"P  c #C9644F",
"I  c #CA654F",
"U  c #CA664E",
"Y  c #CA654F",
"T  c #C7694C",
"R  c #CB684C",
"E  c #CF6B4E",
"W  c #C96A4C",
"Q  c #D16E4F",
"!  c #D0704F",
"~  c #C46454",
"^  c #C66455",
"/  c #C26551",
"(  c #C86555",
")  c #C86655",
"_  c #C96655",
"`  c #CA6756",
"'  c #CB6756",
"]  c #C06C55",
"[  c #C26D56",
"{  c #CC6856",
"}  c #CD6A56",
"|  c #D26F50",
" . c #C77256",
".. c #C57156",
"X. c #CB7557",
"o. c #CC7258",
"O. c #D67251",
"+. c #D77251",
"@. c #D47351",
"#. c #DA7753",
"$. c #D87653",
"%. c #DE7955",
"&. c #D77258",
"*. c #D87458",
"=. c #DF7B59",
"-. c #DA7F58",
";. c #E37E58",
":. c #E68457",
">. c #E58556",
",. c #E6815A",
"<. c #E28459",
"1. c #E88658",
"2. c #E8845A",
"3. c #E9855B",
"4. c #EC875B",
"5. c #E7885A",
"6. c #E98859",
"7. c #EA8859",
"8. c #EA8959",
"9. c #EB8959",
"0. c #EB8A59",
"q. c #EC8A59",
"w. c #EC8B5A",
"e. c #ED8D5A",
"r. c #EE8D5A",
"t. c #EE8B5B",
"y. c #F28C5D",
"u. c #F28C5D",
"i. c #F1905B",
"p. c #F4935C",
"a. c #F4935C",
/* pixels */
"X X X X X X X X X X X X X X X X X X X X X X X X X X X X X X X X X X X X X X X X X X X X X X X X X X X X X X X X X X X X X X X X ",
"X X X X X X X X X X X X X X X X X X X X X X X X X X X X X X X X X X X X X X X X X X X X X X X X X X X X X X X X X X X X X X X X ",
"X X X X X X X X X X X X X X X X X X X X X X X X X X X X X X X X X X X X X X X X X X X X X X X X X X X X X X X X X X X X X X X X ",
"X X X X X X X X X X X X X X X X X X X X o < 3 5 d k k l z z z z z z ] z l k k f 5 3 3 % X X X X X X X X X X X X X X X X X X X X ",
"X X X X X X 4 s 4 5 5 5 3 : & : * z -.e.a.a.a.a.a.a.a.a.a.a.a.a.a.a.a.a.a.a.a.a.p.p.p.p.a.<. ., : < : : : 5 5 5 3 s a O X X X X ",
"X X X X X 1 ` ` } y.y.y.%.K J J R r.a.a.a.a.a.a.a.a.a.a.a.a.a.a.a.a.a.a.a.a.a.a.p.p.p.p.a.p.p.Q R J J R @.u.y.y.*.' ' h X X X X ",
"X X X X X j ` ` { y.y.y.;.R J J R #.p.p.a.a.a.a.a.a.a.a.a.a.a.a.a.a.a.a.a.a.a.a.p.p.p.p.a.a.1.L J J R R @.y.y.y.&.' ` ` O X X X ",
"X X X X % ` ` ` ' ;.1.1.R J R R K R >.1.1.9.9.9.5.e.5.1.0.0.1.e.1.0.0.0.0.0.e.1.q.0.e.q.q.q.Q L R R R J R ;.1.,.' ' ` ` 4 X X X ",
"X X X X : ` ` ` ' >   . H J R R K R K R K R K R L L L L L L L L J R R J H R R R H H R R L L L L L L L L K =   O ' ' ` ` a X X X ",
"X X X X & ` ` ` _ O     t R R H R K R K R K R K L L L L L L L L R J R R R R H R R R R H L L L L L L L L K .     ~ ' ` ' 4 X X X ",
"X X X X o ` ' ` _       q H R H K R K K K R K R L L L L L L L L J R J R R H R J R R R H L L L L L L L L y       h ' ` ' 3 X X X ",
"X X X X X s ' ' t       = H R R R K K K R K R K L L L L L L L L R R J R R J R H H H R R L L L H L L L D q     . 0 ^ ` ~ X X X X ",
"X X X X X + 9 8 8 7 $ = 8 8 8 e e r r y x x x x x b b b G D D D H H H H b b b b b x c y y y r r e e 9 8 8 7 - ; 8 8 q 7 X X X X ",
"X X X X X + 8 8 8 8 8 8 8 8 8 8 8 8 8 8 8 8 8 8 8 8 8 8 8 8 8 8 8 8 8 8 8 8 8 8 8 8 8 8 8 8 8 8 8 8 8 8 8 8 8 8 8 8 8 6 X X X X ",
"X X X X X O 8 8 8 8 8 8 8 8 8 8 8 8 8 8 8 8 8 8 8 8 8 8 8 8 8 8 8 8 8 8 8 8 8 8 8 8 8 8 8 8 8 8 8 8 8 8 8 8 8 8 8 8 8 ; X X X X ",
"X X X X X . + 8 8 8 8 8 8 8 8 8 8 8 8 8 8 8 8 8 8 8 8 8 8 8 8 8 8 8 8 8 8 8 8 8 8 8 8 8 8 8 8 8 8 8 8 8 8 8 8 8 8 8 u o X X X X ",
"X X X X X X X o + - - - + - - + + - + + + + + + + + + + + + + + + + + + + + + O + & + + & + + - $ & & - + + ; - + O X X X X X X ",
"X X X X X X X X X X X X X X X X X X X X o o X o X X o X X X X X X X X X X X X X X X X X X X X X   X X X X X o X X X X X X X X X ",
"X X X X X X X X X X X X X X X X X X X X X X X X X X X X X X X X X X X X X X X X X X X X X X X X X X X X X X X X X X X X X X X X ",
"X X X X X X X X X X X X X X X X X X X X X X X X X X X X X X X X X X X X X X X X X X X X X X X X X X X X X X X X X X X X X X X X ",
"X X X X X X o - ; 8 8 8 7 ; + X X X X X X o + p u 2 + O X X X X X X X X X X - 8 8 - O X X X X X X o - 7 8 8 8 8 8 ; + o X X X X ",
"X X X X X O 8 8 8 8 8 8 8 8 8 - X X X X O p p p p p p p o X X X X X X X X - 8 8 8 8 9 + X X X X o 8 8 8 8 8 8 8 8 8 8 + X X X X ",
"X X X X X ; 8 8 8 8 8 8 8 8 8 7 X X X X 1 p p p p p p p + X X X X X X X O 8 8 8 8 8 8 6 X X X X 7 8 8 8 8 8 8 8 8 8 8 8 O X X X ",
"X X X X O 8 8 8 8 8 8 8 8 8 8 8 + X X X 2 p p p p p p p u X X X X X X % e 8 8 8 8 8 8 8 X X X O 8 8 8 8 8 8 8 8 8 8 8 9 + X X X ",
"X X X X O 8 8 8 8 8 8 8 8 8 8 8 + X X X 2 p p p p p p p u X X X X X 0 G I G r 8 8 8 8 8 O X X O 8 8 8 8 8 8 8 8 8 8 8 8 + X X X ",
"X X X X O 8 8 8 8 e x y 8 8 8 8 + o X X @ p p p p p p p p X X X O r I I I I ( 9 8 8 8 8 + X X o 8 8 8 8 8 r x y 8 8 8 8 + o X X ",
"X X X X X 8 8 9 x I _ I ( 9 8 8 X X X X O p p p p p p p 2 X X % c K I I I I G 8 8 8 8 8 O X X X 8 8 8 8 x I L I x 9 8 8 O X X X ",
"X X X X X - 9 x I I I I K G r ; X X X X X O 1 u p p p u O X % x K _ I I I I r 8 8 8 8 8 O X X X - 8 r G L I I _ I G r 7 X X X X ",
"X X X X X : G I I I I I I I I e X X X X X X X X o O o X X - G K I I I I I x 9 8 8 8 8 8 o X X X : G K K R K I K L I K y X X X X ",
"X X X X X / I I I I I I I I I x X X X X X X X X X X X X > G I I I I I I I 9 8 8 8 8 8 7 X X X X c K I _ I I I R I _ K _ O X X X ",
"X X X X + G K I I I I I I I I I ; X X X X X X X X X X q K I I I I I I I G 8 8 8 8 8 8 - X X X % I I I L R K I I I L K K ; X X X ",
"X X X X : G ( I I I I I I I I I 7 X X X X X X X X ; ~ G ( G I I I I I I G 7 ; + O O X X X X X : R L I I I I L L I I K K 0 X X X ",
"X X X X - I I I I I I I I I I G 7 X X X o + 8 6 q I I I I I I I I I I I c X X X X X X X X X X : K I R I I I R I R K R K a X X X ",
"X X X X & I I I I I I I I I I K ; X X X + 8 8 8 x I I I I I I I I I I I q X X X X X X X X X X & _ I R I K R K I I _ I K 7 X X X ",
"X X X X X K I I I I I I I I _ G O   X X + 9 8 8 N _ I I I I I I I I I K 1 X X X X X X X X X X o K I K I I I L I L R I K & X X X ",
"X X X X X q I I I I I I I I K r X X X o u 8 8 8 x I I I I I I I I I I x o X X X X X X X X X X X 0 K R I L I I I I I I m X X X X ",
"X X X X X & r _ I I I I I I x ; X X X X 8 8 8 8 x I I I _ K x x _ x ; X X + 2 2 ; + X X X X X X & e x K _ K I L _ R F 8 X X X X ",
"X X X X X 6 8 e I I I I I j 8 8 X X X X 8 8 8 8 x I I I K G 8 8 ; X X X & p p p p p p @ X X X X u 8 8 r K K I I K t 8 8 X X X X ",
"X X X X o 8 8 8 9 x I G e 8 8 8 O X X X 8 8 8 8 e _ I I c e 8 6 X X X X ; p p p p p p 2 X X X X 8 8 8 8 e x K ~ e 8 8 8 % X X X ",
"X X X X O 8 8 8 8 8 9 8 8 8 8 8 @ X X X 8 8 8 8 8 x I x e 8 8 O X X X X 2 p p p p p p p O X X O 8 8 8 8 8 8 8 8 8 8 8 8 & X X X ",
"X X X X O 8 8 8 8 8 8 8 8 8 8 8 @ X X X 6 8 8 8 8 8 8 8 8 8 + X X X X X ; p p p p p p p % X X % 8 8 8 8 8 8 8 8 8 8 8 8 & X X X ",
"X X X X X 7 8 8 8 8 8 8 8 8 8 8 o X X X - 8 8 8 8 8 8 8 8 % X X X X X X + p p p p p p p X X X o 8 8 8 8 8 8 8 8 8 8 8 8 O X X X ",
"X X X X X + 8 8 8 8 8 8 8 8 8 ; X X X X + 8 8 8 8 8 8 8 - X X X X X X X X p p p p p p 2 X X X X ; 8 8 8 8 8 8 8 8 8 8 7 X X X X ",
"X X X X X X - 7 8 8 8 8 8 8 ; o X X X X X + ; 8 8 7 ; % X X X X X X X X X % 2 p p p 1 o X X X X X & 7 8 8 8 8 8 8 8 ; X X X X X ",
"X X X X X X X X X % # % % X X X X X X X X X X X X X X X X X X X X X X X X X X o O X X X X X X X X X X o O # O O O X X X X X X X ",
"X X X X X X X X X X X X X X X X X X X X X X X X X X X X X X X X X X X X X X X X X X X X X X X X X X X X X X X X X X X X X X X X ",
"X X X X X X X X X X X X X X X X X X X X X X X X X X X X X X . X X X X X X X X X X X X X X X X X X X X X X X X X X X X X X X X X ",
"X X X X X X X X < > , , > % o X X X X o 3 5 d h l z .. .X.X.X.X.$.X.X.X.....z z k s a 3 % X X X X X # : , q q > : o X X X X X X ",
"X X X X X X < y W W W W W W W w * l 5.p.p.p.a.a.a.p.p.p.p.p.p.p.p.p.p.p.p.p.p.p.a.a.a.a.p.e.X.* 0 T T R W W W W W T , X X X X X ",
"X X X X X < T W W W W W W W W W W e.p.p.p.p.a.a.a.a.p.p.p.p.p.p.p.p.p.p.p.p.p.p.a.a.a.a.p.a.a.! W W W W W W W W W W W q X X X X ",
"X X X X X J W W W W W W W W W W W @.p.p.p.a.a.a.p.p.p.p.p.p.p.p.p.p.p.p.p.p.p.p.a.a.a.a.p.p.<.T W W W W W W J W W W W W % X X X ",
"X X X X % W W W W W W W W W W W T T >.>.>.>.>.>.>.>.5.>.>.>.>.>.>.>.>.>.>.>.>.>.>.>.>.>.>.>.! W W W T W W W W W W W W W * X X X ",
"X X X X % R W W W W $.E W W W W W W W W T W W R W W W W W W W W W W W W W W W W T W W W W W W W W W W W W W ! E W W W W > X X X ",
"X X X X X J W W W 3.u.u.! W W W W W W W W W W T W W W W W W W W W W W W W W W W J W W W W W W W W W W W E q.u.u.! W W W < X X X ",
"X X X X X t W W W u.a.t.$.W W W W W W W W W R R W W W W W W W W W W W W W W W W W W W W T J J H W W W W o.y.y.y.o.J W T X X X X ",
"X X X X X & t t l o.X. .T y y y y y v y y y x x y v y y y y y y y v y y y y y v y y y y c y c x y y y y F  .o.o.T t t 0 X X X X ",
"X X X X X 2 i i u X X X & 8 8 8 8 8 8 8 8 8 8 8 8 8 8 8 8 8 8 8 q 8 8 8 8 8 8 8 8 8 8 8 8 8 8 8 8 8 8 8 1 X X X 1 i i i o X X X ",
"X X X X O i i i 2 X X X o 8 8 8 8 8 8 8 8 8 8 8 8 8 8 8 8 8 8 8 8 8 8 8 8 8 8 8 8 8 8 8 8 8 8 8 8 8 8 8 + X X X 1 i i i 1 X X X ",
"X X X X o 2 i i 1 X X X X ; 8 8 8 8 8 8 8 8 8 8 8 8 8 8 8 8 8 8 8 8 8 8 8 8 8 8 8 8 8 8 8 8 8 8 8 8 8 6 X X X X @ i i u O X X X ",
"X X X X X X O O X X X X X o ; 8 8 8 8 8 8 8 8 8 8 8 8 8 8 8 8 8 8 8 8 8 8 8 8 8 8 8 8 8 8 8 8 8 8 8 7 O X X X X X o < o X X X X ",
"X X X X X X X X X X X X X X X O + ; ; ; ; ; ; ; ; - - + - - + - + - + - - - - - + 6 ; ; ; ; ; ; + + X X X X X X X X X X X X X X ",
"X X X X X X X X X X X X X X X X X X X X X X X X X X X o X X X X X X X X   X X X X X X X X X X X o X X X X X X X X X X X X X X X ",
"X X X X X X X X X X X X X X X X X X X X X X X X X X X X X X X X X X X X X X X X X X X X X X X X X X X X X X X X X X X X X X X X ",
"X X X X X X X X X X X X X X X X X X X X X X X X X X X X X X X X X X X X X X X X X X X X X X X X X X X X X X X X X X X X X X X X "
};
