/* XPM */
static char *_92fde1d83214be690cbd109e7cad98f8XK74iYYFZ41EfX0[] = {
/* columns rows colors chars-per-pixel */
"64 64 215 2 ",
"   c black",
".  c #231D3A",
"X  c #382440",
"o  c #393C56",
"O  c #483149",
"+  c #6F384F",
"@  c #753B55",
"#  c #7B3D54",
"$  c #7F5F4E",
"%  c #7D4455",
"&  c #79465D",
"*  c #4E596E",
"=  c #744661",
"-  c #744C65",
";  c #7B4D63",
":  c #6E566C",
">  c #79566C",
",  c #54677A",
"<  c #75657C",
"1  c #A7343C",
"2  c #B23134",
"3  c #B63838",
"4  c #C73B33",
"5  c #B4443D",
"6  c #C94C3C",
"7  c #D84D36",
"8  c #CD523B",
"9  c #D5523B",
"0  c #DB563B",
"q  c #88374B",
"w  c #843A4D",
"e  c #8C3C4C",
"r  c #973744",
"t  c #943D4A",
"y  c #833F52",
"u  c #883E50",
"i  c #AA3C41",
"p  c #8E404D",
"a  c #93434E",
"s  c #94474D",
"d  c #9B454C",
"f  c #9D4A4E",
"g  c #88574E",
"h  c #935C4C",
"j  c #854253",
"k  c #8B4251",
"l  c #834A55",
"z  c #8A4A55",
"x  c #854B59",
"c  c #8C4C59",
"v  c #914450",
"b  c #944B53",
"n  c #9B4D53",
"m  c #904D5A",
"M  c #885850",
"N  c #87505E",
"B  c #8B525C",
"V  c #935556",
"C  c #9C5256",
"Z  c #9D5D59",
"A  c #AD4644",
"S  c #A2464A",
"D  c #AB4748",
"F  c #A5494C",
"G  c #AA4B4B",
"H  c #B54A45",
"J  c #BB4B43",
"K  c #B24E49",
"L  c #A45649",
"P  c #AE534D",
"I  c #B4544C",
"U  c #BB5448",
"Y  c #B9564C",
"T  c #BB5C4C",
"R  c #A44D50",
"E  c #A35353",
"W  c #AA5552",
"Q  c #AC5A53",
"!  c #B45A52",
"~  c #BC5D51",
"^  c #8A654D",
"/  c #94624D",
"(  c #9B674A",
")  c #897247",
"_  c #947949",
"`  c #9D6557",
"'  c #A46647",
"]  c #A36D4D",
"[  c #BC614B",
"{  c #AF774C",
"}  c #A2625A",
"|  c #A86759",
" . c #A96B5B",
".. c #BD6355",
"X. c #B76855",
"o. c #B36D59",
"O. c #B87A5E",
"+. c #875464",
"@. c #895463",
"#. c #8C5966",
"$. c #8F5F6A",
"%. c #915A64",
"&. c #8F606C",
"*. c #9C6A6A",
"=. c #836777",
"-. c #A56762",
";. c #AC7769",
":. c #B5776B",
">. c #A67974",
",. c #C34A41",
"<. c #CB5442",
"1. c #C65949",
"2. c #D55942",
"3. c #C5644D",
"4. c #CA634E",
"5. c #CB6A4D",
"6. c #DD6144",
"7. c #D26E4F",
"8. c #C76752",
"9. c #CC6A51",
"0. c #D26B52",
"q. c #C77857",
"w. c #DB7554",
"e. c #E86A47",
"r. c #F1764D",
"t. c #E67A55",
"y. c #688A32",
"u. c #75A334",
"i. c #7BA635",
"p. c #75B34B",
"a. c #8A9A3E",
"s. c #AE953E",
"d. c #87AB36",
"f. c #8BAD36",
"g. c #98A93A",
"h. c #95B137",
"j. c #9CB438",
"k. c #A6A73F",
"l. c #A6AC3D",
"z. c #A9AC3D",
"x. c #BAA33A",
"c. c #A3B43B",
"v. c #AAB43D",
"b. c #A5B839",
"n. c #ADBC3A",
"m. c #998946",
"M. c #899240",
"N. c #9D9445",
"B. c #9F9D41",
"V. c #AC8743",
"C. c #A09C41",
"Z. c #A4A641",
"A. c #A6AB41",
"S. c #ACB443",
"D. c #BD8465",
"F. c #B88A79",
"G. c #C7845D",
"H. c #C8855E",
"J. c #C48961",
"K. c #CA8E62",
"L. c #CD9264",
"P. c #CD956B",
"I. c #CF986D",
"U. c #D09768",
"Y. c #D19A6C",
"T. c #C58C70",
"R. c #CA9977",
"E. c #D39E71",
"W. c #D39B78",
"Q. c #E5996E",
"!. c #D5A375",
"~. c #D6A579",
"^. c #D9A77A",
"/. c #D9AB7D",
"(. c #6F6D88",
"). c #6F718B",
"_. c #74758B",
"`. c #6D7791",
"'. c #6E7A94",
"]. c #6C7E99",
"[. c #747C92",
"{. c #787F93",
"}. c #887682",
"|. c #6E819B",
" X c #7A8395",
".X c #75899D",
"XX c #748EA3",
"oX c #7795A7",
"OX c #7A9CAC",
"+X c #7CA0AF",
"@X c #7EA5B2",
"#X c #BD9381",
"$X c #80A4B0",
"%X c #80AAB5",
"&X c #C69D84",
"*X c #CDA282",
"=X c #D5AA82",
"-X c #DAAE81",
";X c #D1AC8D",
":X c #D8A988",
">X c #DCB184",
",X c #DDB48A",
"<X c #DFB98D",
"1X c #D3AF90",
"2X c #DAB592",
"3X c #DEBB93",
"4X c #E3AB83",
"5X c #ECB185",
"6X c #E5B589",
"7X c #E1BA8D",
"8X c #E2BE93",
"9X c #E5C295",
"0X c #E6C599",
"qX c #E7C89C",
"wX c #E9CA9D",
/* pixels */
"u.i.n.n.n.n.n.n.n.n.n.n.n.n.n.n.n.n.n.n.n.n.n.n.n.n.n.n.n.n.n.n.n.n.n.n.n.n.n.n.n.n.n.n.n.n.n.n.n.n.n.n.n.n.n.n.n.n.n.n.n.n.i.u.",
"i.i.n.n.n.n.n.n.n.n.n.n.n.n.n.n.n.n.n.n.n.n.n.n.n.n.n.n.n.n.n.n.n.n.n.n.n.n.n.n.n.n.n.n.n.n.n.n.n.n.n.n.n.n.n.n.n.n.n.n.n.n.i.i.",
"b.n.n.n.n.n.n.n.n.n.n.n.n.n.n.n.n.n.n.n.n.n.n.n.n.n.n.n.n.n.n.n.n.n.n.n.n.n.n.n.n.n.n.n.n.n.n.n.n.n.n.n.n.n.n.n.n.n.n.n.n.n.n.n.",
"n.n.n.n.n.n.n.n.n.n.n.n.n.n.n.n.n.n.n.n.n.n.n.n.n.n.n.n.n.n.n.n.n.n.n.n.n.n.n.n.n.n.n.n.n.n.n.n.n.n.n.n.n.n.n.n.n.n.n.n.n.n.n.n.",
"n.n.n.n.n.n.n.n.n.n.n.n.n.n.n.n.n.n.n.n.n.n.n.n.n.n.n.n.n.n.n.n.n.n.n.n.n.n.n.n.n.n.n.n.n.n.n.n.n.n.n.n.n.n.n.n.n.n.n.n.n.n.n.n.",
"n.n.n.n.n.n.n.n.n.n.n.n.n.n.n.n.n.n.n.n.n.n.n.n.n.n.n.n.n.n.n.n.n.n.n.n.n.n.n.n.n.n.n.n.n.n.n.n.n.n.n.n.n.n.n.n.n.n.n.n.n.n.n.n.",
"n.n.n.n.n.n.b.j.b.n.n.n.n.n.n.n.n.n.n.n.n.n.n.n.n.n.n.n.n.n.n.n.n.n.n.n.n.n.n.n.n.j.c.n.n.n.n.n.n.n.n.n.n.n.n.n.n.n.n.n.n.n.n.n.",
"n.n.n.n.n.n.h.i.h.n.n.n.n.n.n.n.n.n.n.n.n.n.n.n.n.n.n.n.n.n.n.n.n.n.n.n.n.n.n.n.j.p.p.n.n.n.n.n.n.n.n.n.n.n.n.n.n.n.n.n.n.n.n.n.",
"n.n.n.n.n.n.h.i.f.n.n.n.n.n.n.n.n.n.n.n.n.n.n.n.n.n.n.n.n.n.n.n.n.n.n.n.n.n.n.n.c.p.p.n.n.n.n.n.n.n.n.n.n.n.n.n.n.n.n.n.n.n.n.n.",
"n.n.n.n.n.n.n.b.h.u.d.n.n.n.n.n.n.n.n.n.n.n.n.v.l.l.z.z.z.z.z.z.v.x.z.v.z.z.z.z.z.l.h.i.d.b.n.n.n.n.n.n.n.n.n.n.n.n.n.n.n.n.n.n.",
"n.n.n.n.n.n.n.n.h.u.f.n.n.n.n.n.n.n.n.n.n.n.z.( # @ @ @ # r S d a d d d D v D v t h g.i.d.b.n.n.n.n.n.n.n.n.n.n.n.n.n.n.n.n.n.n.",
"n.n.n.n.n.n.n.n.n.n.n.n.n.n.n.n.n.n.n.n.n.v./ r r @ + # r 4 6.2.1.f 6 8 J J <.D D <.( Z.n.n.n.n.n.n.n.n.n.n.n.n.n.n.n.n.n.n.n.n.",
"n.n.n.n.n.n.n.n.n.n.n.n.n.n.n.n.n.n.n.n.n.v.l w @ % % % @ d b n n F k n R v v S a b e Z.n.n.n.n.n.n.n.n.n.n.n.n.n.n.n.n.n.n.n.n.",
"n.n.n.n.n.n.n.n.n.n.n.n.n.n.n.n.n.n.n.n.n._ % @ z O.O.D.l @ @ # y u # @ k # @ u y a # _ v.n.n.n.n.n.n.n.n.n.n.n.n.n.n.n.n.n.n.n.",
"n.n.n.n.n.n.n.n.n.n.n.n.n.n.n.n.n.n.n.c.g 2 y @ | K.L.L.:.@ q 3 7 0 <.F J 7 i A 9 A w 8 { z.n.n.n.n.n.n.n.n.n.n.n.n.n.n.n.n.n.n.",
"n.n.n.n.n.n.n.n.n.n.n.n.n.n.n.n.n.n.n.$ r r @ M E.9XwXwX9X>.@ a ~ ..8...S ! ! P ! K G S P _ n.n.n.n.n.n.n.h.d.j.n.n.n.n.n.n.n.n.",
"n.n.n.n.n.n.n.n.n.n.n.n.n.n.n.n.n.n.b.a.+ + % ;.7X0X9X:X,X1X% + @ @ @ k d @ u u @ p p # % m.n.n.n.n.n.n.n.d.i.h.b.n.n.n.n.n.n.n.",
"n.n.n.n.n.n.n.n.n.n.n.n.n.n.n.n.n.k._ q # # V K.L.,X<XE.E.9XF.% @ q d S t q t t t j S F a s V.n.n.n.n.b.j.f.d.j.n.n.n.n.n.n.n.n.",
"n.n.n.n.n.n.n.n.n.n.n.n.n.n.n.n.l.) r 1 @ & D.!.!.7XqX0X0X,XD.B @ 2 2.2.2.,.H <.6 F 8 <.d A U { b.n.n.h.i.j.b.n.n.n.n.n.n.n.n.n.",
"n.n.n.n.n.n.n.n.n.n.n.n.n.n.n.n.c.) w # @ ` >X3X9XwXwXwXqX~.L.O.% q b C C n R b n R k b S p k ( v.n.n.f.i.j.n.n.n.n.n.n.n.n.n.n.",
"n.n.n.n.n.n.n.n.n.n.n.n.n.n.n.z.m.M @ @ % J.!.8XwXwXwXwXwX,XP.P.%.@ @ @ # y y # y y # # u u y M m.n.n.n.n.n.n.n.n.n.n.n.n.n.n.n.",
"n.n.n.n.n.n.n.n.n.n.n.n.n.n.n.s.3 r @ @ O.K.Y.7XwXwXwXwXwX0X9X9X*XB @ r 4 2.2.J d 6 6 d J 7 d A 8 V.n.n.n.n.n.n.n.n.n.n.n.n.n.n.",
"n.n.n.n.n.n.n.n.n.n.n.n.n.n.z.w r q @ x 9XwXwXwXwXwX1X=X9XwXwXwXwX;.# @ 4 9.0.0.~ G 3.~ P ~ K F ! s B.n.n.n.n.n.n.n.n.n.n.n.n.n.",
"n.n.n.n.n.n.n.n.n.n.n.n.n.n.k.^ @ @ @ R.qXwXqX,X:.j # p @ @.;X0XwX9XN @ @ @ @ # e y @ k y # t y # M l.n.n.n.n.n.n.n.n.n.n.n.n.n.",
"n.n.n.n.n.n.n.n.n.n.n.n.n.C.t # @ @ *.7XwXqX:X-.@ @ e P @ @ N &X0XwX#X@ @ # r d S a u v t u e S A % L s.n.n.n.n.n.n.n.n.n.n.n.n.",
"n.n.n.n.n.n.n.n.n.n.n.n.N.e 2 # @ l R.9XwX0X:.u @ @ u 8.@ @ @ #.;XwXqX$.@ u 3 0 e.6.1.K <.1.D 2.5 p 6 T C.n.n.n.n.n.n.n.n.n.n.n.",
"n.n.n.n.n.n.n.n.n.n.n.n.N.q w @ @ ;.^.7XqX8XR # @ @ y 3.@ @ @ @ #XqXwX;X@ @ u n C E E S a R n b f f k V N.n.n.n.n.n.n.n.n.n.n.n.",
"n.n.n.n.n.n.n.n.n.n.n.Z.^ @ @ @ #.;X8X^.:X8XR y n W X.G.o.Q Q b #XqXwXqX>.@ @ # # y y y # y y @ j w y s / C.n.n.n.n.n.n.n.n.n.n.",
"n.n.n.n.n.n.n.n.n.n.m.5 1 + @ % F.0XwX9XE.9XR # y k n 8.b l % # F.0XwXwX3X%.@ q 2 7 0 7 6 3 6 6 d 7 9 d J 0 x.n.n.n.n.n.n.n.n.n.",
"n.n.n.n.n.n.n.n.n.S./ 1 q @ @ M !.7XwXwXwX8XS # @ @ j T @ @ @ @ #X8XU.L.-X#X@ @ r 3.1.~ Y P Y 0.I G 4.H G P ( A.n.n.n.n.n.n.n.n.",
"n.n.n.n.n.n.n.n.n.z._ % @ @ % D.L.!.9XwXwX8XR y # @ j ! # # @ @ &X0X-X^.0X2X*.@ @ @ @ @ y e w # d @ # s y # m.v.n.n.n.n.n.n.n.n.",
"n.n.n.n.n.n.n.n.s.' w p # @ % L.!.7XwXwXwX6X8.Q Q Q W Q Q Q Q Q :.&X0XqX0X1XF.N @ @ r r S S t e d d y d D d t ' z.n.n.n.n.n.n.n.",
"n.n.n.n.n.n.n.n.h 3 r @ @ @ % Y.6X>X>X>X0XQ.Q Q X.! ! ......X...k E 9XwX9X^.~.*.# # r 4 6.6.2.U <.6.1.Y 2.G D <.] S.n.n.n.n.n.n.",
"n.n.n.n.n.n.n.n.g q # @ @ % % Y.-XL.L.U.^.4X;. .}  . . .| | |  . .T.9X^.^.!.!.&X@.@ @ t C R E R t C W a b S v v V v.n.n.n.n.n.n.",
"n.n.n.n.n.n.n.n.C.^ @ @ # @ % U.>X,X:X&X*X0X7X6X,X>X>X-X-X-X/./.>X9XwXY.L.L.L.-XF.% u @ @ @ @ # @ # y # # # # # _ n.n.n.n.n.n.n.",
"n.n.n.n.n.n.n.n.l.M @ k a @ % L.E.<X!.P.P.P.W.8XwXwXwXwXwX8X!.E.7XwXwX^.I.=XP.=X!.c D @ r 3 J i i G J d i J F y 8 ^ n.n.n.n.n.n.",
"n.n.n.n.n.n.n.n.N.@ @ d a @ % L.J.L.R.*X&XW./.5X5X5X5X5X5XQ.Q.6X5X^.&X0X0X0X8X!.L.x D @ t 7 r.r.e.1.1.r.4.4.e.J a e.L S.n.n.n.n.",
"n.n.n.n.n.n.n.n.@ @ # z b b b C E C Z E z w.t.4.T T T T Y Y ..7.w.T # E s s d v v v k k u e # # y e d y t t y v a % ^ S.n.n.n.n.",
"n.n.n.n.n.n.n.n.% % k E I Y Y 4.0.9.8...n ~ Y d G I I G D D I ~ 1.W y 0.T Y Y Y ! Y G S d y = - - %.- ; +.- y y @ ^ v.n.n.n.n.n.",
"n.n.n.n.n.n.n.b.m._ g a v F S d d a @ @ @ F P b R I Y P G D G n V f @ G F F d F S S S u d m < `.'.'.`.`.'.).- @ @ B.n.n.n.n.n.n.",
"n.n.n.n.n.n.n.n.n.Z.M j j j k o.o. . . . .X.X.[ I D D G G D G X.X.n # Q o.o.o.X.X.z j j y ; ).].].].].].].'.> # # S.n.n.n.n.n.n.",
"n.n.n.n.n.n.n.n.n.k.^ f f # x K.K.^.>XY.U.D.z z j l y y j y k z z j N G.U.!.E.L.L.z P L # = (.].].].].oX].'.@.u j S.n.n.n.n.n.n.",
"n.n.n.n.n.n.n.n.n.Z.] ..3.e z K.E.2X0X0X9X!.H.J.J.J.J.J.J.J.J.J.J.J.H.E.9X9X9X!.L.z 5.[ k = (.XX+X].OX%XOX'.+.y k Z.n.n.n.n.n.n.",
"n.n.n.n.n.n.n.n.n.A.] 3.I S l L.W.=X1X0XwXwXwXwX9X/.!.^.-XqXwXwXwXwXqXqXwX9X,X/.P.z 5.T d & [.@X%X%X%X%X%XoX#.S u C.n.n.n.n.n.n.",
"n.n.n.n.n.n.n.n.n.Z.] [ P F % P.8XwXwXwXwXwXwXwXwXwXwXwXwXwXwXwXwXwXwXwXwX9X!.Y.U.z 5.P G m  XOXOXXX%X+XXX[.@.G k C.n.n.n.n.n.n.",
"n.n.n.n.n.n.n.n.n.Z.] 8.I G % I.3XqX9X9XwXwXwXwXwXwXwXwXwXwXwXwXwXwXwXwXwXwXqX9X9XB 5.G.G m ).XX+X%XOXXXXX[.#.S k C.n.n.n.n.n.n.",
"n.n.n.n.n.n.n.n.n.Z.] 4.3.S % I.3XwX-X,XwXwXwXwXwXwXwXwXwXwXwXwXwXwXwXwXwX0XwXwXwXB 5.H.G m (.OX$X* : * $X$X$.G k B.n.n.n.n.n.n.",
"n.n.n.n.n.n.n.n.n.Z.] 5.0.G % P.-X/.~.9XwX0X                        9XwXwX9X,XqXwXB 5.q.G m {.@X, . @ . < OX&.S k B.n.n.n.n.n.n.",
"n.n.n.n.n.n.n.n.n.z.] 9.0.G z K.!.9X9XwXwX                            wXwX>X7XwXwXB 5.q.G m  XoXo . # . : .X&.S k C.n.n.n.n.n.n.",
"n.n.n.n.n.n.n.n.n.Z.] 9.0.G b L./.wXwXwXwX                            ^.U./.wXwXwXN 5.H.G m (.].o . t X - ).#.G p C.n.n.n.n.n.n.",
"n.n.n.n.n.n.n.n.c.M.] 9.0.G b P.9XwXwXwXwX                            >XwXwXwXwXwXN 5.H.G c _.@Xo + d e ; [.#.G k C.n.n.n.n.n.n.",
"n.n.n.n.n.n.n.n.h.u./ 4.0.G b I.9XwXwXwXwX                            wXwXwXwXwXqXN 4.G.D m _.+Xo . w X -  X$.S v C.n.n.n.n.n.n.",
"n.n.n.n.n.n.n.n.h.a.h I 4.G b I.9X9XwXwXwX                            wXwXwX0X7X9X+.[ G.D m (.OXo . + X &  X&.G v C.n.n.n.n.n.n.",
"n.n.n.n.n.n.n.n.n.Z./ G T D b L.!.!.7XqXwX                            wXwXwX9X/.^.x T G.G m {.$XO O + O N  X&.F v C.n.n.n.n.n.n.",
"n.n.n.n.n.n.n.n.n.Z./ G Y G b K.U.U.>XwXwX                            wXwXwXwX9XY.l 1.q.D m  X{.= f f p f }.&.F a C.n.n.n.n.n.n.",
"n.n.n.n.n.n.n.n.n.Z./ G Y D b I./.E.!.^.0X                            wX/.!.!.7X<Xx 3.3.G m {.> s F p z p }.&.F s C.n.n.n.n.n.n.",
"b.n.n.n.n.n.n.n.n.Z./ T T G b I./.U.L.L.9X                            >XP.L.L.L.7X@.3.3.d &  XXX[.'.'.'.'.XX$.G v B.n.n.n.n.n.n.",
"i.i.n.n.n.n.n.n.n.Z./ [ Y G z L.!.6X9X<X7X                            wX/.^./.9X0XN 3.3.d &  X%X%XXX%X%X%X@X&.S a C.n.n.n.n.i.u.",
"u.i.n.n.n.n.n.n.n.Z./ ~ T G x H.L.L.>XY.L.                            !.U./.9X^.L.l 3.3.d =  X@XOXoX%X%XXX].+.k v C.n.n.n.n.i.u.",
"u.i.b.n.n.n.n.n.n.A./ T T G % K.Y.^.7X/.L.                            U.E.!.6X/.L.z 3.5.d & _.oXoX%X%XOXXX|.#.y a C.n.n.n.n.i.u.",
"u.i.n.n.n.n.n.n.n.Z./ [ T F l H.Y.7X8X/.L.                            Y./.!./.!.P.z 3.3.d = (.XXXX%X%XOX@XXX#.y a B.n.n.n.b.i.u.",
"u.i.b.n.n.n.n.n.n.Z./ T U S @ Z ` -.-.} }                             Z } ` E Z Z % 8.3.F u ; > > =.=.=.=.> x y a B.n.n.n.n.i.u.",
"u.i.S.n.n.n.n.n.n.Z./ T T S # F P G G P G                             G P P P E G # 9.4.G d R R P R R G G F d y d B.n.n.n.b.i.u.",
"y.y.n.n.n.n.n.n.n.Z./ T T F # j k v v a v                             p k k k p j # 5.4.D v j e u v k v k k v y a Z.n.n.n.b.y.y."
};
