/* XPM */
static char *_e5660a7c4c34f18bee8eec033d0fef5sJgvq0kgpHMZVMAc[] = {
/* columns rows colors chars-per-pixel */
"64 64 30 1 ",
"  c #60852E",
". c #688B30",
"X c #73A134",
"o c #75A334",
"O c #77A434",
"+ c #79A534",
"@ c #7FA735",
"# c #87AB36",
"$ c #88AB36",
"% c #89AC36",
"& c #8DAE37",
"* c #8FAF37",
"= c #90AF37",
"- c #93B037",
"; c #94B137",
": c #95B138",
"> c #99B338",
", c #9AB338",
"< c #9BB438",
"1 c #9CB438",
"2 c #9FB638",
"3 c #9FB639",
"4 c #A0B639",
"5 c #A1B639",
"6 c #A3B839",
"7 c #A5B839",
"8 c #A5B939",
"9 c #A9BA3A",
"0 c #ABBB3A",
"q c #ADBC3A",
/* pixels */
"o+0qqqqqqqqqqqqqqqqqqqqqqqqqqqqqqqqqqqqqqqqqqqqqqqqqqqqqqqqqq0+O",
"+@0qqqqqqqqqqqqqqqqqqqqqqqqqqqqqqqqqqqqqqqqqqqqqqqqqqqqqqqqqq0@+",
"00qqqqqqqqqqqqqqqqqqqqqqqqqqqqqqqqqqqqqqqqqqqqqqqqqqqqqqqqqqqq08",
"0qqqqqqqqqqqqqqqqqqqqqqqqqqqqqqqqqqqqqqqqqqqqqqqqqqqqqqqqqqqqqqq",
"0qqqqqqqqqqqqqqqqqqqqqqqqqqqqqqqqqqqqqqqqqqqqqqqqqqqqqqqqqqqqqqq",
"qqqqqq0qqqqqqqqqqqqqqqqqqqqqqqqqqqqqqqqqqq00qqqqqqqqqqqqqqqqqqqq",
"qqqqq0836qqqqqqqqqqqqqqqqqqqqqqqqqqqqqqq0,5qqqqqqqqqqqqqqqqqqqqq",
"qqqqq0:+*qqqqqqqqqqqqqqqqqqqqqqqqqqqqqqq5+%qqqqqqqqqqqqqqqqqqqqq",
"qqqqq0-@*00qqqqqqqqqqqqqqqqqqqqqqqqqqqqq3O%0000qqqqqqqqqqqqqqqqq",
"qqqqqq08-+%qqqqqqqqqqqqqqqqqqqqqqqqqqqqqq0>O#8qqqqqqqqqqqqqqqqqq",
"qqqqqqq0:O%qqqqqqqqqqqqqqqqqqqqqqqqqqqqqq0<+%8qqqqqqqqqqqqqqqqqq",
"qqqqqqqqq00qqqqqqqqqqqqqqqqqqqqqqqqqqqqqq0000qqqqqqqqqqqqqqqqqqq",
"qqqqqqqqqqqqqqqqqqqqqqqqqqqqqqqqqqqqqqqqqqqqqqqqqqqqqqqqqqqqqqqq",
"qqqqqqqqqqqqqqqqqqqqqqqqqqqqqqqqqqqqqqqqqqqqqqqqqqqqqqqqqqqqqqqq",
"qqqqqqqqqqqqqqqqqqqq00qqqqqqqqqqqqqqqqqqqqqqqqqqqqqqq000qqqqqqqq",
"qqqqqqqqqqqqqqqqqqq:#5qqqqqqqqqqqqqqqqqqqqqqqqqqqqqq0=#30qqqqqqq",
"qqqqqqqqqqqqqqqqq00%+>qqqqqqqqqqqqqqqqqqqqqqqqqqqqq0q$O;00qqqqqq",
"qqqqqqqqqqqqqqqq063*#3qqqqqqqqqqqqqqqqqqqqqqqqqqqq08<%#<0qqqqqqq",
"qqqqqqqqqqqqqqqq8%+:0qqqqqqqqqqqqqqqqqqqqqqqqqqqqqq*X,0q0qqqqqqq",
"qqqqqqqqqqqqqqqq8*@>0qqqqqqqqqqqqqqqqqqqqqqqqqqqqq0=#50qqqqqqqqq",
"qqqqqqqqqqqqqqqq000qqqqqqqqqqqqqqqqqqqqqqqqqqqqqqqq000qqqqqqqqqq",
"qqqqqqqqqqqqqqqqqq0qqqqqqqqqqqqqqqqqqqqqqqqqqqqqqqqqq0qqqqqqqqqq",
"qqqqqqqqqqqqqqqqqqqqqqqqqqqqqqqqqqqqqqqqqqqqqqqqqqqqqqqqqqqqqqqq",
"qqqqqqqqqqqqqqqqqqqqqqqqqqqqqqqqqqqqqqqqqqqqqqqqqqqqqqqqqqqqqqqq",
"qqqqqqqqqqqqqqqqqqqqqqqqqqqqqqqqqqqqqqqqqqqqqqqqqqqqqqqqqqqqqqqq",
"qqqqqqqqqqqqqqqqqqqqqqqqqqqqqqqqqqqqqqqqqqqqqqqqqqqqqqqqqqqqqqqq",
"qqqqqqqqqqqqqqqqqqqqqqqqqqqqqqqqqqqqqqqqqqqqqqqqqqqqqqqqqqqqqqqq",
"qqqqqqqqqqqqqqqqqqqqqqqqqqqqqqqqqqqqqqqqqqqqqqqqqqqqqqqqqqqqqqqq",
"qqqqqqqqqqqqqqqqqqqqqqqqqqqqqqqqqqqqqqqqqqqqqqqqqqqqqqqqqqqqqqqq",
"qqqqqqqqqqqqqqqqqqqqqqqqqqqqqqqqqqqqqqqqqqqqqqqqqqqqqqqqqqqqqqqq",
"qqqqqqqqqqqqqqqqqqqqqqqqqqqqqqqqqqqqqqqqqqqqqqqqqqqqqqqqqqqqqqqq",
"qqqqqqqqqqqqqqqqqqqqqqqqqqqqqqqqqqqqqqqqqqqqqqqqqqqqqqqqqqqqqqqq",
"qqqqqqqqqqqqqqqqqqqqqqqqqqqqqqqqqqqqqqqqqqqqqqqqqqqqqqqqqqqqqqqq",
"qqqqqqqqqqqqqqqqqqqqqqqqqqqqqqqqqqqqqqqqqqqqqqqqqqqqqqqqqqqqqqqq",
"qqqqqqqqqqqqqqqqqqqqqqqqqqqqqqqqqqqqqqqqqqqqqqqqqqqqqqqqqqqqqqqq",
"qqqqqqqqqqqqqqqqqqqqqqqqqqqqqqqqqqqqqqqqqqqqqqqqqqqqqqqqqqqqqqqq",
"qqqqqqqqqqqqqqqqqqqqqqqqqqqqqqqqqqqqqqqqqqqqqqqqqqqqqqqqqqqqqqqq",
"qqqqqqqqqqqqqqqqqqqqqqqqqqqqqqqqqqqqqqqqqqqqqqqqqqqqqqqqqqqqqqqq",
"qqqqqqqqqqqqqqqqqqqqqqqqqqqqqqqqqqqqqqqqqqqqqqqqqqqqqqqqqqqqqqqq",
"qqqqqqqqqqqqqqqqqqqqqqqqqqqqqqqqqqqqqqqqqqqqqqqqqqqqqqqqqqqqqqqq",
"qqqqqqqqqqqqqqqqqqqqqq0qqqqqqqqqqqqqqqqqq000qqqqqqqqqqqqqqqqqqqq",
"qqqqqqqqqqqqqqqqqqqqq5,0qqqqqqqqqqqqqqqq025qqqqqqqqqqqqqqqqqqqqq",
"qqqqqqqqqqqqqqqqqqqqq%+5qqqqqqqqqqqqqqqq2+%q0qqqqqqqqqqqqqqqqqqq",
"qqqqqqqqqqqqqqqqqqqq0%+2qqqqqqqqqqqqqqqq3+$00qqqqqqqqqqqqqqqqqqq",
"qqqqqqqqqqqqqqqqqqq*O,00qqqqqqqqqqqqqqqq00,+#8qqqqqqqqqqqqqqqqqq",
"qqqqqqqqqqqqqqqqqqq%+<q0qqqqqqqqqqqqqqqqq0<O#8qqqqqqqqqqqqqqqqqq",
"qqqqqqqqqqqqqqqqqqq00qqqqqqqqqqqqqqqqqqqqqq00qqqqqqqqqqqqqqqqqqq",
"qqqqqqqqqqqqqqqqqqqq0qqqqqqqqqqqqqqqqqqqqqqq00qqqqqqqqqqqqqqqqqq",
"qqqqqqqqqqqqqqqqqqqqqqqqqqqqqqqqqqqqqqqqqqqqqqqqqqqqqqqqqqqqqqqq",
"qqqqqqqqq0qqqqqqqqqqqqqqqqqqqqqqqqqqqqqqqqqqqqqqqqqqqq00qqqqqqqq",
"qqqqqq005-<0qqqqqqqqqqqqqqqqqqqqqqqqqqqqqqqqqqqqqqqqq,*500qqqqqq",
"qqqqqqq0-+%0qqqqqqqqqqqqqqqqqqqqqqqqqqqqqqqqqqqqqqqq0$+;00qqqqqq",
"qqqqqqqq2#*<5qqqqqqqqqqqqqqqqqqqqqqqqqqqqqqqqqqqqq08,*#,qqqqqqqq",
"qqqqqqqq80,O*0qqqqqqqqqqqqqqqqqqqqqqqqqqqqqqqqqqqq0*+,0qqqqqqqqq",
"qqqqqqqq0q5+*qqqqqqqqqqqqqqqqqqqqqqqqqqqqqqqqqqqqqq*+,0qqqqqqqqq",
"qqqqqqqqqq800qqqqqqqqqqqqqqqqqqqqqqqqqqqqqqqqqqqqqq000qqqqqqqqqq",
"88qqqqqqqqqqqqqqqqqqqqqqqqqqqqqqqqqqqqqqqqqqqqqqqqqqqqqqqqqqq000",
"+$0qqqqqqqqqqqqqqqqqqqqqqqqqqqqqqqqqqqqqqqqqqqqqqqqqqqqqqqqqq0#+",
"o@0qqqqqqqqqqqqqqqqqqqqqqqqqqqqqqqqqqqqqqqqqqqqqqqqqqqqqqqqq00oX",
"o+0qqqqqqqqqqqqqqqqqqqqqqqqqqqqqqqqqqqqqqqqqqqqqqqqqqqqqqqqqq0+o",
"o@00qqqqqqqqqqqqqqqqqqqqqqqqqqqqqqqqqqqqqqqqqqqqqqqqqqqqqqqqq0++",
"o+00qqqqqqqqqqqqqqqqqqqqqqqqqqqqqqqqqqqqqqqqqqqqqqqqqqqqqqqqq0+o",
"X+00qqqqqqqqqqqqqqqqqqqqqqqqqqqqqqqqqqqqqqqqqqqqqqqqqqqqqqqq00+X",
" .0qqqqqqqqqqqqqqqqqqqqqqqqqqqqqqqqqqqqqqqqqqqqqqqqqqqqqqqq000. "
};
