/* XPM */
static char *f4b10ecdfa544523f5b511fab1a32105VCmMHmXBA0oWpGTx[] = {
/* columns rows colors chars-per-pixel */
"64 64 160 2 ",
"   c #172C17",
".  c #183912",
"X  c #1C391D",
"o  c #3C2E19",
"O  c #36391A",
"+  c #3D3B1B",
"@  c #190F20",
"#  c #1C1321",
"$  c #1F1921",
"%  c #210F20",
"&  c #231020",
"*  c #2A1121",
"=  c #221B22",
"-  c #281829",
";  c #331221",
":  c #3D1322",
">  c #252123",
",  c #292323",
"<  c #2F2924",
"1  c #372023",
"2  c #312C25",
"3  c #343025",
"4  c #322B38",
"5  c #4E261C",
"6  c #432B1A",
"7  c #49331C",
"8  c #431321",
"9  c #4B1422",
"0  c #471B24",
"q  c #521522",
"w  c #5A1622",
"e  c #5D1A23",
"r  c #5B1E26",
"t  c #631723",
"y  c #691723",
"u  c #661B23",
"i  c #6D1823",
"p  c #781E29",
"a  c #4A2828",
"s  c #562124",
"d  c #582925",
"f  c #6E2225",
"g  c #642C26",
"h  c #722425",
"j  c #742D26",
"k  c #6F3326",
"l  c #773928",
"z  c #7B3E29",
"x  c #623332",
"c  c #145A16",
"v  c #1A5418",
"b  c #1A6518",
"n  c #357514",
"m  c #387713",
"M  c #37522F",
"N  c #3D5636",
"B  c #3B5A31",
"V  c #396F2C",
"C  c #4D4D2A",
"Z  c #594929",
"A  c #54552A",
"S  c #57582B",
"D  c #5B5C2C",
"F  c #425A3B",
"G  c #7E4329",
"H  c #7E4C2A",
"J  c #5E602C",
"K  c #58772E",
"L  c #436B34",
"P  c #46623E",
"I  c #467738",
"U  c #61642D",
"Y  c #66692D",
"T  c #6B6F2E",
"R  c #76642D",
"E  c #627926",
"W  c #70732F",
"Q  c #767C30",
"!  c #382E42",
"~  c #48424C",
"^  c #604358",
"/  c #5D4A60",
"(  c #5D5860",
")  c #625B68",
"_  c #6D6970",
"`  c #7B777E",
"'  c #824E2A",
"]  c #84542C",
"[  c #875A2D",
"{  c #895E2D",
"}  c #8A632E",
"|  c #846A2E",
" . c #8E6E2F",
".. c #927631",
"X. c #947C31",
"o. c #B23D4A",
"O. c #AF404D",
"+. c #9E7375",
"@. c #569215",
"#. c #5A9614",
"$. c #689D12",
"%. c #6FA312",
"&. c #73A611",
"*. c #4C903E",
"=. c #60852E",
"-. c #688B30",
";. c #768731",
":. c #7D8431",
">. c #7D8932",
",. c #75A334",
"<. c #7AA534",
"1. c #549944",
"2. c #848532",
"3. c #838B33",
"4. c #978E34",
"5. c #8B9434",
"6. c #8F9935",
"7. c #9C9234",
"8. c #919C35",
"9. c #9E9935",
"0. c #A09C35",
"q. c #87AB36",
"w. c #8CAD37",
"e. c #95A036",
"r. c #90AF37",
"t. c #9DAD38",
"y. c #95B137",
"u. c #96B238",
"i. c #9CB438",
"p. c #A3A336",
"a. c #A2AF38",
"s. c #A3B539",
"d. c #AAB739",
"f. c #A5B939",
"g. c #A9BA3A",
"h. c #AABB3A",
"j. c #ABBB3A",
"k. c #ACBB3A",
"l. c #ACBC3A",
"z. c #ADBC3A",
"x. c #9F9444",
"c. c #ACB441",
"v. c #B1BC4A",
"b. c #B5BB55",
"n. c #B6BB5C",
"m. c #B9BC6A",
"M. c #8B7988",
"N. c #B29397",
"B. c #BFBA8F",
"V. c #B5A696",
"C. c #B7A5A8",
"Z. c #BCA6AA",
"A. c #BFB1B7",
"S. c #BEBBBE",
"D. c #CEC0AE",
"F. c #D4C1C2",
"G. c #D5CFD1",
"H. c #E0DECC",
"J. c #E2DBDB",
"K. c #EDEBEB",
/* pixels */
",.<.l.l.z.z.z.z.z.z.z.z.z.z.z.z.z.z.z.z.z.z.z.z.z.z.z.z.z.z.z.z.z.z.z.z.z.z.z.z.z.z.z.z.z.z.z.z.z.z.z.z.z.z.z.z.z.z.z.z.z.k.<.,.",
"<.<.l.l.z.z.z.z.z.z.z.z.z.z.z.z.z.z.z.z.z.z.z.z.z.z.z.z.z.z.z.z.z.z.z.z.z.z.z.z.z.z.z.z.z.z.z.z.z.z.z.z.z.z.z.z.z.z.z.z.z.l.<.<.",
"g.k.l.l.z.z.z.z.z.z.z.z.z.z.z.z.z.z.z.z.z.z.z.z.z.z.z.z.z.z.k.k.z.z.z.z.z.z.z.z.z.z.z.z.z.z.z.z.z.z.z.z.z.z.z.z.z.z.z.z.l.l.k.k.",
"l.l.l.l.z.z.z.l.z.z.z.z.z.z.z.z.z.z.z.z.z.z.z.z.z.z.z.z.z.z.l.d.z.z.z.z.z.z.z.z.z.z.z.l.z.z.z.z.z.z.z.z.z.z.z.z.z.z.z.z.l.l.l.k.",
"l.l.z.z.z.z.l.l.z.z.z.z.z.z.z.z.z.z.z.z.z.z.z.z.z.z.z.z.z.z.0...X.X.X.X.X.X.0.z.l.l.l.l.z.z.z.z.z.z.z.z.z.z.z.z.z.z.z.z.z.z.z.z.",
"l.l.z.z.z.z.l.l.l.z.z.z.z.z.z.z.z.z.z.z.z.z.z.z.z.z.z.z.k.0.' i i i i i i i ' 0.l.k.l.l.z.z.z.z.z.z.z.z.z.z.z.z.z.z.z.z.z.z.z.z.",
"l.z.z.z.z.l.g.i.g.k.z.z.z.z.z.z.z.z.z.z.z.z.z.z.z.z.z.k.9.z i i i i t w w w y ' 9.i.g.z.z.z.z.z.z.z.z.z.z.z.z.z.z.z.z.z.z.z.z.z.",
"l.z.z.z.z.k.y.<.r.k.z.z.z.z.z.z.z.z.z.z.z.z.z.z.z.z.z.0.z i i i i i 9 ; & @ : y H ;.q.z.z.z.l.l.z.z.z.z.z.z.z.z.z.z.z.z.z.z.z.z.",
"z.z.z.z.l.k.u.<.r.g.g.l.l.l.l.z.z.z.z.z.z.z.z.z.l.l...j i i i i i y i i w ; @ * w k Q l.k.k.k.l.z.z.z.z.z.z.z.z.z.z.z.z.z.z.z.z.",
"z.z.z.z.l.l.l.d.y.<.w.l.l.l.z.z.z.z.z.z.z.z.z.z.z.k.' q w i i i i w w i i e ; ; t i | <.q.f.k.l.z.z.z.z.z.z.z.z.z.z.z.z.z.z.z.z.",
"z.z.z.z.l.l.z.k.u.<.w.l.z.z.z.z.z.z.z.z.z.z.z.z.z.z.' : 9 i i i i : ; w u q * x  .z | <.q.g.z.z.z.z.z.z.z.z.z.z.z.z.z.z.z.z.z.z.",
"z.z.z.z.l.l.z.z.g.g.g.l.z.z.z.z.z.z.z.z.z.z.z.z.z.z.' : ; w i i q % @ 9 q * @ Y d.]  .g.k.l.z.z.z.z.z.z.z.z.z.z.z.z.z.z.z.z.z.z.",
"z.z.z.z.z.z.z.z.z.z.z.z.z.z.z.z.z.z.z.z.z.z.z.z.z.z.' : @ & * ; % @ @ 9 e ; @ 2 W ]  .l.l.l.z.z.z.z.z.z.l.l.l.z.z.z.z.z.z.z.z.z.",
"z.z.z.z.z.z.z.z.z.z.z.z.z.z.z.z.z.z.z.z.z.z.z.z.z.z.' : @ @ # @ @ @ @ 9 i t ; @ D ]  .l.l.l.z.z.z.z.z.z.l.l.l.l.z.z.z.z.z.z.z.z.",
"z.z.z.z.z.z.z.z.z.z.z.z.z.z.z.z.z.z.l.l.k.k.z.z.k.X.h : @ @ @ @ @ @ @ 9 i i 8 @ 2 R p.l.l.z.z.z.z.z.z.z.k.g.k.k.z.z.z.z.z.z.z.z.",
"z.z.z.z.z.z.z.z.z.z.z.z.z.z.z.z.z.z.l.u.q.i.z.z.l.[ 9 & ` S._ ` S.( @ * w y t ; @ Y l.l.l.z.z.z.z.z.z.z.k.y.w.i.l.z.z.z.z.z.z.z.",
"z.z.z.z.z.z.z.z.z.z.z.z.z.z.z.z.z.z.l.w.,.i.l.l.l.[ : @ ~ ( 4 ~ ( 4 @ @ & q i 8 @ 2 Q k.z.z.z.z.z.z.z.l.k.w.,.u.k.k.z.z.z.z.z.z.",
"z.z.z.z.z.z.z.z.z.z.z.z.z.z.z.z.k.g.i.r.w.i.l.l.l.[ : @ @ @ @ @ @ @ @ @ @ 9 i 8 @ & Y k.z.z.z.z.z.z.k.g.i.w.q.i.k.k.z.z.z.z.z.z.",
"z.z.z.z.z.z.z.z.z.z.z.z.z.z.z.z.g.w.,.u.l.l.l.l.c.{ : @ @ @ @ @ @ @ @ @ @ 9 i 8 @ @ Y k.z.z.z.z.l.l.l.r.,.u.k.k.l.l.l.z.z.z.z.z.",
"z.z.z.z.z.z.z.z.z.z.z.z.z.z.z.z.f.r.<.i.l.z.z.z...h e ; @ @ @ @ @ @ @ @ : t i 8 @ @ 2 8.z.z.z.z.l.l.k.r.q.i.l.z.l.l.l.l.z.z.z.z.",
"z.z.z.z.z.z.z.z.z.z.z.z.z.z.z.z.k.k.k.k.l.z.z.z.] i i : @ @ @ @ @ @ @ : t i 9 & @ @ # 3.z.z.z.z.l.l.z.k.k.k.z.z.z.z.z.z.z.z.z.z.",
"z.z.z.z.z.z.z.z.z.z.z.z.z.z.z.z.k.k.k.z.z.z.l.5.r i i t ; @ @ @ @ @ : t i i 8 @ : w : 2 5.z.z.z.z.z.z.z.l.k.z.z.z.z.z.z.z.z.z.z.",
"z.z.z.z.z.z.z.z.z.z.z.z.z.z.z.z.l.z.z.z.k.k.0.g * q i i w ; @ @ @ 8 t i i 9 & @ 0 i y r 7.z.l.l.z.z.z.z.l.z.z.z.z.z.z.z.z.z.z.z.",
"z.z.z.z.z.z.z.z.z.z.z.z.z.z.z.z.z.z.z.k.k.7.j y ; & w i i 8 @ @ : i i i 9 & @ : t i i i j 0.l.l.z.z.z.z.l.z.z.z.z.z.z.z.z.z.z.z.",
"z.z.z.z.z.z.z.z.z.z.z.z.z.z.z.z.z.z.z.z.8.x o.i y : % q i : 8 : 9 i i i : @ : i i i i i i j p.k.z.z.z.z.z.z.z.z.z.z.z.z.z.z.z.z.",
"z.z.z.z.z.z.z.z.z.z.z.z.z.z.z.z.z.z.k.8.- & 0 i i y ; % q 8 9 y 8 q y 8 & 8 i 8 9 i i i i i 0.k.z.z.z.z.z.z.z.z.z.z.z.z.z.z.z.z.",
"z.z.z.z.z.z.z.z.z.z.z.z.z.z.z.z.l.l.8.= @ @ @ : i i y t : @ @ q : 9 8 & 8 t i 8 # q i i i i j 0.z.z.z.z.z.z.z.z.z.z.z.z.z.z.z.z.",
"z.z.z.z.z.z.z.z.z.z.z.z.z.z.b.D.H.V.a o.t w q ; i i i i y t y 8 9 : 9 t i i i 8 & 9 i y i i h 0.z.z.z.z.z.z.z.z.z.z.z.z.z.z.z.z.",
"z.z.z.z.z.z.z.z.z.z.z.z.z.z.n.F.K.J.N.p y i y w 9 i i i i i i 8 9 i : q i i i t : & % & & t i 0.z.z.z.z.z.z.z.z.z.z.z.z.z.z.z.z.",
"z.z.z.z.z.z.z.z.z.z.z.z.z.z.n.F.K.K.G./ ^ i i t 9 i i i i i i y i i t i i i i 9 # @ % q t 8 y j 0.z.z.z.z.z.z.z.z.z.z.z.z.z.z.z.",
"z.z.z.z.z.z.z.z.z.z.z.z.z.z.z.m.F.A.) - - i i w 9 9 q i i i i i i i i i i y 8 & 8 t : & w y i h 0.z.z.z.z.z.z.z.z.z.z.z.z.z.z.z.",
"z.z.z.z.z.z.z.z.z.z.z.z.z.z.z.c.v.x.g @ * i i w 9 8 q i i i i i i i i i 8 & @ 8 y i t ; w i i i 0.z.z.z.z.z.z.z.z.z.z.z.z.z.z.z.",
"z.z.z.z.z.z.z.z.z.z.z.z.z.z.z.z.d.7.t @ * i i w 9 8 & q i i i i i i i 8 9 t t y i i i ; w i i i p.l.l.l.z.z.z.z.z.z.z.z.z.z.z.z.",
"z.z.z.z.z.z.z.z.z.z.z.z.z.z.z.z.l.4.t @ * i i y y y ; q 8 q i i i i 8 9 y i i i i i i y i i i ; 8.k.l.l.z.z.z.z.z.z.z.z.z.z.z.z.",
"z.z.z.z.z.z.z.z.z.z.z.z.z.z.z.z.k.7.t @ * i w : y 9 @ 9 8 9 i i i +.C.C.Z.M.a 0 i i i i i i * # 8.z.l.z.z.z.z.z.z.z.z.z.z.z.z.z.",
"z.z.z.z.z.z.z.z.z.z.z.z.z.z.z.z.k.7.w @ * i w ; i 8 @ q : 9 i i { d.v.v.B.M.! 8 i i i i i ; @ & 8.z.z.z.z.z.z.z.z.z.z.z.z.z.z.z.",
"z.z.z.z.z.z.z.z.z.z.z.z.z.z.z.z.k.7.t @ * i w ; i 8 9 : # 9 i o E k.l.k.K I N 0 i i i y ; @ @ $ 8.k.z.z.z.z.z.z.z.z.z.z.z.z.z.z.",
"z.z.z.z.z.z.z.z.z.z.z.z.z.z.z.z.l.7.t @ * w @ ; i y y : 9 i i o 7 ..a.a.C I N 8 i i i ; @ @ # 3.k.k.z.z.z.z.z.z.z.z.z.z.z.z.z.z.",
"z.z.z.z.z.z.z.z.z.z.z.z.z.z.z.z.k.7.u @ * w @ ; y 9 q : 9 8 &   6 h a = # I B 8 i i i * @ @ $ 6.k.z.z.z.z.z.z.z.z.z.z.z.z.z.z.z.",
"z.z.z.z.z.z.z.z.z.z.z.z.z.z.z.z.l.d.2.@ * w @ @ & @ q 8 9 : @ 8 6 5 : # L B # 9 i i 8 @ @ @ = 8.k.k.z.z.z.z.z.z.z.z.z.z.z.z.z.z.",
"z.z.z.z.z.z.z.z.z.z.z.z.z.z.z.z.l.l.7.w * w @ @ & 9 y y i : @ 9 y 6 . V M $ @ 9 i : @ @ # # 3.k.z.z.z.z.z.z.z.z.z.z.z.z.z.z.z.z.",
"z.z.z.z.z.z.z.z.z.z.z.z.z.z.z.z.l.l.7.y & w & ; t i i i y 8 & 9 i u O X > @ 8 i 8 # @ @ # # 8.k.z.z.z.z.z.z.z.z.z.z.z.z.z.z.z.z.",
"z.z.z.z.z.z.z.z.z.z.z.z.z.z.z.z.l.z.7.u 1 h w @ 9 y i i 8 9 8 9 f O c *.P > 9 y : @ @ @ @ = e.z.z.z.z.z.z.z.z.z.z.z.z.z.z.z.z.z.",
"z.z.z.z.z.z.z.z.z.z.z.z.z.z.z.z.l.z.7.j a.R w = @ 9 i y ; 9 : 9 + b b b 1.F 8 : @ @ @ @ # >.k.z.z.z.z.z.z.z.z.z.z.z.z.z.z.z.z.z.",
"z.z.z.z.z.z.z.z.z.z.z.z.z.z.z.l.l.l.X.j ;.j ' Q @ 9 i : @ 8 : 9 + #.%.m 1.P @ @ @ @ @ @ # >.z.z.z.z.z.z.z.z.z.z.z.z.z.z.z.z.z.z.",
"z.z.z.z.z.z.z.z.z.z.z.z.z.z.z.l.k.7.j l ,.t.d.:.= 9 i : % & @ 9 + #.&.m 1.P @ @ @ @ @ @ # >.z.l.z.z.z.z.z.z.z.z.z.z.z.z.z.z.z.z.",
"z.z.z.z.z.z.z.z.z.z.z.z.z.z.l.l.l.k.d.d.l.l.d.d.S 9 y : 9 : @ 9 + @.$.n 1.P @ @ $ $ @ @ # 3.l.l.z.z.z.z.z.z.z.z.z.z.z.z.z.z.z.z.",
"z.z.z.z.z.z.z.z.z.z.z.z.z.z.l.l.l.k.l.l.l.l.l.l.S 8 y : % @ @ 9 O c b b 1.N @ @ D A $ @ # 3.l.l.z.z.z.z.z.z.z.z.z.z.z.z.z.z.z.z.",
"z.z.z.z.z.z.z.z.z.z.z.z.z.z.z.z.z.z.z.z.z.z.z.z.A & 9 : 9 : @ 9 : X v 1.N @ @ @ U s.D # # 3.z.z.z.z.z.z.z.z.z.z.z.z.z.z.z.z.z.z.",
"z.z.z.z.z.z.z.z.l.k.l.l.z.z.z.z.z.z.z.z.z.z.z.z.D = q 8 q : @ 9 : 9 ; # # @ @ # U k.a.2 # 3.z.z.z.z.z.z.z.k.k.l.z.z.z.z.z.z.z.z.",
"z.z.z.z.z.z.l.k.s.r.u.l.z.z.z.z.z.z.z.z.z.z.z.z.d.D s y i 8 @ 9 8 9 : @ @ @ # = U k.a.2 # 3.l.l.z.z.z.z.z.i.r.i.k.l.l.z.z.z.z.z.",
"z.z.z.z.l.l.l.k.u.<.w.d.l.z.z.z.z.z.z.z.z.z.z.z.l.d.A 9 y 8 @ 9 8 9 : @ $ $ Y A U k.a.2 # 3.k.k.z.z.z.z.k.q.<.u.k.k.z.z.z.z.z.z.",
"z.z.z.z.z.z.z.l.i.q.y.y.d.l.l.l.z.z.z.z.z.z.z.z.l.l.A = q : @ 9 9 r : @ Y D W D T k.a.< , 5.k.k.z.z.z.d.i.w.q.i.k.z.z.z.z.z.z.z.",
"z.z.z.z.z.z.z.z.l.l.y.<.w.l.z.l.z.z.z.z.z.z.z.z.l.l.k.C 9 : @ 9 } ' : @ T k.k.d.k.k.a.2 3.k.k.k.z.z.z.w.<.i.l.l.l.z.z.z.z.z.z.z.",
"z.z.z.z.z.z.z.z.l.l.i.<.y.z.z.z.z.z.z.z.z.z.z.z.l.l.z.D = # @ 9 { G 0 $ T z.l.l.k.k.8.2 3.z.z.z.z.z.z.w.<.y.l.z.z.z.z.z.z.z.z.z.",
"z.z.z.z.z.z.z.z.l.l.k.g.l.z.z.z.z.z.z.z.z.z.z.z.l.l.z.k.A = = 8 u y  .C T z.z.k.k.d.A , 5.z.z.z.z.z.z.k.l.g.l.z.z.z.z.z.z.z.z.z.",
"g.l.z.z.z.z.z.z.l.z.z.z.z.z.z.z.z.z.z.z.z.z.z.z.z.z.z.z.d.k.D , d h { Z Q l.l.l.z.d.U 5.k.k.z.z.z.z.z.z.z.z.z.z.z.z.z.z.z.l.k.d.",
"<.<.k.l.z.z.z.z.z.z.z.z.z.z.z.z.z.z.z.z.z.z.z.z.z.z.z.z.k.z.l.k.g.[ h  .l.l.l.l.z.z.k.k.k.k.z.z.z.z.z.z.z.z.z.z.z.z.z.z.z.k.<.<.",
",.<.k.l.z.z.z.z.z.z.z.z.z.z.z.z.z.z.z.z.z.z.z.z.z.z.z.z.l.l.z.z.k.p.] X.z.z.l.z.z.z.z.z.k.z.z.z.z.z.z.z.z.z.z.z.z.z.z.z.l.l.<.,.",
",.<.z.z.z.z.z.z.z.k.z.z.z.z.z.z.z.z.z.z.z.z.z.z.z.z.z.z.z.z.z.z.l.{ ..l.z.z.z.z.z.z.z.z.l.l.z.z.z.z.z.z.z.z.z.z.z.z.z.z.l.l.<.,.",
",.<.k.l.z.z.z.z.z.z.z.z.z.z.z.z.z.z.z.z.z.z.z.z.z.z.z.z.z.z.z.z.z.z.z.z.z.z.z.z.z.z.z.z.z.z.z.z.z.z.z.z.z.z.z.z.z.z.z.z.l.g.<.,.",
",.<.l.l.z.z.z.z.z.z.z.z.z.z.z.z.z.z.z.z.z.z.z.z.z.z.z.z.z.z.z.z.z.z.z.z.z.z.z.z.z.z.z.z.z.z.z.z.z.z.z.z.z.z.z.z.z.z.z.z.l.l.<.,.",
",.<.g.l.z.z.z.z.z.z.z.z.z.z.z.z.z.z.z.z.z.z.z.z.z.z.z.z.z.z.z.z.z.z.z.z.z.z.z.z.z.z.z.z.z.z.z.z.z.z.z.z.z.z.z.z.z.z.l.z.l.g.<.,.",
"=.-.d.l.z.z.z.z.z.z.z.z.z.z.z.z.z.z.z.z.z.z.z.z.z.z.z.z.z.z.z.z.z.z.z.z.z.z.z.z.z.z.z.z.z.z.z.z.z.z.z.z.z.z.z.z.z.z.l.l.l.l.-.=."
};
