/* XPM */
static char *_9b5814edafc46f5e7dc3b0c0d00c5b34BqchIKnRyAgowsB[] = {
/* columns rows colors chars-per-pixel */
"64 64 181 2 ",
"   c #2C151F",
".  c #193914",
"X  c #273915",
"o  c #363519",
"O  c #190F20",
"+  c #1B1220",
"@  c #1C1922",
"#  c #200F20",
"$  c #221121",
"%  c #2C1222",
"&  c #211A22",
"*  c #2D1B21",
"=  c #231C2A",
"-  c #341121",
";  c #3C1221",
":  c #1F2123",
">  c #282223",
",  c #262428",
"<  c #2B3B27",
"1  c #383426",
"2  c #3D3A26",
"3  c #2D2532",
"4  c #332837",
"5  c #58241F",
"6  c #441321",
"7  c #4B1422",
"8  c #441822",
"9  c #4C1A23",
"0  c #551522",
"q  c #5B1622",
"w  c #531B23",
"e  c #5C1923",
"r  c #551A28",
"t  c #661723",
"y  c #681723",
"u  c #661B22",
"i  c #6C1823",
"p  c #711B25",
"a  c #771E29",
"s  c #432532",
"d  c #493539",
"f  c #6D2125",
"g  c #662128",
"h  c #712224",
"j  c #75262A",
"k  c #763727",
"l  c #7A3C28",
"z  c #692B35",
"x  c #732A32",
"c  c #752E3D",
"v  c #792F3E",
"b  c #663633",
"n  c #184518",
"m  c #185D19",
"M  c #2C4619",
"N  c #2E4B18",
"B  c #1C6516",
"V  c #1F6A1E",
"C  c #296E1A",
"Z  c #2F7017",
"A  c #2F432A",
"S  c #354531",
"D  c #384C34",
"F  c #424027",
"G  c #4C4C29",
"H  c #514F2A",
"J  c #53532A",
"K  c #5A562B",
"L  c #774329",
"P  c #62562E",
"I  c #7A562B",
"U  c #73662C",
"Y  c #6D722F",
"T  c #72732F",
"R  c #7D712E",
"E  c #747730",
"W  c #797D31",
"Q  c #433749",
"!  c #4C474D",
"~  c #61765F",
"^  c #634C62",
"/  c #756978",
"(  c #862C31",
")  c #952E3A",
"_  c #9C323E",
"`  c #C13A0F",
"'  c #BA671E",
"]  c #85552C",
"[  c #865A2C",
"{  c #88662E",
"}  c #8A7530",
"|  c #907330",
" . c #937A31",
".. c #B97221",
"X. c #B87B24",
"o. c #C34617",
"O. c #CB6519",
"+. c #C97017",
"@. c #C34921",
"#. c #CD6C22",
"$. c #843241",
"%. c #893743",
"&. c #993741",
"*. c #A33642",
"=. c #9E495A",
"-. c #BF764C",
";. c #CA4D59",
":. c #D14F5A",
">. c #C3764E",
",. c #C5794F",
"<. c #C77451",
"1. c #689A12",
"2. c #69A414",
"3. c #4B8237",
"4. c #518C3C",
"5. c #60852E",
"6. c #688B30",
"7. c #7B8332",
"8. c #75A334",
"9. c #7AA535",
"0. c #5B9A4A",
"q. c #60A04E",
"w. c #63A450",
"e. c #66A951",
"r. c #808832",
"t. c #958132",
"y. c #988733",
"u. c #998933",
"i. c #8A9334",
"p. c #839A33",
"a. c #9D9434",
"s. c #B68427",
"d. c #B79B28",
"f. c #87AB36",
"g. c #8CAD37",
"h. c #9AA637",
"j. c #90AE36",
"k. c #9CAB37",
"l. c #9FAB38",
"z. c #95B137",
"x. c #96B238",
"c. c #9CB438",
"v. c #BEA72C",
"b. c #A3A437",
"n. c #A8AB37",
"m. c #A3AD38",
"M. c #B1AC34",
"N. c #AEB237",
"B. c #A3B639",
"V. c #AAB539",
"C. c #A5B839",
"Z. c #ADBC3A",
"A. c #B0B837",
"S. c #B0B23D",
"D. c #B0B938",
"F. c #C58E21",
"G. c #C19F28",
"H. c #C1A129",
"J. c #B5AD48",
"K. c #B0BC47",
"L. c #B0B74E",
"P. c #A99178",
"I. c #BEBE7C",
"U. c #E2B67D",
"Y. c #CB7F88",
"T. c #878386",
"R. c #9B8D97",
"E. c #AF9A99",
"W. c #B7A78F",
"Q. c #B8AEAE",
"!. c #DD9D8C",
"~. c #C0AEAA",
"^. c #C0ADB1",
"/. c #C8B8B6",
"(. c #CDD298",
"). c #E6C193",
"_. c #D3CCCD",
"`. c #DFDBCE",
"'. c #D2CFD0",
"]. c #DED3D2",
"[. c #EAE7E7",
/* pixels */
"8.9.Z.Z.Z.Z.Z.Z.Z.Z.Z.Z.Z.Z.Z.Z.Z.Z.Z.Z.Z.Z.Z.Z.Z.Z.Z.Z.Z.Z.Z.Z.Z.Z.Z.Z.Z.Z.Z.Z.Z.Z.Z.Z.Z.Z.Z.Z.Z.Z.Z.Z.Z.Z.Z.Z.Z.Z.Z.Z.Z.Z.9.9.",
"9.9.Z.Z.Z.Z.Z.Z.Z.Z.Z.Z.Z.Z.Z.Z.Z.Z.Z.Z.Z.Z.Z.Z.Z.Z.Z.Z.Z.Z.Z.Z.Z.Z.Z.Z.Z.Z.Z.Z.Z.Z.Z.Z.Z.Z.Z.Z.Z.Z.Z.Z.Z.Z.Z.Z.Z.Z.Z.Z.Z.Z.9.9.",
"C.C.Z.Z.Z.Z.Z.Z.Z.Z.Z.Z.Z.Z.Z.Z.Z.Z.Z.Z.Z.Z.Z.Z.Z.Z.Z.Z.Z.Z.Z.Z.Z.Z.Z.Z.Z.Z.Z.Z.Z.Z.Z.Z.Z.Z.Z.Z.Z.Z.Z.Z.Z.Z.Z.Z.Z.Z.Z.Z.Z.Z.Z.Z.",
"Z.Z.Z.Z.Z.Z.Z.Z.Z.Z.Z.Z.Z.Z.Z.Z.Z.Z.Z.Z.Z.Z.Z.Z.Z.Z.Z.Z.Z.Z.Z.S.n.b.b.b.b.b.b.N.Z.Z.Z.Z.Z.Z.Z.Z.Z.Z.Z.Z.Z.Z.Z.Z.Z.Z.Z.Z.Z.Z.Z.Z.",
"Z.Z.Z.Z.Z.Z.Z.Z.Z.Z.Z.Z.Z.Z.Z.Z.Z.Z.Z.Z.Z.Z.Z.Z.Z.Z.Z.Z.Z.Z.D.-.( h h p i h h  .V.Z.Z.D.Z.Z.Z.Z.Z.Z.Z.Z.Z.Z.Z.Z.Z.Z.Z.Z.Z.Z.Z.Z.",
"Z.Z.Z.Z.Z.Z.Z.Z.Z.Z.Z.Z.Z.Z.Z.Z.Z.Z.Z.Z.Z.Z.Z.Z.Z.Z.Z.Z.Z.S.>.*.p i i y y y u h  .V.C.Z.Z.Z.Z.Z.Z.Z.Z.Z.Z.Z.Z.Z.Z.Z.Z.Z.Z.Z.Z.Z.",
"Z.Z.Z.Z.Z.Z.C.c.Z.Z.Z.Z.Z.Z.Z.Z.Z.Z.D.Z.Z.Z.Z.Z.Z.Z.Z.Z.S.,.*.p i i i ; % $ $ r f } k.Z.Z.Z.Z.Z.Z.Z.Z.Z.Z.Z.Z.Z.Z.Z.Z.Z.Z.Z.Z.Z.",
"Z.Z.Z.Z.Z.Z.x.9.j.Z.Z.Z.Z.Z.Z.Z.Z.H.H.Z.Z.Z.Z.Z.Z.Z.Z.S.,.:.*.p i i i y y - O $ 0 f R V.Z.Z.Z.Z.Z.Z.Z.Z.Z.Z.Z.Z.Z.Z.Z.Z.Z.Z.Z.Z.",
"Z.Z.Z.Z.Z.Z.z.9.g.Z.Z.Z.Z.Z.Z.Z.N.M.Z.Z.Z.Z.Z.Z.Z.Z.D.,.;.*.a i i i i i i y - O % t i t.Z.Z.Z.Z.Z.Z.Z.Z.Z.Z.Z.Z.Z.Z.Z.Z.Z.Z.Z.Z.",
"Z.Z.Z.Z.Z.Z.Z.Z.z.9.g.Z.Z.Z.Z.Z...s.Z.Z.Z.Z.Z.Z.Z.Z.Z.>.$.$.*.i i i - q i i t % r h h T f.C.Z.Z.Z.Z.Z.Z.Z.Z.Z.Z.Z.Z.Z.Z.Z.Z.Z.Z.",
"Z.Z.Z.Z.Z.Z.Z.Z.x.9.g.Z.Z.Z.Z.Z.N.N.Z.Z.Z.Z.Z.Z.Z.Z.K.>.v $.&.a i t % # q y - O W b.k T f.C.Z.Z.Z.Z.Z.Z.Z.Z.Z.Z.Z.Z.Z.Z.Z.Z.Z.Z.",
"Z.Z.Z.Z.Z.Z.Z.Z.Z.C.C.Z.Z.Z.Z.Z.D.Z.Z.Z.Z.Z.Z.Z.Z.Z.N.<.v $ v ;.j - O # q ; $ O E m.l  .Z.Z.Z.Z.Z.Z.Z.Z.Z.Z.Z.Z.Z.Z.Z.Z.Z.Z.Z.Z.",
"Z.Z.Z.Z.Z.Z.Z.Z.Z.Z.Z.Z.Z.Z.Z.H.v.N.Z.Z.Z.Z.Z.Z.Z.Z.S.,.v O $ = $ O O O q y - O & W l t.Z.Z.Z.Z.Z.Z.Z.Z.Z.Z.Z.Z.Z.Z.Z.Z.Z.Z.Z.Z.",
"Z.Z.Z.Z.Z.Z.Z.Z.Z.Z.Z.Z.Z.Z.Z.D...s.Z.Z.Z.Z.Z.Z.Z.Z.S.<.v O O O O O O O q i t - + T l u.Z.Z.Z.Z.Z.Z.Z.Z.Z.Z.Z.Z.Z.Z.Z.Z.Z.Z.Z.Z.",
"Z.Z.Z.Z.Z.Z.Z.Z.Z.Z.Z.Z.Z.Z.Z.Z.N.V.Z.Z.V.Z.Z.Z.Z.Z.,.:.c @ 3 3 3 4 @ O r i y - O @ E V.Z.Z.Z.Z.Z.Z.Z.Z.Z.Z.Z.Z.Z.Z.Z.Z.Z.Z.Z.Z.",
"Z.Z.Z.Z.Z.Z.Z.Z.Z.Z.Z.Z.Z.Z.Z.Z.Z.Z.Z.x.f.B.Z.Z.Z.Z.>.$.@ T.'.T.Q._.! O $ q i y - + T B.D.Z.Z.Z.Z.Z.Z.Z.Z.z.f.c.Z.Z.Z.Z.Z.Z.Z.Z.",
"Z.Z.Z.Z.Z.Z.Z.Z.Z.Z.Z.Z.Z.Z.Z.Z.Z.Z.D.g.8.c.Z.Z.Z.Z.<.v O = 3 = 3 3 + O O $ q i - O @ 7.Z.Z.Z.Z.Z.Z.Z.Z.Z.f.9.z.C.Z.Z.Z.Z.Z.Z.Z.",
"Z.Z.Z.Z.Z.Z.Z.Z.Z.Z.Z.Z.Z.Z.Z.Z.Z.B.c.j.f.B.Z.Z.Z.S.,.v O O O O O O O O O # q i - O + 7.Z.Z.Z.Z.Z.Z.Z.C.c.j.f.c.Z.Z.Z.Z.Z.Z.Z.Z.",
"Z.Z.Z.Z.Z.Z.Z.Z.Z.Z.Z.Z.Z.Z.Z.A.n.g.8.z.Z.Z.Z.Z.Z.S.<.v + O O O O O O O O # q i % O + T V.C.Z.Z.Z.Z.Z.j.9.c.Z.Z.Z.Z.Z.Z.Z.Z.Z.Z.",
"Z.Z.Z.Z.Z.Z.Z.Z.Z.Z.Z.Z.Z.Z.Z...+.d.p.c.Z.Z.Z.Z.S.<.:.) ; + O O O O O O # q i y % O + & i.Z.Z.Z.Z.Z.Z.j.9.c.Z.Z.Z.Z.Z.Z.Z.Z.Z.Z.",
"Z.Z.Z.Z.Z.Z.Z.Z.Z.Z.Z.Z.Z.Z.D.M.F.O.X.N.Z.Z.Z.Z.m.>.*.i 7 O O O O O O O q i i - O # # + r.V.Z.Z.Z.Z.Z.Z.C.Z.Z.Z.Z.Z.Z.Z.Z.Z.Z.Z.",
"Z.Z.Z.Z.Z.Z.Z.Z.Z.Z.Z.Z.Z.Z.Z...o.O.#.s.Z.Z.Z.V.P $.&.a i 6 O O O O # 0 i i y % O 0 t ; * i.Z.Z.Z.Z.Z.Z.Z.Z.Z.Z.Z.Z.Z.Z.Z.Z.Z.Z.",
"Z.Z.Z.Z.Z.Z.Z.Z.Z.Z.Z.Z.Z.Z.N.' O.).U.H.Z.Z.S.>.c % $.;.*.t 6 O O # q u i y - O # q i y u u.N.Z.Z.Z.Z.Z.Z.Z.Z.Z.Z.Z.Z.Z.Z.Z.Z.Z.",
"Z.Z.Z.Z.Z.Z.Z.Z.Z.Z.Z.Z.Z.Z.' ` O.).U.G.Z.m.>._ i 6 % $.) i 6 O # q i i i - O # q i i i i h u.N.Z.Z.Z.Z.Z.Z.Z.Z.Z.Z.Z.Z.Z.Z.Z.Z.",
"Z.Z.Z.Z.Z.Z.Z.Z.Z.Z.Z.Z.Z.Z...` !.).O.X.m.H %.&.p y 6 % 7 i 7 6 - q i i y % # q t y i i i i h a.Z.Z.Z.Z.Z.Z.Z.Z.Z.Z.Z.Z.Z.Z.Z.Z.",
"Z.Z.Z.Z.Z.Z.Z.Z.Z.Z.Z.Z.Z.Z.N.' @.@.X.b.G + % %.&.p y 6 # 7 6 6 y - q t - # q i ; q i i i i p y.Z.Z.Z.Z.Z.Z.Z.Z.Z.Z.Z.Z.Z.Z.Z.Z.",
"Z.Z.Z.Z.Z.Z.Z.Z.Z.Z.Z.Z.Z.Z.D.A.J.J.V.K % O $ % $.) i y y 7 # 7 i - q ; # q i i - # q i i i i h a.Z.Z.Z.Z.Z.Z.Z.Z.Z.Z.Z.Z.Z.Z.Z.",
"Z.Z.Z.Z.Z.Z.Z.Z.Z.Z.Z.Z.Z.Z.D.I./.`.T.%.&.i y 6 r i i i i y 6 7 i - q y y i i i - + 0 t y y i i a.Z.Z.Z.Z.Z.Z.Z.Z.Z.Z.Z.Z.Z.Z.Z.",
"Z.Z.Z.Z.Z.Z.Z.Z.Z.Z.Z.Z.Z.Z.A.W.].[.'.Y.;.&.p y 6 7 i i i i 7 7 y - q i i i i i t % # # $ % t i u.C.Z.Z.Z.Z.Z.Z.Z.Z.Z.Z.Z.Z.Z.Z.",
"Z.Z.Z.Z.Z.Z.Z.Z.Z.Z.Z.Z.Z.Z.A.(.].[.[.R.^ =.) i 6 7 y i i i i i y ; t i i i i i - # # # q t - t j a.Z.Z.Z.Z.Z.Z.Z.Z.Z.Z.Z.Z.Z.Z.",
"Z.Z.Z.Z.Z.Z.Z.Z.Z.Z.Z.Z.Z.Z.Z.K.(./.R.Q $ r p i 6 7 6 7 i i i i i y i i i i y - # q y - # t y i p a.Z.Z.Z.Z.Z.Z.Z.Z.Z.Z.Z.Z.Z.Z.",
"Z.Z.Z.Z.Z.Z.Z.Z.Z.Z.Z.Z.Z.Z.Z.Z.K.K.[ 6 O 7 i i 6 7 6 6 i i i i i i i i y - % $ q i i y $ t i i i a.Z.Z.Z.Z.Z.Z.Z.Z.Z.Z.Z.Z.Z.Z.",
"Z.Z.Z.Z.Z.Z.Z.Z.Z.Z.Z.Z.Z.Z.Z.Z.Z.Z.] 6 # 7 i i 6 7 6 $ 7 y i i i i p u ; q t t i i i i - t i i y u.Z.Z.Z.Z.Z.D.Z.Z.Z.Z.Z.Z.Z.Z.",
"Z.Z.Z.Z.Z.Z.Z.Z.Z.Z.Z.Z.Z.Z.Z.Z.Z.Z.] 6 O 7 i i y i y ; 7 7 7 i i i j s z x j y y i i i y i i y - i.Z.Z.Z.Z.Z.Z.Z.Z.Z.Z.Z.Z.Z.Z.",
"Z.Z.Z.Z.Z.Z.Z.Z.Z.Z.Z.Z.Z.Z.Z.Z.Z.Z.[ 6 O 7 i 6 7 i 6 O 7 6 6 i i h P.~.^.Q./ 4 t i i i i i y % O i.Z.Z.Z.Z.Z.Z.Z.Z.Z.Z.Z.Z.Z.Z.",
"Z.Z.Z.Z.Z.Z.Z.Z.Z.Z.Z.Z.Z.Z.Z.Z.Z.Z.] 6 # 0 i ; 7 i 6 # 7 ; 7 i p W.L.L.L././ 3 q i i i i y % O O i.Z.Z.Z.Z.Z.Z.Z.Z.Z.Z.Z.Z.Z.Z.",
"Z.Z.Z.Z.Z.Z.Z.Z.Z.Z.Z.Z.Z.Z.Z.Z.Z.Z.[ 6 7 i i ; 7 i 7 7 6 # 7 i 2 E.I.(.`.~ 0.< q i p i u % O O @ i.Z.Z.Z.Z.Z.Z.Z.Z.Z.Z.Z.Z.Z.Z.",
"Z.Z.Z.Z.Z.Z.Z.Z.Z.Z.Z.Z.Z.Z.Z.Z.Z.Z.[ 6 7 i 6 # 7 i y y 6 6 y u X b E.^./.! 4.< q i i i % O O O 7.Z.D.Z.Z.Z.Z.Z.Z.Z.Z.Z.Z.Z.Z.Z.",
"Z.Z.Z.Z.Z.Z.Z.Z.Z.Z.Z.Z.Z.Z.Z.Z.Z.Z.{ 6 0 y ; O 7 i i i 6 7 6 % . 5 z s 3 : 4.< q i i t $ O O O i.Z.Z.Z.Z.Z.Z.Z.Z.Z.Z.Z.Z.Z.Z.Z.",
"Z.Z.Z.Z.Z.Z.Z.Z.Z.Z.Z.Z.Z.Z.Z.Z.Z.C.N.J 7 i ; O # 7 i i t 6 7 t u o 5 @ : Y A O q i y - O O O @ i.Z.Z.Z.Z.Z.Z.Z.Z.Z.Z.Z.Z.Z.Z.Z.",
"Z.Z.Z.Z.Z.Z.Z.Z.Z.Z.Z.Z.Z.Z.Z.Z.Z.D.Z.[ 8 9 6 O O 6 t 6 7 6 6 7 q i o . 3.A O + q i - # O O O 7.Z.Z.Z.Z.Z.Z.Z.Z.Z.Z.Z.Z.Z.Z.Z.Z.",
"Z.Z.Z.Z.Z.Z.Z.Z.Z.Z.Z.Z.Z.Z.Z.Z.Z.Z.Z.[ ; 7 ; # O # # # 7 7 7 7 q i 5 X < @ O 0 u - O O O O O i.Z.Z.Z.Z.Z.Z.Z.Z.Z.Z.Z.Z.Z.Z.Z.Z.",
"Z.Z.Z.Z.Z.Z.Z.Z.Z.Z.Z.Z.Z.Z.Z.Z.Z.Z.Z.[ 8 w u ; O # # 7 y y i 7 e u M m 0.S @ q t % O O O O @ i.Z.Z.Z.Z.Z.Z.Z.Z.Z.Z.Z.Z.Z.Z.Z.Z.",
"Z.Z.Z.Z.Z.Z.Z.Z.Z.Z.Z.Z.Z.Z.Z.Z.Z.Z.Z.[ { p.L 8 @ 6 t i i i y 7 e M B B C q.S q - O O O + + 7.Z.Z.Z.Z.Z.Z.Z.Z.Z.Z.Z.Z.Z.Z.Z.Z.Z.",
"D.Z.Z.Z.Z.Z.Z.Z.Z.Z.Z.Z.Z.Z.Z.Z.Z.Z.Z.I U z.] { G + 7 u i y 7 7 i N 2.1.Z e.S + O O O O O O i.Z.Z.Z.Z.Z.Z.Z.Z.Z.Z.Z.Z.Z.Z.Z.Z.Z.",
"Z.D.D.Z.Z.Z.Z.Z.Z.Z.Z.Z.Z.Z.Z.Z.Z.Z.Z.I U x.] { J + + 7 i y 6 6 i N 2.1.Z e.S O O O O O O O i.Z.Z.Z.Z.Z.Z.Z.Z.Z.Z.Z.Z.Z.Z.Z.Z.Z.",
"Z.Z.Z.Z.Z.Z.Z.Z.Z.Z.Z.Z.Z.Z.Z.Z.Z.Z.Z.[ | C.] { k.G O 7 i 7 # 6 u N 2.1.Z e.S O O + + O O O p.Z.Z.Z.Z.Z.Z.Z.Z.Z.Z.Z.Z.Z.Z.Z.Z.Z.",
"Z.Z.Z.Z.Z.Z.Z.Z.Z.Z.Z.Z.Z.Z.Z.Z.Z.Z.Z.[ | N.] | N.J + 7 i 6 # $ e M B B V w.A + + Y 2 + O O i.Z.Z.Z.Z.Z.Z.Z.Z.Z.Z.Z.Z.Z.Z.Z.Z.Z.",
"Z.Z.Z.Z.Z.Z.Z.Z.Z.Z.Z.Z.Z.Z.Z.Z.Z.Z.Z.{ | A.m.N.Z.k.H 7 i 6 6 6 q * n m 4.D O O + W b.A + + i.Z.Z.Z.Z.Z.Z.Z.Z.Z.Z.Z.Z.Z.Z.Z.Z.Z.",
"Z.Z.Z.Z.Z.Z.Z.Z.Z.Z.Z.Z.Z.Z.Z.Z.Z.Z.Z.{ | Z.Z.Z.Z.C.J 6 u 6 # $ q - e   , + O O + 7.Z.h.> + i.Z.Z.Z.Z.Z.Z.Z.Z.Z.Z.Z.Z.Z.Z.Z.Z.Z.",
"Z.Z.Z.Z.Z.Z.Z.Z.Z.z.c.Z.Z.Z.Z.Z.Z.Z.Z.N.N.Z.Z.Z.Z.C.H + 7 6 6 6 q - q   @ + O @ @ 7.Z.N.> + i.Z.Z.Z.Z.Z.Z.c.z.c.Z.Z.Z.Z.Z.Z.Z.Z.",
"Z.Z.Z.Z.Z.Z.Z.Z.c.9.f.Z.Z.Z.Z.Z.Z.Z.Z.Z.Z.Z.Z.Z.Z.N.J @ 6 7 7 7 q - q   O @ + Y 1 W Z.C.> + i.Z.Z.Z.Z.Z.C.f.9.c.C.Z.Z.Z.Z.Z.Z.Z.",
"Z.Z.Z.Z.Z.Z.Z.Z.c.f.g.c.C.Z.Z.Z.Z.Z.Z.Z.Z.Z.Z.Z.Z.Z.k.J 9 u y 7 q   e - + Y d 7.2 7.Z.C.> & i.Z.Z.Z.Z.C.c.g.f.c.Z.Z.Z.Z.Z.Z.Z.Z.",
"Z.Z.Z.Z.Z.Z.Z.Z.Z.Z.c.9.g.Z.Z.Z.Z.Z.Z.Z.Z.Z.Z.Z.Z.Z.D.m.J 7 u 7 q d g % + 7.k.C.k.N.Z.C.> 7.Z.Z.Z.Z.Z.z.9.c.C.Z.Z.Z.Z.Z.Z.Z.Z.Z.",
"Z.Z.Z.Z.Z.Z.Z.Z.Z.Z.c.9.g.Z.Z.Z.Z.Z.Z.Z.Z.Z.Z.Z.Z.Z.Z.C.K $ 7 7 e d g - @ 7.Z.Z.Z.Z.Z.l.> i.Z.Z.Z.Z.Z.c.9.c.Z.Z.Z.Z.Z.Z.Z.Z.Z.Z.",
"Z.Z.Z.Z.Z.Z.Z.Z.Z.Z.Z.C.Z.Z.Z.Z.Z.Z.Z.Z.Z.Z.Z.Z.Z.Z.Z.Z.l.H 6 6 r u u } 2 7.Z.Z.Z.D.C.F > i.Z.Z.Z.Z.Z.Z.C.Z.Z.Z.Z.Z.Z.Z.Z.Z.Z.Z.",
"C.Z.Z.Z.Z.Z.Z.Z.Z.Z.Z.Z.Z.Z.Z.Z.Z.Z.Z.Z.Z.Z.Z.Z.Z.Z.Z.Z.C.K & # * u p  .d 7.Z.Z.Z.Z.Z.2 7.Z.Z.Z.Z.Z.Z.Z.Z.Z.Z.Z.Z.Z.Z.Z.Z.Z.Z.C.",
"9.9.Z.Z.Z.Z.Z.Z.Z.Z.Z.Z.Z.Z.Z.Z.Z.Z.Z.Z.Z.Z.Z.Z.Z.Z.Z.Z.A.m.J & 7.b.L j t.C.Z.Z.Z.Z.Z.c.Z.Z.Z.Z.Z.Z.Z.Z.Z.Z.Z.Z.Z.Z.Z.Z.Z.Z.9.9.",
"9.9.Z.Z.Z.Z.Z.Z.Z.Z.Z.Z.Z.Z.Z.Z.Z.Z.Z.Z.Z.Z.Z.Z.Z.Z.Z.Z.Z.Z.c.h.C.Z.a.l a.Z.Z.Z.Z.Z.Z.Z.Z.Z.Z.Z.Z.Z.Z.Z.Z.Z.Z.Z.Z.Z.Z.Z.Z.C.9.9.",
"8.9.Z.Z.Z.Z.Z.Z.Z.Z.Z.Z.Z.Z.Z.Z.Z.Z.Z.Z.Z.Z.Z.Z.Z.Z.Z.Z.Z.Z.Z.Z.Z.V.]  .C.Z.Z.Z.Z.Z.Z.Z.Z.Z.Z.Z.Z.Z.Z.Z.Z.Z.Z.Z.Z.Z.Z.Z.Z.Z.9.8.",
"8.9.Z.Z.Z.Z.Z.Z.Z.Z.Z.Z.Z.Z.Z.Z.Z.Z.Z.Z.Z.Z.Z.Z.Z.Z.Z.Z.Z.Z.Z.Z.Z.Z.m.Z.A.Z.Z.Z.Z.Z.Z.Z.Z.Z.Z.Z.Z.Z.Z.Z.Z.Z.Z.Z.Z.Z.Z.Z.Z.Z.9.8.",
"8.9.C.Z.Z.Z.Z.Z.Z.Z.Z.Z.Z.Z.Z.Z.Z.Z.Z.Z.Z.Z.Z.Z.Z.Z.Z.Z.Z.Z.Z.Z.Z.Z.A.Z.A.Z.Z.Z.Z.Z.Z.Z.Z.Z.Z.Z.Z.Z.Z.Z.Z.Z.Z.Z.Z.Z.Z.Z.Z.Z.9.8.",
"8.9.Z.Z.Z.Z.Z.Z.Z.Z.Z.Z.Z.Z.Z.Z.Z.Z.Z.Z.Z.Z.Z.Z.Z.Z.Z.Z.Z.Z.Z.Z.Z.Z.Z.Z.Z.Z.Z.Z.Z.Z.Z.Z.Z.Z.Z.Z.Z.Z.Z.Z.Z.Z.Z.Z.Z.Z.Z.Z.Z.Z.9.8.",
"5.6.C.Z.Z.Z.Z.Z.Z.Z.Z.Z.Z.Z.Z.Z.Z.Z.Z.Z.Z.Z.Z.Z.Z.Z.Z.Z.Z.Z.Z.Z.Z.Z.Z.Z.Z.Z.Z.Z.Z.Z.Z.Z.Z.Z.Z.Z.Z.Z.Z.Z.Z.Z.Z.Z.Z.Z.Z.Z.Z.C.6.5."
};
