/* XPM */
static char *_f53a5c453744cb8d41fcfe021bcda02psJX3AKr5HVXx2jP[] = {
/* columns rows colors chars-per-pixel */
"64 64 181 2 ",
"   c #193317",
".  c #29261D",
"X  c #2F3516",
"o  c #3C371A",
"O  c #190F20",
"+  c #1C1321",
"@  c #1E1D24",
"#  c #241020",
"$  c #2C1021",
"%  c #221C23",
"&  c #331121",
"*  c #3C1321",
"=  c #2E292A",
"-  c #322D24",
";  c #2D322B",
":  c #2E3A2A",
">  c #363225",
",  c #2D2032",
"<  c #362D3D",
"1  c #501F1F",
"2  c #48291F",
"3  c #451321",
"4  c #4B1422",
"5  c #481A25",
"6  c #541522",
"7  c #5D1622",
"8  c #5F1E20",
"9  c #641723",
"0  c #681723",
"q  c #651923",
"w  c #6D1823",
"e  c #701D28",
"r  c #5C2924",
"t  c #4C2131",
"y  c #512130",
"u  c #6F222F",
"i  c #702124",
"p  c #732D26",
"a  c #773427",
"s  c #793727",
"d  c #7A3B28",
"f  c #732634",
"g  c #663537",
"h  c #124D17",
"j  c #1A5617",
"k  c #2D4B18",
"l  c #176418",
"z  c #286D18",
"x  c #2D7215",
"c  c #2E7018",
"v  c #39592F",
"b  c #324030",
"n  c #317A2B",
"m  c #494728",
"M  c #4C4C29",
"N  c #5B4D2A",
"B  c #58562B",
"V  c #57582B",
"C  c #744429",
"Z  c #73512A",
"A  c #7A522B",
"S  c #5D612C",
"D  c #416B33",
"F  c #666A2E",
"G  c #7D632E",
"H  c #7F6A2F",
"J  c #6D722F",
"K  c #757C2F",
"L  c #747B30",
"P  c #797F31",
"I  c #623A4C",
"U  c #7D3140",
"Y  c #53594D",
"T  c #534B55",
"R  c #57515C",
"E  c #715058",
"W  c #5E5862",
"Q  c #726879",
"!  c #862631",
"~  c #8C2935",
"^  c #BA691F",
"/  c #BF701D",
"(  c #83522C",
")  c #855A2C",
"_  c #885D2D",
"`  c #8B4D31",
"'  c #846A2E",
"]  c #8D6B2F",
"[  c #8F7130",
"{  c #897C31",
"}  c #927831",
"|  c #BA6C20",
" . c #B77C25",
".. c #C64810",
"X. c #CA5C12",
"o. c #CC6914",
"O. c #C46B19",
"+. c #D07916",
"@. c #8F3340",
"#. c #933340",
"$. c #A33541",
"%. c #954C49",
"&. c #BC424F",
"*. c #B85C4B",
"=. c #B04250",
"-. c #947C5B",
";. c #965F67",
":. c #996C73",
">. c #C47B4E",
",. c #D17548",
"<. c #CC6156",
"1. c #548F14",
"2. c #6B9C12",
"3. c #6EA914",
"4. c #538F3D",
"5. c #60852E",
"6. c #688B30",
"7. c #7E8432",
"8. c #7F8832",
"9. c #75A334",
"0. c #7BA535",
"q. c #588C49",
"w. c #67AA52",
"e. c #818633",
"r. c #828A33",
"t. c #988933",
"y. c #879233",
"u. c #9D9434",
"i. c #959936",
"p. c #929C35",
"a. c #B78525",
"s. c #B48B2A",
"d. c #B6922B",
"f. c #B29A2F",
"g. c #A19D36",
"h. c #B19C30",
"j. c #87AB36",
"k. c #8CAD37",
"l. c #99A536",
"z. c #9AA637",
"x. c #90AF37",
"c. c #95B137",
"v. c #9AB137",
"b. c #96B238",
"n. c #9CB438",
"m. c #BAAC2F",
"M. c #A4A537",
"N. c #A5A837",
"B. c #ACAA30",
"V. c #A2AF38",
"C. c #B5A831",
"Z. c #A4B439",
"A. c #AAB439",
"S. c #A5B839",
"D. c #ADBC3A",
"F. c #B69F43",
"G. c #B99945",
"H. c #B4BB58",
"J. c #83907D",
"K. c #A5A87C",
"L. c #BBBA76",
"P. c #D18B52",
"I. c #E0B06C",
"U. c #927E85",
"Y. c #A37F85",
"T. c #88848A",
"R. c #B08C90",
"E. c #AF9AA0",
"W. c #B9B1AC",
"Q. c #E3B980",
"!. c #C4B8BA",
"~. c #C9C599",
"^. c #D5D9A8",
"/. c #DCDEBC",
"(. c #D6C9CA",
"). c #DACECE",
"_. c #DCD3D3",
"`. c #E0D8DA",
"'. c #F1E2D0",
"]. c #E8E2E2",
"[. c #EDEBEB",
/* pixels */
"9.0.D.D.D.D.D.D.D.D.D.D.D.D.D.D.D.D.D.D.D.D.D.D.D.D.D.D.D.D.D.D.D.D.D.D.D.D.D.D.D.D.D.D.D.D.D.D.D.D.D.D.D.D.D.D.D.D.D.D.D.D.0.0.",
"0.0.D.D.D.D.D.D.D.D.D.D.D.D.D.D.D.D.D.D.D.D.D.D.D.D.D.D.D.D.D.D.D.D.D.D.D.D.D.D.D.D.D.D.D.D.D.D.D.D.D.D.D.D.D.D.D.D.D.D.D.D.j.0.",
"S.S.D.D.D.D.D.D.D.D.D.D.D.D.D.D.D.D.D.D.D.D.D.D.D.D.D.D.D.D.D.D.D.D.D.D.D.D.D.D.D.D.D.D.D.D.D.D.D.D.D.D.D.D.D.D.D.D.D.D.D.D.S.D.",
"D.D.D.D.D.D.D.D.D.D.D.D.D.D.D.D.D.D.D.D.D.D.D.D.D.D.D.D.D.D.D.D.D.D.D.D.D.D.D.D.D.D.D.D.D.D.D.D.D.D.D.D.D.D.D.D.D.D.D.D.D.D.D.D.",
"D.D.D.D.D.D.D.D.D.D.D.D.D.D.D.D.D.D.D.D.D.D.D.D.D.D.D.D.D.D.D.g.[ [ [ [ [ [ [ M.D.D.D.D.D.D.D.D.D.D.D.D.D.D.D.D.D.D.D.D.D.D.D.D.",
"D.D.D.D.D.D.D.D.D.D.D.D.D.D.D.D.D.D.D.D.D.D.D.D.D.D.D.D.D.D.u.d w w w w w w w ) M.D.D.D.D.D.D.D.D.D.D.D.D.D.D.D.D.D.D.D.D.D.D.D.",
"D.D.D.D.D.D.S.n.D.D.D.D.D.D.D.D.D.D.D.D.D.D.D.D.D.D.D.D.D.F.` w w w w 6 6 4 6 w ) p.S.D.D.D.D.D.D.D.D.D.D.D.D.D.D.D.D.D.D.D.D.D.",
"D.D.D.D.D.D.b.0.x.D.D.D.D.D.D.D.D.D.D.D.D.D.D.D.D.D.D.D.G.<.~ e w w w 3 * # O 3 q Z y.D.D.D.D.D.D.D.D.D.D.D.D.D.D.D.D.D.D.D.D.D.",
"D.D.D.D.D.D.b.0.x.S.D.D.D.D.D.D.D.D.D.D.D.D.D.D.D.D.D.F.*.~ w w w w w w w 3 # O 3 q A l.S.D.D.D.D.D.D.D.D.D.D.D.D.D.D.D.D.D.D.D.",
"D.D.D.D.D.D.D.S.b.0.j.D.D.D.D.D.D.D.D.D.D.D.D.D.D.D.D.>.#.7 w w w w 6 w w w 3 # * 9 e K j.S.D.D.D.D.D.D.D.D.D.D.D.D.D.D.D.D.D.D.",
"D.D.D.D.D.D.D.D.b.0.k.D.D.D.D.D.D.D.D.D.D.D.D.D.D.D.D.>.@.3 0 w 0 w & 3 9 w 6 # C ) i K k.S.D.D.D.D.D.D.D.D.D.D.D.D.D.D.D.D.D.D.",
"D.D.D.D.D.D.D.D.D.S.D.D.D.D.D.D.D.D.D.D.D.D.D.D.D.D.D.>.U $ 7 0 w 6 # O 7 6 # + r.A.d t.D.D.D.D.D.D.D.D.D.D.D.D.D.D.D.D.D.D.D.D.",
"D.D.D.D.D.D.D.D.D.D.D.D.D.D.C.s.D.D.D.D.D.D.D.D.D.D.D.>.U O $ 3 3 # O O 7 3 # + M p.s t.D.D.D.D.D.D.D.D.D.D.D.D.D.D.D.D.D.D.D.D.",
"D.D.D.D.D.D.D.D.D.D.D.D.D.D.d.d.D.D.D.D.D.D.D.D.D.D.D.>.U O O O O O O O 7 w 4 # + 7.d t.D.D.D.D.D.D.D.D.D.D.D.D.D.D.D.D.D.D.D.D.",
"D.D.D.D.D.D.D.D.D.D.D.D.D.D.A.m.D.D.D.S.D.D.D.D.D.D.G.<.U O O O O O O O 7 w w $ + M G M.D.D.D.D.D.D.D.D.D.D.D.D.D.D.D.D.D.D.D.D.",
"D.D.D.D.D.D.D.D.D.D.D.D.D.D.m.m.D.D.D.b.j.Z.D.D.D.D.>.=.t T T.R T U.< O 3 9 w 3 # + r.D.D.D.D.D.D.D.D.D.D.c.j.n.D.D.D.D.D.D.D.D.",
"D.D.D.D.D.D.D.D.D.D.D.D.D.D.D.D.D.D.D.k.9.n.D.D.D.D.>.~ @ W T.W W T.< O O 3 9 w $ + M p.D.D.D.D.D.D.D.D.D.j.9.c.D.D.D.D.D.D.D.D.",
"D.D.D.D.D.D.D.D.D.D.D.D.D.D.D.D.h.a.n.x.j.S.D.D.D.D.>.f O O O O O O O O O O 7 w $ + + r.D.D.D.D.D.D.D.S.n.x.j.n.S.D.D.D.D.D.D.D.",
"D.D.D.D.D.D.D.D.D.D.D.D.D.D.D.D.s. .9.c.D.D.D.D.S.D.>.@.O O O O O O O O O O 7 w $ O + r.D.D.D.D.D.D.D.k.0.n.D.D.D.D.D.D.D.D.D.D.",
"D.D.D.D.D.D.D.D.D.D.D.D.D.D.D.f.a.B.0.c.D.D.D.D.H.G.<.~ $ O O O O O O O O * 9 4 # O + M l.D.D.D.D.D.D.x.0.n.D.D.D.D.D.D.D.D.D.D.",
"D.D.D.D.D.D.D.D.D.D.D.D.D.D.H.a.O.s.S.D.D.D.D.D.D.>.&.~ 3 O O O O O O O 3 9 w $ O * 3 $ M l.D.D.D.D.D.D.S.D.D.D.D.D.D.D.D.D.D.D.",
"D.D.D.D.D.D.D.D.D.D.D.D.D.D.D.d.X.O.s.D.D.D.D.D.e.%.$.e 6 & O O O O O * 9 w w $ O 7 w 4 5 u.D.D.D.D.D.D.D.D.D.D.D.D.D.D.D.D.D.D.",
"D.D.D.D.D.D.D.D.D.D.D.D.D.D.f.X.X.+.O.a.D.D.D.h.g y e w w 6 & O O O * 9 w w 4 # * w w w i ( N.D.D.D.D.D.D.D.D.D.D.D.D.D.D.D.D.D.",
"D.D.D.D.D.D.D.D.D.D.D.D.D.D. ...P.I.o.^ D.D.G.<.#.& & 7 w w 3 O # * w w w 4 # * w w w w w w ( N.D.D.D.D.D.D.D.D.D.D.D.D.D.D.D.D.",
"D.D.D.D.D.D.D.D.D.D.D.D.D.D. .X.I.'.>.| D.e.%.&.! 9 & & 7 w 3 & & 7 w w w $ O 7 4 0 w w w w w g.D.D.D.D.D.D.D.D.D.D.D.D.D.D.D.D.",
"D.D.D.D.D.D.D.D.D.D.D.D.D.D.f./ ,.Q.P.G.y.= y u w w 7 & & 6 3 3 7 3 9 w 4 # 3 9 & * 0 0 w w w ( A.D.D.D.D.D.D.D.D.D.D.D.D.D.D.D.",
"D.D.D.D.D.D.D.D.D.D.D.D.D.D.D.m. . .f.r.> O O & 7 w w 7 3 3 & 4 w $ 7 4 # 3 9 w $ O 1 w w 0 w w M.D.D.D.D.D.D.D.D.D.D.D.D.D.D.D.",
"D.D.D.D.D.D.D.D.D.D.D.D.D.D.D.H.~.^.K.I f 3 4 & 3 w w 0 w 7 & 3 w & 7 6 3 9 w w 6 $ * 3 3 3 0 w g.D.D.D.D.D.D.D.D.D.D.D.D.D.D.D.",
"D.D.D.D.D.D.D.D.D.D.D.D.D.D.D.L.).[.!.;.! w w 7 3 7 w w w w 3 3 0 & 9 w w w w w 3 # O O 3 4 3 w ( N.D.D.D.D.D.D.D.D.D.D.D.D.D.D.",
"D.D.D.D.D.D.D.D.D.D.D.D.D.D.D.L._.[.].E.I g w w 3 3 w w w w 7 0 w & 7 w w w w 3 # 3 3 # * 9 6 w w g.D.D.D.D.D.D.D.D.D.D.D.D.D.D.",
"D.D.D.D.D.D.D.D.D.D.D.D.D.D.D.H.~.).!.Q < y w w 3 3 6 6 w w w w w 6 0 w w 3 * # 3 9 w 6 $ 9 w w i g.D.D.D.D.D.D.D.D.D.D.D.D.D.D.",
"D.D.D.D.D.D.D.D.D.D.D.D.D.D.D.D.H.L.-.t O 3 w w 3 3 3 3 w w w w w w w w 4 3 4 6 9 w w w & 9 w w w g.D.D.D.D.D.D.D.D.D.D.D.D.D.D.",
"D.D.D.D.D.D.D.D.D.D.D.D.D.D.D.D.D.D.] 4 O 4 w w 7 9 7 4 6 6 6 w w w w 4 4 9 w w w w w w 6 w w w 3 p.D.D.D.D.D.D.D.D.D.D.D.D.D.D.",
"D.D.D.D.D.D.D.D.D.D.D.D.D.D.D.D.D.D.] 4 O 3 w w w w 6 $ 4 3 4 w w w :.U.Y.Y.E 5 9 w w w w w 0 3 # p.D.D.D.D.D.D.D.D.D.D.D.D.D.D.",
"D.D.D.D.D.D.D.D.D.D.D.D.D.D.D.D.D.D.] 6 O 3 w w w w 3 O 3 3 3 w e R.).`.`./.Q , 7 w w w w w 3 O + p.D.D.D.D.D.D.D.D.D.D.D.D.D.D.",
"D.D.D.D.D.D.D.D.D.D.D.D.D.D.D.D.D.D._ 4 O 4 w 6 6 w 3 & 3 $ 4 w r W././.[.J.W ; 9 w w w w * O O @ p.D.D.D.D.D.D.D.D.D.D.D.D.D.D.",
"D.D.D.D.D.D.D.D.D.D.D.D.D.D.D.D.D.D.] 1 $ 9 0 3 3 w 3 3 3 & 9 w 2 E !.(.(.Y 4.: 7 w w w * + O + F Z.D.D.D.D.D.D.D.D.D.D.D.D.D.D.",
"D.D.D.D.D.D.D.D.D.D.D.D.D.D.D.D.D.D._ 4 3 w 6 # 3 w 9 9 9 3 & & X 1 %.E T , 4.: 9 w w 0 $ O O + p.D.D.D.D.D.D.D.D.D.D.D.D.D.D.D.",
"D.D.D.D.D.D.D.D.D.D.D.D.D.D.D.D.D.D.] 6 * w 3 O $ 6 0 w w 3 & 6 1 o q & @ v v @ 7 w w 3 + O + + p.D.D.D.D.D.D.D.D.D.D.D.D.D.D.D.",
"D.D.D.D.D.D.D.D.D.D.D.D.D.D.D.D.D.D.g.N * w 3 O O 3 w 6 6 3 3 1 1 1 o   n v @ O 7 0 3 + O O + F Z.D.D.D.D.D.D.D.D.D.D.D.D.D.D.D.",
"D.D.D.D.D.D.D.D.D.D.D.D.D.D.D.D.D.D.D.' 4 6 3 O O $ & $ 3 3 3 3 3 w 1 X v @ O 4 9 3 + O O O + p.D.D.D.D.D.D.D.D.D.D.D.D.D.D.D.D.",
"D.D.D.D.D.D.D.D.D.D.D.D.D.D.D.D.D.D.D.] 4 3 3 O O O + & 9 9 9 3 3 w o j D ; O 7 0 & O O O O + p.D.D.D.D.D.D.D.D.D.D.D.D.D.D.D.D.",
"D.D.D.D.D.D.D.D.D.D.D.D.D.D.D.D.D.D.D.] 6 3 9 & O & 6 9 w w w 3 3 o j l n q.; 7 3 O O O O + J Z.D.D.D.D.D.D.D.D.D.D.D.D.D.D.D.D.",
"D.D.D.D.D.D.D.D.D.D.D.D.D.D.D.D.D.D.D.] C K C 3 O # 6 0 w w 4 3 8 k 1.1.z w.b $ O O O O O + p.D.D.D.D.D.D.D.D.D.D.D.D.D.D.D.D.D.",
"D.D.D.D.D.D.D.D.D.D.D.D.D.D.D.D.D.D.D.G Z v.) 3 + + $ 6 w w 3 3 w k 3.2.x w.b O O O O O O + p.D.D.D.D.D.D.D.D.D.D.D.D.D.D.D.D.D.",
"D.D.D.D.D.D.D.D.D.D.D.D.D.D.D.D.D.D.D.' Z v._ A e.m O 3 w 6 # 4 w k 3.2.c w.b O O O O O O + p.D.D.D.D.D.D.D.D.D.D.D.D.D.D.D.D.D.",
"D.D.D.D.D.D.D.D.D.D.D.D.D.D.D.D.D.D.D.] ) A.' ] A.V O 3 w 3 O # 4 k x x l w.b O + S = O O + p.D.D.D.D.D.D.D.D.D.D.D.D.D.D.D.D.D.",
"D.D.D.D.D.D.D.D.D.D.D.D.D.D.D.D.D.D.D.] ) D.g.M.D.i.m 3 w 3 * * 3 . h l q.D @ O + 7.y.- O + p.D.D.D.D.D.D.D.D.D.D.D.D.D.D.D.D.D.",
"D.D.D.D.D.D.D.D.D.D.D.D.D.D.D.D.D.D.D.[ _ D.D.D.D.D.B 4 0 3 # # 3 $ 2 = ; @ O O + r.S.y.- + p.D.D.D.D.D.D.D.D.D.D.D.D.D.D.D.D.D.",
"D.D.D.D.D.D.D.D.D.D.D.D.D.D.D.D.D.D.D.A.B.D.D.D.D.A.B # 6 3 * * 3 $ 7 $ O O O + + r.D.Z.- + p.D.D.D.D.D.D.S.D.D.D.D.D.D.D.D.D.D.",
"D.D.D.D.D.D.D.D.D.c.v.D.D.D.D.D.D.D.D.D.D.D.D.D.D.A.V + 3 3 3 3 3 & 7 $ O O + F - r.D.Z.- + p.S.D.D.D.D.D.n.c.n.D.D.D.D.D.D.D.D.",
"D.D.D.D.D.D.D.D.n.0.k.D.D.D.D.D.D.D.D.D.D.D.D.D.D.D.l.M 3 9 q 4 3 & 7 $ O F - L > r.D.A.- + p.D.D.D.D.D.D.j.0.c.S.D.D.D.D.D.D.D.",
"D.D.D.D.D.D.D.D.n.j.x.n.S.D.D.D.D.D.D.D.D.D.D.D.D.D.D.l.N 6 w 3 3 G p $ + r.l.Z.p.Z.D.Z.> L A.D.D.D.D.S.n.k.k.n.D.D.D.D.D.D.D.D.",
"D.D.D.D.D.D.D.D.D.D.n.9.k.D.D.D.D.D.D.D.D.D.D.D.D.D.D.S.V # 4 3 3 t.a & # r.S.D.D.D.D.Z.> p.D.D.D.D.D.c.0.n.S.D.D.D.D.D.D.D.D.D.",
"D.D.D.D.D.D.D.D.D.D.n.0.k.D.D.D.D.D.D.D.D.D.D.D.D.D.D.D.l.M 3 3 4 p i H - r.D.D.D.D.A.m % p.D.D.D.D.D.n.0.n.D.D.D.D.D.D.D.D.D.D.",
"D.D.D.D.D.D.D.D.D.D.D.S.D.D.D.D.D.D.D.D.D.D.D.D.D.D.D.D.A.V # # 3 0 9 t.> r.D.D.D.D.Z.- J S.D.D.D.D.D.D.S.D.D.D.D.D.D.D.D.D.D.D.",
"S.D.D.D.D.D.D.D.D.D.D.D.D.D.D.D.D.D.D.D.D.D.D.D.D.D.D.D.D.l.M + S u.a p { A.D.D.D.D.D.l.A.D.D.D.D.D.D.D.D.D.D.D.D.D.D.D.D.D.D.D.",
"0.0.D.D.D.D.D.D.D.D.D.D.D.D.D.D.D.D.D.D.D.D.D.D.D.D.D.D.D.D.l.i.V.D.g.s u.D.D.D.D.D.D.D.D.D.D.D.D.D.D.D.D.D.D.D.D.D.D.D.D.D.0.0.",
"9.0.D.D.D.D.D.D.D.D.D.D.D.D.D.D.D.D.D.D.D.D.D.D.D.D.D.D.D.D.D.D.D.A.( } A.D.D.D.D.D.D.D.D.D.D.D.D.D.D.D.D.D.D.D.D.D.D.D.D.D.0.9.",
"9.0.D.D.D.D.D.D.D.D.D.D.D.D.D.D.D.D.D.D.D.D.D.D.D.D.D.D.D.D.D.D.D.D.M.A.D.D.D.D.D.D.D.D.D.D.D.D.D.D.D.D.D.D.D.D.D.D.D.D.D.D.0.9.",
"9.0.D.D.D.D.D.D.D.D.D.D.D.D.D.D.D.D.D.D.D.D.D.D.D.D.D.D.D.D.D.D.D.D.D.D.D.D.D.D.D.D.D.D.D.D.D.D.D.D.D.D.D.D.D.D.D.D.D.D.D.S.0.9.",
"9.0.D.D.D.D.D.D.D.D.D.D.D.D.D.D.D.D.D.D.D.D.D.D.D.D.D.D.D.D.D.D.D.D.D.D.D.D.D.D.D.D.D.D.D.D.D.D.D.D.D.D.D.D.D.D.D.D.D.D.D.D.0.9.",
"9.9.S.D.D.D.D.D.D.D.D.D.D.D.D.D.D.D.D.D.D.D.D.D.D.D.D.D.D.D.D.D.D.D.D.D.D.D.D.D.D.D.D.D.D.D.D.D.D.D.D.D.D.D.D.D.D.D.D.D.D.D.0.9.",
"5.6.D.D.D.D.D.D.D.D.D.D.D.D.D.D.D.D.D.D.D.D.D.D.D.D.D.D.D.D.D.D.D.D.D.D.D.D.D.D.D.D.D.D.D.D.D.D.D.D.D.D.D.D.D.D.D.D.D.D.D.S.6.5."
};
