/* XPM */
static char *f37fd9ebc861430787c8815a53656d78tqJSrKVUYW5qzU7X[] = {
/* columns rows colors chars-per-pixel */
"64 64 173 2 ",
"   c #3F1D1E",
".  c #23261E",
"X  c #302F18",
"o  c #363718",
"O  c #180F20",
"+  c #200F20",
"@  c #251020",
"#  c #2C1121",
"$  c #241D22",
"%  c #331121",
"&  c #3B1221",
"*  c #2A2423",
"=  c #242B26",
"-  c #223922",
";  c #363225",
":  c #3A3626",
">  c #3E3B27",
",  c #332D3A",
"<  c #472B1C",
"1  c #56241E",
"2  c #5A221E",
"3  c #4A321D",
"4  c #441321",
"5  c #4C1422",
"6  c #541522",
"7  c #5D1622",
"8  c #631723",
"9  c #671A23",
"0  c #6D1823",
"q  c #5D2525",
"w  c #413E27",
"e  c #4D3C27",
"r  c #5C3627",
"t  c #522C3C",
"y  c #642223",
"u  c #6E2625",
"i  c #742C26",
"p  c #763027",
"a  c #783527",
"s  c #753A28",
"d  c #7B3D28",
"f  c #772D3B",
"g  c #134818",
"h  c #125D16",
"j  c #30431A",
"k  c #296C15",
"l  c #357415",
"z  c #344E2D",
"x  c #255622",
"c  c #34582C",
"v  c #394C35",
"b  c #226E21",
"n  c #317A2B",
"m  c #356230",
"M  c #424027",
"N  c #464528",
"B  c #5C462B",
"V  c #59572B",
"C  c #504A3B",
"Z  c #435E3B",
"A  c #674328",
"S  c #754629",
"D  c #7D4329",
"F  c #76592B",
"G  c #6C4A32",
"H  c #426C34",
"J  c #4B7E39",
"K  c #62652D",
"L  c #666A2E",
"P  c #696D2E",
"I  c #79632E",
"U  c #6F752F",
"Y  c #646631",
"T  c #767C30",
"R  c #787E31",
"E  c #3C3346",
"W  c #5A3141",
"Q  c #463D51",
"!  c #653344",
"~  c #50574B",
"^  c #766648",
"/  c #68636B",
"(  c #6F7F6A",
")  c #78747A",
"_  c #882A37",
"`  c #932C38",
"'  c #BB661D",
"]  c #814C2B",
"[  c #84542C",
"{  c #8A632E",
"}  c #8E6D2F",
"|  c #927630",
" . c #947B31",
".. c #B77422",
"X. c #C6761B",
"o. c #D0772D",
"O. c #A05D45",
"+. c #B55E48",
"@. c #BA634A",
"#. c #8A5B64",
"$. c #876A71",
"%. c #996B71",
"&. c #3E8634",
"*. c #448115",
"=. c #4B8112",
"-. c #549114",
";. c #79AF13",
":. c #60852E",
">. c #688B30",
",. c #7E8632",
"<. c #75A334",
"1. c #7AA534",
"2. c #4E8941",
"3. c #5D8B4D",
"4. c #7B8B40",
"5. c #8A8031",
"6. c #838B33",
"7. c #998537",
"8. c #9A8C33",
"9. c #8C9634",
"0. c #8E9935",
"q. c #9D9435",
"w. c #929935",
"e. c #BA9028",
"r. c #A19E36",
"t. c #A9943C",
"y. c #87AB36",
"u. c #8CAD37",
"i. c #96A237",
"p. c #90AF37",
"a. c #9EAB38",
"s. c #95B137",
"d. c #96B238",
"f. c #9CB438",
"g. c #BEA42A",
"h. c #A5A837",
"j. c #B5A330",
"k. c #B2AC34",
"l. c #A2B739",
"z. c #A9B138",
"x. c #A5B939",
"c. c #ADBC3A",
"v. c #B3B535",
"b. c #CC941F",
"n. c #C0A42A",
"m. c #BA9A45",
"M. c #B4A841",
"N. c #B1BB49",
"B. c #B2BB50",
"V. c #B6BB5C",
"C. c #A38A60",
"Z. c #A3AE63",
"A. c #B2AF73",
"S. c #B9B57C",
"D. c #DA9E4B",
"F. c #C5B049",
"G. c #B3C04A",
"H. c #BEC86A",
"J. c #8F8B90",
"K. c #98929D",
"L. c #BDB985",
"P. c #A39BA2",
"I. c #C3BC95",
"U. c #D1D18C",
"Y. c #D0D49D",
"T. c #E2C592",
"R. c #CEBEC0",
"E. c #CFC3C4",
"W. c #D6CDD0",
"Q. c #DCD3D5",
"!. c #F2E8DB",
"~. c #EBE7E7",
"^. c #EEECEC",
/* pixels */
"<.1.c.c.c.c.c.c.c.c.c.c.c.c.c.c.c.c.c.c.c.c.c.c.c.c.c.c.c.c.c.c.c.c.c.c.c.c.c.c.c.c.c.c.c.c.c.c.c.c.c.c.c.c.c.c.c.c.c.c.c.c.1.<.",
"1.1.c.c.c.c.c.c.c.c.c.c.c.c.c.c.c.c.c.c.c.c.c.c.c.c.c.c.c.c.c.c.c.c.c.c.c.c.c.c.c.c.c.c.c.c.c.c.c.c.c.c.c.c.c.c.c.c.c.c.c.c.1.1.",
"x.x.c.c.c.c.c.c.c.c.c.c.c.c.c.c.c.c.c.c.c.c.c.c.c.c.c.c.c.c.c.c.c.c.c.c.c.c.c.c.c.c.c.c.c.c.c.c.c.c.c.c.c.c.c.c.c.c.c.c.c.c.c.x.",
"c.c.c.c.c.c.c.c.c.c.c.c.c.c.c.c.c.c.c.c.c.c.c.c.c.c.c.c.c.c.c.c.c.c.c.c.c.c.c.c.c.c.c.c.c.c.c.c.c.c.c.c.c.c.c.c.c.c.c.c.c.c.c.c.",
"c.c.c.c.c.c.c.c.c.c.c.c.c.c.c.c.c.c.c.c.c.c.c.c.c.c.c.c.c.c.r.D D D D D ] D { v.c.c.c.c.c.c.c.c.c.c.c.c.c.c.c.c.c.c.c.c.c.c.c.c.",
"c.c.c.c.c.c.c.c.c.c.c.c.c.c.c.c.c.c.c.c.c.c.c.c.c.c.c.c.c.r.d 0 0 0 0 0 0 0 i { c.c.c.c.c.c.c.c.c.c.c.c.c.c.c.c.c.c.c.c.c.c.c.c.",
"c.c.c.c.c.c.x.f.c.c.c.c.c.c.c.c.c.c.c.c.c.c.c.c.c.c.c.c.r.d 0 0 0 0 7 & %   4 i { f.x.c.c.c.c.c.c.c.c.c.c.c.c.c.c.c.c.c.c.c.c.c.",
"c.c.c.c.c.c.d.1.p.c.c.c.c.c.c.c.c.c.c.c.c.c.c.c.c.c.c.h._ u 0 0 0 0 8 6 & O # 4 u F y.c.c.c.c.c.c.c.c.c.c.c.c.c.c.c.c.c.c.c.c.c.",
"c.c.c.c.c.c.d.1.p.x.c.c.c.c.c.c.c.c.c.c.c.c.c.c.c.c.r.d 0 0 0 0 0 0 0 0 8 4 O @ 5 u F c.c.c.c.c.c.c.c.c.c.c.c.c.c.c.c.c.c.c.c.c.",
"c.c.c.c.c.c.c.x.d.1.y.c.c.c.c.c.c.c.c.c.c.c.c.c.c.c.8.9 4 0 0 0 0 7 5 0 0 8 & # 7 0 d 1.y.x.c.c.c.c.c.c.c.c.c.c.c.c.c.c.c.c.c.c.",
"c.c.c.c.c.c.c.c.d.1.u.c.c.c.c.c.c.c.c.c.c.c.c.c.c.c.8.7 # 0 0 0 0 5 @ 5 0 7 # <  .[ d <.y.x.c.c.c.c.c.c.c.c.c.c.c.c.c.c.c.c.c.c.",
"c.c.c.c.c.c.c.c.c.x.c.c.c.c.c.c.c.c.c.c.c.c.c.c.c.c.8.7 @ 4 0 9 7 # O   7 % O w c. .D x.c.c.c.c.c.c.c.c.c.c.c.c.c.c.c.c.c.c.c.c.",
"c.c.c.c.c.c.c.c.c.c.c.c.c.c.c.c.c.c.c.c.c.c.c.c.c.c.8.7 O + & & # O O & 8 & O $ Y  .D c.c.c.v.c.c.c.c.c.c.c.c.c.c.c.c.c.c.c.c.c.",
"c.c.c.c.c.c.c.c.c.c.c.c.c.c.c.c.c.c.c.c.c.c.c.c.c.c.8.7 O O O O O O O & 0 8 & O >  .d c.c.c.c.c.c.c.c.c.c.c.c.c.c.c.c.c.c.c.c.c.",
"c.c.c.c.c.c.c.c.c.c.c.c.c.c.c.c.c.c.c.x.c.c.c.c.c.M.+.7 O O O O O O O & 0 0 6 O * V 7.c.c.c.c.c.c.c.c.c.c.c.c.c.c.c.c.c.c.c.c.c.",
"c.c.c.c.c.c.c.c.c.c.c.c.c.c.c.c.c.c.c.s.y.l.c.c.c.t._ % E P.J., P.) O @ 6 0 8 & O > c.c.c.c.c.c.c.c.c.c.c.s.u.f.c.c.c.c.c.c.c.c.",
"c.c.c.c.c.c.c.c.c.c.c.c.c.c.c.c.c.c.c.u.<.f.c.c.c.8.7 O , ) / , ) ~ O O @ 5 0 6 O * L c.c.c.c.c.c.c.c.c.c.y.<.s.c.c.c.c.c.c.c.c.",
"c.c.c.c.c.c.c.c.c.c.c.c.c.c.c.c.c.x.f.p.y.l.c.c.c.7.7 O O O O O O O O O O & 0 6 O O w c.c.c.c.c.c.c.c.l.f.p.y.f.x.c.c.c.c.c.c.c.",
"c.c.c.c.c.c.c.c.c.c.c.c.c.c.c.c.x.u.<.d.c.c.c.c.c.7.7 O O O O O O O O O O & 0 6 O O o c.c.c.c.c.c.c.c.p.1.f.c.c.c.c.c.c.c.c.c.c.",
"c.c.c.c.c.c.c.c.c.c.c.c.c.c.c.v.n.u.1.f.c.c.c.c.m.+.8 4 O O O O O O O O # 7 0 6 O O . L c.c.c.c.c.c.c.p.1.f.c.c.c.c.c.c.c.c.c.c.",
"c.c.c.c.c.c.c.c.c.c.c.c.c.c.c.z.e...c.c.c.c.c.c.m.+.0 7 O O O O O O O # 7 0 7 % O O O : c.c.c.c.c.c.c.c.x.c.c.c.c.c.c.c.c.c.c.c.",
"c.c.c.c.c.c.c.c.c.c.c.c.c.c.c.j.' e.c.c.c.c.c.w.G ` 0 0 4 O O O O O # 7 0 0 6 O @ 5 & * P c.c.c.c.c.c.c.c.c.c.c.c.c.c.c.c.c.c.c.",
"c.c.c.c.c.c.c.c.c.c.c.c.c.c.k.X.X.c.c.c.c.c.M.O.+ 5 0 0 8 4 O O O @ 7 0 0 7 % O & 0 8 5 A x.c.c.c.c.c.c.c.c.c.c.c.c.c.c.c.c.c.c.",
"c.c.c.c.c.c.c.c.c.c.c.c.c.c.j.o.T.g.c.c.c.M.@.` 4 + 5 0 0 8 O O # 7 0 0 8 % O @ 6 0 0 0 a } c.c.c.c.c.c.c.c.c.c.c.c.c.c.c.c.c.c.",
"c.c.c.c.c.c.c.c.c.c.c.c.c.c.k.D.!.b.N.c.w.G ` 0 8 4 + 5 0 7 + 4 4 0 0 0 5 O # 7 0 0 0 0 0 i | c.c.c.c.c.c.c.c.c.c.c.c.c.c.c.c.c.",
"c.c.c.c.c.c.c.c.c.c.c.c.c.c.v.F.U.g.c.i.w + 6 0 0 8 4 + 5 7 # 8 5 6 0 8 % @ 6 8 5 0 0 0 0 0 _ c.c.c.c.c.c.c.c.c.c.c.c.c.c.c.c.c.",
"c.c.c.c.c.c.c.c.c.c.c.c.c.c.c.v.c.v.a.z O O + 5 0 0 8 5 5 & # 0 5 & 8 % @ 7 0 6 # 6 0 0 0 0 i } c.c.c.c.c.c.c.c.c.c.c.c.c.c.c.c.",
"c.c.c.c.c.c.c.c.c.c.c.c.c.c.N.I.Y.A.B f 4 5 4 # 0 0 0 0 8 4 # 0 5 & 7 4 7 0 0 6 O % 0 0 0 0 0 d c.c.c.c.c.c.c.c.c.c.c.c.c.c.c.c.",
"c.c.c.c.c.c.c.c.c.c.c.c.c.c.V.R.~.E.$.` 0 0 7 5 5 0 0 0 0 7 # 0 5 4 0 0 0 0 0 7 & @ 4 4 4 6 0 D c.c.c.c.c.c.c.c.c.c.c.c.c.c.c.c.",
"c.c.c.c.c.c.c.c.c.c.c.c.c.c.V.R.^.~.R.! ! 0 0 7 % 0 0 0 0 8 6 0 5 & 0 0 0 0 0 8 & O O @ 4 5 5 i | c.c.c.c.c.c.c.c.c.c.c.c.c.c.c.",
"c.c.c.c.c.c.c.c.c.c.c.c.c.c.G.U.Q.W.K.E W 0 0 7 # 8 5 0 0 0 0 0 7 6 0 0 0 0 8 % @ 4 & @ 6 7 6 0 _ c.c.c.c.c.c.c.c.c.c.c.c.c.c.c.",
"c.c.c.c.c.c.c.c.c.c.c.c.c.c.c.B.L.A.W O @ 0 0 7 % 7 % 0 0 0 0 0 0 0 0 0 8 4 & + 6 0 7 &   0 0 u D c.c.c.c.c.c.c.c.c.c.c.c.c.c.c.",
"c.c.c.c.c.c.c.c.c.c.c.c.c.c.c.c.x.q.8 O # 0 0 7 # 7 @ 6 0 0 0 0 0 0 0 8 4 4 4 6 0 0 0 6   0 0 0 a c.c.c.c.c.c.c.c.c.c.c.c.c.c.c.",
"c.c.c.c.c.c.c.c.c.c.c.c.c.c.c.c.c.q.8 O % 0 0 8 5 9 & # 9 5 0 0 0 0 7 4 6 0 0 0 0 0 0 8 6 0 0 8 r v.c.c.c.c.c.c.c.c.c.c.c.c.c.c.",
"c.c.c.c.c.c.c.c.c.c.c.c.c.c.c.c.c.q.8 O % 0 8 6 0 9 & # 7 # 0 0 0 p #.$.%.#.t 7 0 0 0 0 0 0 8 & > c.c.c.c.c.c.c.c.c.c.c.c.c.c.c.",
"c.c.c.c.c.c.c.c.c.c.c.c.c.c.c.c.c.q.8 O # 0 7 % 0 7 O # 8 # 0 0 p 7.S.L.I.P.Q & 0 0 0 0 0 8 % O : c.c.c.c.c.c.c.c.c.c.c.c.c.c.c.",
"c.c.c.c.c.c.c.c.c.c.c.c.c.c.c.c.c.q.8 @ 6 0 7 % 0 7 @ 4 & # 0 9 ^ S.c.G.Z.( ~ % 0 0 0 0 8 & O O : c.c.c.c.c.c.c.c.c.c.c.c.c.c.c.",
"c.c.c.c.c.c.c.c.c.c.c.c.c.c.c.c.c.q.8 % 0 8 & # 0 7 % 7 + 5 0 8 Y C.c.H.4.c 2.% 0 0 0 8 & O O $ P c.c.c.c.c.c.c.c.c.c.c.c.c.c.c.",
"c.c.c.c.c.c.c.c.c.c.c.c.c.c.c.c.x.q.8   0 7 O % 0 8 5 8 4 5 5   X a I L C z J   0 0 0 7 O O O > c.c.c.c.c.c.c.c.c.c.c.c.c.c.c.c.",
"c.c.c.c.c.c.c.c.c.c.c.c.c.c.c.c.c.r.S @ 9 7 O @ 6 0 0 0 8 O 4 & < q 5 + = m z % 0 0 8 & O O O : c.c.c.c.c.c.c.c.c.c.c.c.c.c.c.c.",
"c.c.c.c.c.c.c.c.c.c.c.c.c.c.c.c.c.c.0.4 6 7 O O % 0 8 6 7 # 0 5 1 < X - H z O % 0 8 & O O O $ L c.c.c.c.c.c.c.c.c.c.c.c.c.c.c.c.",
"c.c.c.c.c.c.c.c.c.c.c.c.c.c.c.c.c.c.q.7 % 7 O O @ 5 4 # 8 # 8 # 9 2 X x z O @ 6 8 & O O O O w c.c.c.c.c.c.c.c.c.c.c.c.c.c.c.c.c.",
"c.c.c.c.c.c.c.c.c.c.c.c.c.c.c.c.c.c.q.6 % 8 % O O O + 5 8 5 7 # 9 y o x v O & 0 6 O O O O O > c.c.c.c.c.c.c.c.c.c.c.c.c.c.c.c.c.",
"c.c.c.c.c.c.c.c.c.c.c.c.c.c.c.c.v.c.q.u B S 7 O + & 5 0 0 0 7 @ y j h n 2.v % 8 4 O O O O $ L c.c.c.c.c.c.c.c.c.c.c.c.c.c.c.c.c.",
"c.c.c.c.c.c.c.c.c.c.c.c.c.c.c.c.c.c.q.s 1.5.y M # 6 0 0 0 9 5 5 3 k *.k &.3.#   O O O O O > c.c.c.c.c.c.c.c.c.c.c.c.c.c.c.c.c.c.",
"c.c.c.c.c.c.c.c.c.c.c.c.c.c.c.c.c.c.q.s 1.5.a ,.O + 6 0 0 8 @ 0 3 *.;.=.&.3.O O O O O O O > c.c.c.c.c.c.c.c.c.c.c.c.c.c.c.c.c.c.",
"c.c.c.c.c.c.c.c.c.c.c.c.c.c.c.c.c.c.q.D h.[ } 9.w O # 0 9 4 # 0 3 *.;.=.&.3.O O O O O O O > c.c.c.c.c.c.c.c.c.c.c.c.c.c.c.c.c.c.",
"c.c.c.c.c.c.c.c.c.c.c.c.c.c.c.c.c.z.{ | q.} c.c.6.O # 0 8 O @ 6 3 l -.l &.3.O O $ : O O O w c.c.c.c.c.c.c.c.c.c.c.c.c.c.c.c.c.c.",
"c.c.c.c.c.c.c.c.c.c.c.c.c.c.c.c.c.h.{ c.c.c.c.c.w.w # 0 7 + & # < g h b 2.Z O O w 6.: O O > c.c.c.c.c.c.c.c.c.c.c.c.c.c.c.c.c.c.",
"c.c.c.c.c.c.c.c.c.c.c.c.c.c.c.c.c.c.c.c.c.c.c.c.v.6.% 0 8 @ 4 @ 5 . : m H O O O w c.6.> O w c.c.c.c.c.c.c.c.c.c.c.c.c.c.c.c.c.c.",
"c.c.c.c.c.c.c.c.x.s.d.c.c.c.c.c.c.c.c.c.c.c.c.c.c.6.@ 6 7 O % # 5 & 5 O O O O O w c.c.R O w c.c.c.c.c.c.c.d.p.f.c.c.c.c.c.c.c.c.",
"c.c.c.c.c.c.c.c.f.1.u.c.c.c.c.c.c.c.c.c.c.c.c.c.c.6.O # 8 @ 8 # 5 4 5 O O O $ : w c.c.T O > c.c.c.c.c.c.c.u.<.s.c.c.c.c.c.c.c.c.",
"c.c.c.c.c.c.c.c.f.u.p.f.l.c.c.c.c.c.c.c.c.c.c.c.c.9.> # 8 4 7 # 5 & 5 O $ : w U w c.c.T O > c.c.c.c.c.l.f.p.y.f.c.c.c.c.c.c.c.c.",
"c.c.c.c.c.c.c.c.c.x.f.<.u.c.c.c.c.c.c.c.c.c.c.c.c.c.w.e 7 0 8 # q r 6 O M ,.Y ,.K c.c.T $ K c.c.c.c.c.s.<.f.c.c.c.c.c.c.c.c.c.c.",
"c.c.c.c.c.c.c.c.c.c.f.1.p.c.c.c.c.c.c.c.c.c.c.c.c.c.c.6.@ 7 7 # ] } 5 O N c.c.c.c.c.c.T w c.c.c.c.c.c.f.1.d.c.c.c.c.c.c.c.c.c.c.",
"c.c.c.c.c.c.c.c.c.c.c.x.c.c.c.c.c.c.c.c.c.c.c.c.c.c.c.9.> @ 8 @ d ] q ; N c.c.c.c.c.a.V > c.c.c.c.c.c.c.c.c.c.c.c.c.c.c.c.c.c.c.",
"x.x.c.c.c.c.c.c.c.c.c.c.c.c.c.c.c.c.c.c.c.c.c.c.c.c.c.c.6.@ 5 @ 7 0 ] U N c.c.c.c.c.R $ K c.c.c.c.c.c.c.c.c.c.c.c.c.c.c.c.c.x.c.",
"1.y.c.c.c.c.c.c.c.c.c.c.c.c.c.c.c.c.c.c.c.c.c.c.c.c.c.c.9.; O $ B a d F K c.c.c.c.c.6.K c.c.c.c.c.c.c.c.c.c.c.c.c.c.c.c.c.c.1.<.",
"<.1.c.c.c.c.c.c.c.c.c.c.c.c.c.c.c.c.c.c.c.c.c.c.c.c.c.c.c.9.w V c. .a ] c.c.c.c.c.c.c.c.c.c.c.c.c.c.c.c.c.c.c.c.c.c.c.c.c.c.1.<.",
"<.1.c.c.c.c.c.c.c.c.c.c.c.c.c.c.c.c.c.c.c.c.c.c.c.c.c.c.c.c.c.c.c.h.{ } c.c.c.c.c.c.c.c.c.c.c.c.c.c.c.c.c.c.c.c.c.c.c.c.c.c.1.<.",
"<.1.c.c.c.c.c.c.c.c.c.c.c.c.c.c.c.c.c.c.c.c.c.c.c.c.c.c.c.c.c.c.c.7.} c.c.c.c.c.c.c.c.c.c.c.c.c.c.c.c.c.c.c.c.c.c.c.c.c.c.c.<.<.",
"<.1.c.c.c.c.c.c.c.c.c.c.c.c.c.c.c.c.c.c.c.c.c.c.c.c.c.c.c.c.c.c.c.c.c.c.c.c.c.c.c.c.c.c.c.c.c.c.c.c.c.c.c.c.c.c.c.c.c.c.c.c.1.<.",
"<.1.c.c.c.c.c.c.c.c.c.c.c.c.c.c.c.c.c.c.c.c.c.c.c.c.c.c.c.c.c.c.c.c.c.c.c.c.c.c.c.c.c.c.c.c.c.c.c.c.c.c.c.c.c.c.c.c.c.c.c.x.1.<.",
":.>.x.c.c.c.c.c.c.c.c.c.c.c.c.c.c.c.c.c.c.c.c.c.c.c.c.c.c.c.c.c.c.c.c.c.c.c.c.c.c.c.c.c.c.c.c.c.c.c.c.c.c.c.c.c.c.c.c.c.c.c.>.:."
};
