/* XPM */
static char *_a8107b9e3a14989a21b1b9020f1eb7aJ4wfi6V3f4PGhYzR[] = {
/* columns rows colors chars-per-pixel */
"64 64 155 2 ",
"   c #1D131F",
".  c #20141F",
"X  c #193B17",
"o  c #1C3B14",
"O  c #293714",
"+  c #373A1B",
"@  c #190F20",
"#  c #1C1221",
"$  c #1F1D26",
"%  c #200F20",
"&  c #241121",
"*  c #2B1121",
"=  c #211A29",
"-  c #331121",
";  c #3D1321",
":  c #361A22",
">  c #272A25",
",  c #2F2A24",
"<  c #312B24",
"1  c #37282F",
"2  c #263127",
"3  c #363225",
"4  c #3A3626",
"5  c #3C3926",
"6  c #2C2331",
"7  c #2C2B30",
"8  c #342A37",
"9  c #3B343F",
"0  c #431321",
"q  c #4B1422",
"w  c #471D23",
"e  c #4C1A27",
"r  c #541522",
"t  c #5D1622",
"y  c #581B22",
"u  c #641722",
"i  c #681723",
"p  c #621B22",
"a  c #6D1823",
"s  c #661E28",
"d  c #6D1E28",
"f  c #701E28",
"g  c #482223",
"h  c #5E2520",
"j  c #533726",
"k  c #532E34",
"l  c #45383B",
"z  c #622021",
"x  c #6E2125",
"c  c #712225",
"v  c #742926",
"b  c #773327",
"n  c #793627",
"m  c #7B3C28",
"M  c #732D35",
"N  c #782E37",
"B  c #6D3234",
"V  c #184C16",
"C  c #165516",
"Z  c #245716",
"A  c #285A16",
"S  c #1B6617",
"D  c #236C16",
"F  c #274823",
"G  c #384528",
"H  c #345831",
"J  c #226D20",
"K  c #53542A",
"L  c #5D572B",
"P  c #5A5C2C",
"I  c #624E2A",
"U  c #7E442A",
"Y  c #5D6C2E",
"T  c #5C792E",
"R  c #63662D",
"E  c #656A2E",
"W  c #6A6E2F",
"Q  c #71762F",
"!  c #717630",
"~  c #767B30",
"^  c #7B7930",
"/  c #3E3842",
"(  c #4F4B53",
")  c #58485A",
"_  c #4E7242",
"`  c #517645",
"'  c #824D2B",
"]  c #85562C",
"[  c #875A2D",
"{  c #8B652E",
"}  c #8C692E",
"|  c #927630",
" . c #947A31",
".. c #579515",
"X. c #619211",
"o. c #7CB513",
"O. c #478C3B",
"+. c #57973F",
"@. c #58983F",
"#. c #60852E",
"$. c #688B30",
"%. c #778031",
"&. c #7C8332",
"*. c #75A334",
"=. c #7AA534",
"-. c #5B9A43",
";. c #68A753",
":. c #73B25B",
">. c #848C33",
",. c #978332",
"<. c #918E33",
"1. c #9B8E34",
"2. c #8A9334",
"3. c #9D9534",
"4. c #A19C35",
"5. c #87AB36",
"6. c #8BAD36",
"7. c #99A436",
"8. c #90AF37",
"9. c #9CA837",
"0. c #95B137",
"q. c #96B238",
"w. c #97B238",
"e. c #9AB338",
"r. c #9BB438",
"t. c #9CB438",
"y. c #9FB639",
"u. c #A4A637",
"i. c #A5A637",
"p. c #A5A837",
"a. c #A6AC38",
"s. c #A1B739",
"d. c #A4B639",
"f. c #A9B639",
"g. c #A4B839",
"h. c #A6B939",
"j. c #A8BA39",
"k. c #A9BA3A",
"l. c #AABB3A",
"z. c #ACBA3A",
"x. c #ACBC3A",
"c. c #ADBC3A",
"v. c #979398",
"b. c #AD9299",
"n. c #B1959A",
"m. c #AC9BA1",
"M. c #B79CA1",
"N. c #BAAAAD",
"B. c #C9B8BB",
"V. c #C6C3C5",
"C. c #CBC8CA",
"Z. c #D6CACB",
"A. c #DBDBD8",
"S. c #E9E5E4",
"D. c #E9E6E6",
/* pixels */
"*.=.x.x.c.c.c.c.c.c.c.c.c.c.c.c.c.c.c.c.c.c.c.c.c.c.c.c.c.c.c.c.c.c.c.c.c.c.c.c.c.c.c.c.c.c.c.c.c.c.c.c.c.c.c.c.c.c.c.c.c.z.=.*.",
"=.=.x.x.c.x.c.c.c.c.c.c.c.c.c.c.c.c.c.c.c.c.c.c.c.c.c.c.c.c.c.c.c.c.c.c.c.c.c.c.c.c.c.c.c.c.c.c.c.c.c.c.c.c.c.c.c.c.c.c.c.z.5.=.",
"l.z.x.x.x.x.x.x.c.c.c.c.c.c.c.c.c.c.c.c.c.c.c.c.c.c.c.c.c.c.c.c.c.c.c.c.c.c.c.c.c.c.x.x.c.c.c.c.c.c.c.c.c.c.c.c.c.c.c.c.x.x.j.j.",
"x.x.x.x.x.x.x.x.c.c.c.c.c.c.c.c.c.c.c.c.c.c.c.c.c.c.c.c.c.c.c.c.c.c.c.c.c.c.c.c.c.x.x.x.c.c.c.c.c.c.c.c.c.c.c.c.c.c.c.c.x.x.z.z.",
"x.x.c.c.c.c.x.x.c.c.c.c.c.c.c.c.c.c.c.c.c.c.c.c.c.c.c.c.c.c.z.z.c.c.c.z.c.c.c.c.x.x.x.x.c.c.c.c.c.c.c.c.c.c.c.c.c.c.c.c.x.x.c.c.",
"x.x.c.c.c.c.x.z.x.c.c.c.c.c.c.c.c.c.c.c.c.c.c.c.c.c.c.c.c.c.z.z.c.c.c.z.c.c.c.c.x.z.x.x.c.c.c.c.c.c.c.c.c.c.c.c.c.c.c.c.x.x.c.c.",
"x.c.c.c.c.x.l.s.l.z.c.c.c.c.c.c.c.c.c.c.c.c.c.c.c.c.c.c.c.z.z.z.c.c.f.z.c.c.c.c.j.t.j.c.c.c.x.x.c.c.c.c.c.c.c.c.c.c.c.c.c.c.c.c.",
"x.c.c.c.c.z.0.=.0.z.c.c.c.c.c.c.c.c.c.c.c.c.c.c.c.c.c.c.4.4.4.3.4.4.4.4.c.c.c.c.d.=.5.c.c.c.x.x.c.c.c.c.c.c.c.c.c.c.c.c.c.c.c.c.",
"c.c.c.c.x.l.e.=.6.l.l.x.x.x.x.x.c.c.c.c.c.c.c.c.x.x.x.1.v a a a a a a c 4.z.z.x.d.=.5.l.z.z.x.x.c.c.c.c.c.c.c.c.c.c.c.c.c.c.c.c.",
"c.c.c.c.x.x.z.z.0.=.6.x.x.x.x.x.c.c.c.c.c.c.c.c.x.x.4.v a a a a u u u u b 4.z.z.x.l.w.=.5.j.x.x.c.c.c.c.c.c.c.c.c.c.c.c.c.c.c.c.",
"c.c.c.c.x.x.c.z.e.=.5.z.c.c.c.c.c.c.c.c.c.c.c.c.x.i.m a a a a i - * @ % a ' 4.c.x.x.t.=.5.j.c.c.c.c.c.c.c.c.c.c.c.c.c.c.c.c.c.c.",
"c.c.x.x.x.x.c.c.l.l.l.z.c.c.c.c.c.c.c.c.c.c.c.c.u.' a a a a a a a u * @ . i [ x.x.x.z.l.z.x.c.c.c.c.c.c.c.c.c.c.c.c.c.c.c.c.c.c.",
"c.c.c.c.c.c.c.c.c.c.c.c.c.c.c.c.c.c.c.c.c.c.c.c.] i i a a a a t a a u * % q [ x.x.x.c.c.c.c.c.c.c.c.c.c.x.x.x.c.c.c.c.c.c.c.c.c.",
"c.c.c.c.c.c.c.c.c.c.c.c.c.c.c.c.c.x.c.c.c.c.c.c.] 0 r a a a i * t a a r . i [ x.x.x.c.c.c.c.c.c.c.c.c.c.x.x.x.x.c.c.c.c.c.c.c.c.",
"c.c.c.c.c.c.c.c.c.c.c.c.c.c.c.c.x.x.z.z.z.z.c.c.] ; 0 i a a q @ & a q @ = k [ x.x.c.c.c.c.c.c.c.c.c.c.c.x.l.x.x.c.c.c.c.c.c.c.c.",
"c.c.c.c.c.c.c.c.c.c.c.c.c.c.c.c.x.x.z.w.5.d.c.f.] ; % - - - @ @ & i r @ & e [ z.c.c.c.c.c.c.c.c.c.c.c.c.z.0.6.t.z.c.c.c.c.c.c.c.",
"c.c.c.c.c.c.c.c.c.c.c.c.c.c.c.c.c.x.z.6.=.t.x.x.] 0 @ @ @ @ @ @ % a a u @ q [ z.c.c.c.c.c.c.c.c.c.c.c.x.z.6.=.w.l.z.c.c.c.c.c.c.",
"c.c.c.c.c.c.c.c.c.c.c.c.c.c.c.c.z.h.t.8.5.t.x.} d ; # @ @ @ @ @ & a a i @ . L z.c.c.c.c.c.c.c.c.c.c.x.h.t.6.5.t.j.x.c.c.c.c.c.c.",
"c.c.c.c.c.c.c.c.c.c.c.c.c.c.c.c.l.6.=.w.z.x.x.[ q $ v.C.( V.V.6 % * a a r @ K z.c.c.c.c.c.c.c.c.x.x.x.8.*.w.z.x.x.x.x.c.c.c.c.c.",
"c.c.c.c.c.c.c.c.c.c.c.c.c.c.c.c.d.6.=.t.x.x.x.] ; @ 8 9 $ / / @ @ % . i t @ = R c.c.c.c.c.c.c.c.c.x.z.8.5.t.x.c.x.x.x.c.c.c.c.c.",
"c.c.c.c.c.c.c.c.c.c.c.c.c.c.c.c.x.x.z.c.c.c.c.[ ; @ @ @ @ @ @ @ @ @ % a t @ @ R c.c.c.c.c.c.c.c.c.c.c.z.z.z.c.c.c.c.c.c.c.c.c.c.",
"c.c.c.c.c.c.c.c.c.c.c.c.c.c.c.c.x.x.x.c.c.c.c.] ; # @ @ @ @ @ @ @ @ & a t @ @ R z.z.c.c.c.c.c.c.c.c.c.c.x.x.c.c.c.c.c.c.c.c.c.c.",
"c.c.c.c.c.c.c.c.c.c.c.c.c.c.c.c.c.c.c.c.c.c.[ a i 0 @ @ @ @ @ @ @ & a a t @ @ . R c.c.c.c.c.c.c.c.c.c.c.x.c.c.c.c.c.c.c.c.c.c.c.",
"c.c.c.c.c.c.c.c.c.c.c.c.c.c.c.c.c.c.c.c.c.c.[ a i ; @ @ @ @ @ @ & a a u @ @ @ % E z.c.c.c.c.c.c.c.c.c.c.x.c.c.c.c.c.c.c.c.c.c.c.",
"c.c.c.c.c.c.c.c.c.c.c.c.c.c.c.c.c.c.c.c.c.f.] a a a 0 @ @ @ @ & i a a u @ % ; a a | c.c.c.c.c.c.c.c.c.c.c.c.c.c.c.c.c.c.c.c.c.c.",
"c.c.c.c.c.c.c.c.c.c.c.c.c.c.c.c.c.c.c.c.a.I . 0 u a i * @ @ - i a a r @ @ q a a a [ i.c.c.c.c.c.c.c.c.c.c.c.c.c.c.c.c.c.c.c.c.c.",
"c.c.c.c.c.c.c.c.c.c.c.c.c.c.c.c.c.c.c.c.{ a r . ; u i * * . i a a u @ @ 0 a a a a a [ i.c.c.c.c.c.c.c.c.c.c.c.c.c.c.c.c.c.c.c.c.",
"c.c.c.c.c.c.c.c.c.c.c.c.c.c.c.c.c.c.c.p.' a a q & 0 u * t ; t a a r @ ; a u a a a a a ,.c.c.c.c.c.c.c.c.c.c.c.c.c.c.c.c.c.c.c.c.",
"c.c.c.c.c.c.c.c.c.c.c.c.c.c.c.c.c.c.c.} a a a a q - q * u u * i r @ ; a u 0 i a a a a { p.c.c.c.c.c.c.c.c.c.c.c.c.c.c.c.c.c.c.c.",
"c.c.c.c.c.c.c.c.c.c.c.c.c.c.c.c.c.c.i.' a a a a a a - % u i * u - ; a a t ; u a a a a a 1.c.c.c.c.c.c.c.c.c.c.c.c.c.c.c.c.c.c.c.",
"c.c.c.c.c.c.c.c.c.c.c.c.c.c.c.c.c.p.' a a i u a a t 0 ; i i * i a a a a t @ ; r t r u a 1.c.c.c.c.c.c.c.c.c.c.c.c.c.c.c.c.c.c.c.",
"c.c.c.c.c.c.c.c.c.c.c.c.c.c.c.c.c.| a a a q q i a r t i a u * i a a a a 0 @ @ @ . ; q u { p.c.c.c.c.c.c.c.c.c.c.c.c.c.c.c.c.c.c.",
"c.c.c.c.c.c.c.c.c.c.c.c.c.c.c.c.u.' a a a q 0 u u a a a a i q a a a i q @ % ; * ; u q u a 1.c.c.c.c.c.c.c.c.c.c.c.c.c.c.c.c.c.c.",
"c.c.c.c.c.c.c.c.c.c.c.c.c.c.c.c.| a a a a q 0 0 q a a a a a i a a a q %   r i q % r a a a 1.c.c.c.c.c.c.c.c.c.c.c.c.c.c.c.c.c.c.",
"c.c.c.c.c.c.c.c.c.c.c.c.c.c.c.c.| a a a a q 0 0 - t i a a a a a a q 0 0 r a a a ; q a a a 3.z.c.c.c.c.c.c.c.c.c.c.c.c.c.c.c.c.c.",
"c.c.c.c.c.c.c.c.c.c.c.c.c.c.c.c.| a a a a r u r . q t i a a d x r e d a a a a a r u a a r <.z.c.c.c.c.c.c.c.c.c.c.c.c.c.c.c.c.c.",
"c.c.c.c.c.c.c.c.c.c.c.c.c.c.c.c.| f a a r - - * * q ; u a a N n.m.M.b.) ; a a a a a a 0 & >.c.c.c.c.c.c.c.c.c.c.c.c.c.c.c.c.c.c.",
"c.c.c.c.c.c.c.c.c.c.c.c.c.c.c.c.p.} a r 0 u u ; % q ; u a M Z.S.S.S.N.) * a a a d i 0 @ # >.c.c.c.c.c.c.c.c.c.c.c.c.c.c.c.c.c.c.",
"c.c.c.c.c.c.c.c.c.c.c.c.c.c.c.c.x.| r 0 q & . % q 0 % u a G B.S.S.A.H -.- a a a i 0 # @ # >.c.c.c.c.c.c.c.c.c.c.c.c.c.c.c.c.c.c.",
"c.c.c.c.c.c.c.c.c.c.c.c.c.c.c.c.x.| i q % 0 i u u ; q i p F N.B.B.N.> -.* a a a q @ @ @ ! f.c.c.c.c.c.c.c.c.c.c.c.c.c.c.c.c.c.c.",
"c.c.c.c.c.c.c.c.c.c.c.c.c.c.c.c.x.| y . 0 i a 0 q 0 q -   o B M 8 6 2 @.* a a a ; @ @ @ >.c.c.c.c.c.c.c.c.c.c.c.c.c.c.c.c.c.c.c.",
"c.c.c.c.c.c.c.c.c.c.c.c.c.c.c.c.x.f.P 0 i a a 0 @ @ q * % p O z   > @.# * a a 0 @ @ @ # >.x.c.c.c.c.c.c.c.c.c.c.c.c.c.c.c.c.c.c.",
"c.c.c.c.c.c.c.c.c.c.c.c.c.c.c.c.x.Q 0 a a a a 0 % @ q * % i u o V @.@ @ - a ; @ @ @ @ %.x.x.c.x.c.c.c.c.c.c.c.c.c.c.c.c.c.c.c.c.",
"c.c.c.c.c.c.c.c.c.c.c.c.c.c.c.c.c.~ w i a a a a 0 @ q * % i a z o = @ % a 0 @ @ @ @ @ %.c.x.c.x.c.c.c.c.c.c.c.c.c.c.c.c.c.c.c.c.",
"c.c.c.c.c.c.c.c.c.c.c.c.c.c.c.c.x.x.~ g i a ; q 0 % % t - u h C S ;.2 & a 0 @ @ @ @ $ T 5.g.x.x.c.c.c.c.c.c.c.c.c.c.c.c.c.c.c.c.",
"c.c.c.c.c.c.c.c.c.c.c.c.c.c.c.c.x.x.x.Y g q   q a 0 % t - s C D S D :.& r @ @ @ @ @ Y =.5.g.x.x.c.c.c.c.c.c.c.c.c.c.c.c.c.c.c.c.",
"c.c.c.c.c.c.c.c.c.c.c.c.c.c.c.c.c.c.x.z.{ a 0 q a 0 % q # a A o.X.J :.# @ @ @ @ @ @ W k.l.x.x.x.c.c.c.c.c.c.c.c.c.c.c.c.c.c.c.c.",
"c.c.c.c.c.c.c.c.c.c.c.c.c.c.c.c.c.c.x.z.} i 0 q a 0 . % @ z A o.X.J :.# @ @ @ @ @ @ W k.x.x.x.x.c.c.c.c.c.c.c.c.c.c.c.c.c.c.c.c.",
"c.c.c.c.c.c.c.c.c.c.x.c.c.c.c.c.c.c.c.c.,.m ; q a 0 ; % % p Z ....J :.@ @ , 3 @ @ @ W c.c.c.c.c.c.c.c.c.c.k.c.k.c.c.c.c.c.c.c.c.",
"c.c.c.c.c.c.c.c.x.x.z.x.c.c.c.c.c.c.c.c.x.,.j ; t ; * % % p o C C O.` @ # ~ P @ @ 3 >.c.c.c.c.c.c.c.c.c.c.c.c.c.c.c.c.c.c.c.c.c.",
"c.c.c.c.c.c.x.z.d.0.0.x.c.c.c.c.c.c.c.c.x.x.P @ q ; q * @ u & + V _ @ @ , 2.5 @ @ W c.c.c.c.c.c.c.c.c.c.k.t.6.y.c.c.c.c.c.c.c.c.",
"c.c.c.c.x.x.x.x.w.=.6.z.c.c.c.c.c.c.c.c.x.x.&.3 q r t * # u * u @ @ @ # , &.5 @ 4 2.c.c.c.c.c.c.c.c.c.c.c.5.=.q.c.k.c.c.c.c.c.c.",
"c.c.c.c.c.c.c.x.t.6.6.t.h.x.c.c.c.c.c.c.c.c.c.&.j t i * % u * u @ # @ @ < z.P @ R c.k.c.c.c.c.c.c.c.c.d.t.8.5.y.c.c.c.c.c.c.c.c.",
"c.c.c.c.c.c.c.c.x.x.w.=.6.x.c.c.c.c.c.c.c.c.c.c.K - t & % u & u @ # 6 # ! >.3 5 2.c.c.c.c.c.c.c.c.c.k.8.*.e.k.c.k.c.c.c.c.c.c.c.",
"c.c.c.c.c.c.c.c.x.x.t.=.6.c.c.c.c.c.c.c.c.c.c.c.&.4 q * % u 1 u @ # 7 ! 7.3 3 2.c.c.c.c.c.c.c.c.c.c.c.6.=.s.c.c.c.c.c.c.c.c.c.c.",
"c.c.c.c.c.c.c.c.x.x.z.z.x.c.c.c.c.c.c.c.c.c.c.c.z.K - . % p l p = $ ~ z.&.5 2.c.c.c.c.c.c.c.c.c.c.c.c.c.c.k.k.c.c.c.c.c.c.c.c.c.",
"l.j.x.x.c.c.c.c.x.c.c.c.c.c.c.c.c.c.c.c.c.c.c.c.l.3.K . & u s c ^ = x.7.< P z.x.c.c.c.c.c.c.c.c.c.c.c.c.c.c.c.c.c.c.c.c.c.c.k.k.",
"=.6.z.x.c.c.c.c.c.c.c.c.c.c.c.c.c.c.c.c.c.c.c.c.l.x.2.>., : c c ,.< z.f.2.9.x.x.c.c.c.c.c.c.c.c.c.c.c.c.c.c.c.c.c.c.c.c.c.c.=.=.",
"*.=.z.x.c.c.c.c.c.c.c.c.c.c.c.c.c.c.c.c.c.c.c.c.l.x.x.z.9.7.3.v n 7.l.x.c.c.x.x.c.c.c.c.c.c.c.c.c.c.c.c.c.c.c.c.c.c.c.c.x.k.=.=.",
"*.=.l.c.c.c.c.c.c.c.c.c.c.c.c.c.c.c.c.c.c.c.c.c.x.x.x.x.x.z.z.,.n l.z.z.c.c.c.c.c.c.c.c.c.c.c.c.c.c.c.c.c.c.c.c.c.c.c.c.x.k.=.*.",
"*.=.l.l.c.c.c.c.c.c.c.c.c.c.c.c.c.c.c.c.c.c.c.c.x.c.c.c.c.c.i.m i.c.c.c.c.c.c.c.c.c.c.c.c.c.c.c.c.c.c.c.c.c.c.c.c.c.c.c.x.c.=.*.",
"*.=.l.z.c.c.c.c.c.c.c.c.c.c.c.c.c.c.c.c.c.c.c.c.c.c.c.c.c.c.z.a.z.c.c.c.c.c.c.c.c.c.c.c.c.c.c.c.c.c.c.c.c.c.c.c.c.c.c.c.x.c.=.*.",
"*.=.l.x.c.c.c.c.c.c.c.c.c.c.c.c.c.c.c.c.c.c.c.c.c.c.c.c.c.c.c.c.z.z.c.c.c.c.c.c.c.c.c.c.c.c.c.c.c.c.c.c.c.c.c.c.c.c.k.c.c.k.=.*.",
"#.$.l.x.c.c.c.c.c.c.c.c.c.c.c.c.c.c.c.c.c.c.c.c.c.c.c.c.c.c.c.c.c.c.c.c.c.c.c.c.c.c.c.c.c.c.c.c.c.c.c.c.c.c.c.c.c.c.c.c.c.k.$.#."
};
