/* XPM */
static char *_c8a81a0fe934a55ced96866830476734pAoHJnUK8rAbdnr[] = {
/* columns rows colors chars-per-pixel */
"64 64 168 2 ",
"   c #1F1A1F",
".  c #34181F",
"X  c #183D16",
"o  c #3C2F18",
"O  c #2B3515",
"+  c #383619",
"@  c #190F20",
"#  c #1B1220",
"$  c #210F20",
"%  c #251020",
"&  c #2B1121",
"*  c #241A22",
"=  c #2B1921",
"-  c #201829",
";  c #331221",
":  c #3D1321",
">  c #331925",
",  c #391822",
"<  c #2A2824",
"1  c #332E24",
"2  c #213122",
"3  c #2F3A2E",
"4  c #353125",
"5  c #3A3626",
"6  c #3D3A27",
"7  c #46241C",
"8  c #57231E",
"9  c #44361C",
"0  c #441321",
"q  c #4C1422",
"w  c #481C26",
"e  c #531522",
"r  c #5D1622",
"t  c #511C20",
"y  c #631723",
"u  c #691723",
"i  c #651B23",
"p  c #6C1923",
"a  c #621D29",
"s  c #6D1E2A",
"d  c #701F24",
"f  c #711F2B",
"g  c #432523",
"h  c #473E27",
"j  c #423B28",
"k  c #642121",
"l  c #6C2125",
"z  c #712425",
"x  c #742A25",
"c  c #772B28",
"v  c #773227",
"b  c #783227",
"n  c #7B353C",
"m  c #115B16",
"M  c #195C15",
"N  c #234B1E",
"B  c #2C6C15",
"V  c #2F7114",
"C  c #31472C",
"Z  c #334B2D",
"A  c #354433",
"S  c #345930",
"D  c #2E6125",
"F  c #2A7426",
"G  c #3D742E",
"H  c #457D13",
"J  c #4B4829",
"K  c #53542B",
"L  c #56582B",
"P  c #5A5B2C",
"I  c #554438",
"U  c #704529",
"Y  c #7E4329",
"T  c #73552B",
"R  c #7A522B",
"E  c #416733",
"W  c #446F35",
"Q  c #48753A",
"!  c #5B7335",
"~  c #61642D",
"^  c #65692D",
"/  c #696D2E",
"(  c #716332",
")  c #777E30",
"_  c #3C3444",
"`  c #3C3944",
"'  c #4E4952",
"]  c #514C55",
"[  c #5F525B",
"{  c #4E7143",
"}  c #594F66",
"|  c #6C6377",
" . c #766A75",
".. c #862732",
"X. c #83542B",
"o. c #86592C",
"O. c #885D2D",
"+. c #84652E",
"@. c #8C672E",
"#. c #8D6B2E",
"$. c #917630",
"%. c #937A31",
"&. c #9F3E49",
"*. c #854D46",
"=. c #AB414D",
"-. c #CD6356",
";. c #3F8115",
":. c #388030",
">. c #509114",
",. c #7EB713",
"<. c #60852E",
"1. c #688B30",
"2. c #7D8331",
"3. c #778C31",
"4. c #779132",
"5. c #75A334",
"6. c #7AA535",
"7. c #518943",
"8. c #4E9540",
"9. c #848C33",
"0. c #968232",
"q. c #998A33",
"w. c #889534",
"e. c #9D9334",
"r. c #929D35",
"t. c #9D9D35",
"y. c #A19D36",
"u. c #87AB36",
"i. c #8CAD37",
"p. c #95A036",
"a. c #9AA537",
"s. c #90AF37",
"d. c #9CA937",
"f. c #9FAC38",
"g. c #95B137",
"h. c #96B238",
"j. c #9BB438",
"k. c #A3A437",
"l. c #A4AE38",
"z. c #A3B539",
"x. c #A8B339",
"c. c #A5B939",
"v. c #A9BA3A",
"b. c #AABB3A",
"n. c #ABBB3A",
"m. c #ACBB3A",
"M. c #AEBA3B",
"N. c #ACBC3A",
"B. c #ADBC3A",
"V. c #A2964D",
"C. c #B1BB4A",
"Z. c #B5BB57",
"A. c #B5B578",
"S. c #8C848B",
"D. c #938693",
"F. c #A49499",
"G. c #B39498",
"H. c #A9A5A9",
"J. c #B4B1B5",
"K. c #C7B89E",
"L. c #C5B9A4",
"P. c #C6B9AC",
"I. c #C8B8B7",
"U. c #C9C6C8",
"Y. c #D4C4C1",
"T. c #E5E0DC",
"R. c #E8E2E2",
"E. c #ECEAEA",
/* pixels */
"5.6.N.N.B.B.B.B.B.B.B.B.B.B.B.B.B.B.B.B.B.B.B.B.B.B.B.B.B.B.B.B.B.B.B.B.B.B.B.B.B.B.B.B.B.B.B.B.B.B.B.B.B.B.B.B.B.B.B.B.B.m.6.6.",
"6.6.N.N.B.B.B.B.B.B.B.B.B.B.B.B.B.B.B.B.B.B.B.B.B.B.B.B.B.B.B.B.B.B.B.B.B.B.B.B.B.B.B.B.B.B.B.B.B.B.B.B.B.B.B.B.B.B.B.B.B.m.6.6.",
"v.m.N.N.B.B.B.N.B.B.B.B.B.B.B.B.B.B.B.B.B.B.B.B.B.B.B.B.B.B.B.B.B.B.B.B.B.B.B.B.B.B.N.N.B.B.B.B.B.B.B.B.B.B.B.B.B.B.B.B.N.N.v.v.",
"N.N.N.N.B.B.B.N.B.B.B.B.B.B.B.B.B.B.B.B.B.B.B.B.B.B.B.B.B.B.B.B.B.B.B.B.B.B.B.B.B.B.B.N.B.B.B.B.B.B.B.B.B.B.B.B.B.B.B.B.N.N.N.m.",
"N.N.B.B.B.B.N.N.B.B.B.B.B.B.B.B.B.B.B.B.B.B.B.B.B.B.B.B.B.B.B.y.y.k.y.y.y.y.k.M.N.N.N.N.B.B.B.B.B.B.B.B.B.B.B.B.B.B.B.B.N.B.B.B.",
"N.N.B.B.B.B.N.N.N.B.B.B.B.B.B.B.B.B.B.B.B.B.B.B.B.B.B.B.B.B.0.d p p p p d d O.k.m.m.N.N.B.B.B.B.B.B.B.B.B.B.B.B.B.B.B.B.B.B.B.B.",
"N.N.B.B.B.N.v.j.v.m.B.B.B.B.B.B.B.B.B.B.B.B.B.B.B.B.B.B.B.0.d p p p p y y y p o.k.j.c.B.B.B.N.B.B.B.B.B.B.B.B.B.B.B.B.B.B.B.B.B.",
"N.N.B.B.B.m.g.6.s.m.B.B.B.B.B.B.B.B.B.B.B.B.B.B.B.B.B.B.0.d p p p p y % % @ 0 u o.4.u.B.B.B.N.N.B.B.B.B.B.B.B.B.B.B.B.B.B.B.B.B.",
"B.B.B.B.N.m.h.6.s.v.v.N.N.B.B.B.B.B.B.B.B.B.B.B.m.m.m.0.d p p p p p p p q $ @ 0 u T w.x.m.m.N.N.B.B.B.B.B.B.B.B.B.B.B.B.B.B.B.B.",
"B.B.B.B.N.N.N.c.g.6.i.N.N.N.B.B.B.B.B.B.B.B.B.B.m.m.y.d y p p p p p y p u q $ @ e p +.6.u.c.N.N.B.B.B.B.B.B.B.B.B.B.B.B.B.B.B.B.",
"B.B.B.B.N.B.B.m.h.6.i.N.B.B.B.B.B.B.B.B.B.B.B.B.m.B.y.i & u u p p r & u p u : t x z +.6.u.v.B.B.B.B.B.B.B.B.B.B.B.B.B.B.B.B.B.B.",
"B.B.B.B.B.B.B.B.v.v.v.m.B.B.B.B.B.B.B.B.B.B.B.B.B.B.y.u & y p u p e @ 0 u : @ P m.o.@.v.m.N.B.B.B.B.B.B.B.B.B.N.B.B.B.B.B.B.B.B.",
"B.B.B.B.B.B.B.B.B.B.B.B.B.B.B.B.N.N.B.B.B.B.B.B.B.B.y.p @ $ y y e @ @ : q $ @ J p.o.#.N.N.N.B.B.B.B.B.B.N.N.N.N.B.B.B.B.B.B.B.B.",
"B.B.B.B.B.B.B.B.B.B.B.B.B.B.B.B.N.N.B.B.B.B.B.B.B.B.a.p @ @ @ @ @ @ @ 0 p q $ @ ~ o.#.N.N.N.B.B.B.B.B.B.N.N.N.N.B.B.B.B.B.B.B.B.",
"B.B.B.B.B.B.B.B.B.B.B.B.B.B.B.B.N.N.N.v.m.N.N.N.m.m.%.p   @ @ @ @ @ @ q p u q @ K R %.N.N.B.B.B.B.B.B.B.N.v.m.m.B.B.B.B.B.B.B.B.",
"B.B.B.B.B.B.B.B.B.B.B.B.B.B.B.B.N.N.N.g.u.z.B.B.B.y.z e $ ] ] @ ] ' @ . y p q $ @ ^ v.N.B.B.B.B.B.B.B.B.m.g.i.j.m.B.B.B.B.B.B.B.",
"B.B.B.B.B.B.B.B.B.B.B.B.B.B.B.B.B.N.m.i.5.j.N.N.M.y.i @ _ U.J._ U.H.@ @ 0 y p 0 @ K r.B.B.B.B.B.B.B.B.N.m.i.5.h.m.m.B.B.B.B.B.B.",
"B.B.B.B.B.B.B.B.B.B.B.B.B.B.B.B.m.v.j.s.u.z.N.N.m.y.l   @ @ @ @ @ @ @ @ @ q p 0 @ @ ~ B.B.B.B.B.B.B.N.c.j.i.u.j.v.m.B.B.B.B.B.B.",
"B.B.B.B.B.B.B.B.B.B.B.B.B.B.B.B.c.i.6.g.m.N.N.N.N.k.i $ @ @ @ @ @ @ @ @ @ 0 p 0 @ @ ~ M.B.B.B.B.N.N.N.s.5.h.m.m.N.N.N.B.B.B.B.B.",
"B.B.B.B.B.B.B.B.B.B.B.B.B.B.B.B.c.i.6.j.N.N.N.N.m.y.i : @ @ @ @ @ @ @ @ & e u 0 @ @ J w.B.B.B.B.B.N.m.s.u.j.N.B.N.N.B.B.B.B.B.B.",
"B.B.B.B.B.B.B.B.B.B.B.B.B.B.B.B.N.m.m.N.N.B.B.B.x.Y p y $ @ @ @ @ @ @ ; u p e & @ @ @ ~ N.M.m.B.B.B.B.m.m.m.B.B.B.B.B.B.B.B.B.B.",
"B.B.B.B.B.B.B.B.B.B.B.B.B.B.B.B.N.N.N.B.B.B.B.B.y.d p p e @ @ @ @ @ $ y u u 0 @ . r ; o 9.B.N.N.B.B.B.B.N.m.B.B.B.B.B.B.B.B.B.B.",
"B.B.B.B.B.B.B.B.B.B.B.B.B.B.B.B.N.N.B.B.B.B.B.x.j ; u u u r @ @ @ & u u p e @ @ q p y y #.B.B.B.B.B.B.B.N.B.B.B.B.B.B.B.B.B.B.B.",
"B.B.B.B.B.B.B.B.B.B.B.B.B.B.B.B.B.B.B.B.B.N.x.J &.& ; u u u @ @ $ u u p q @ @ 0 p p p p z %.B.B.B.B.B.B.N.N.B.B.B.B.B.B.B.B.B.B.",
"B.B.B.B.B.B.B.B.B.B.B.B.B.B.B.B.B.B.B.B.v.v.j =...r $ ; u u $ r & u p u 0 @ 0 u p u p p p z q.B.B.B.B.B.B.B.B.B.B.B.B.B.B.B.B.B.",
"B.B.B.B.B.B.B.B.B.B.B.B.B.B.B.B.B.B.B.B.C.6 $ f p u r $ ; r % u r : p e @ 0 u q e u p p p d q.M.B.B.B.B.B.B.B.B.B.B.B.B.B.B.B.B.",
"B.B.B.B.B.B.B.B.B.B.B.B.B.B.B.B.B.B.B.M.-.> @ & y p p y y % % p y & y $ 0 u p 0 $ q p p p p z y.B.B.B.B.B.B.B.B.B.B.B.B.B.B.B.B.",
"B.B.B.B.B.B.B.B.B.B.B.B.B.B.B.B.C.B.M.-...u y $ & u p p p r & u y & u y u p p 0 @ q u p p p d y.B.B.B.B.B.B.B.B.B.B.B.B.B.B.B.B.",
"B.B.B.B.B.B.B.B.B.B.B.B.B.B.B.K.T.Y.Z.c p p p u . y p p p p u & y ; p p p u p p . $ @ @ % q d y.m.B.B.B.B.B.B.B.B.B.B.B.B.B.B.B.",
"B.B.B.B.B.B.B.B.B.B.B.B.B.B.B.K.T.E.Y.n p d p u ; u p u p p p p y ; p p p p p 0 @ @ @ q u 0 r z y.B.B.B.B.B.B.B.B.B.B.B.B.B.B.B.",
"B.B.B.B.B.B.B.B.B.B.B.B.B.B.B.K.R.E.E.| } f p p & y p u p p p p u u p p p p 0 @ q p 0 $ q p p d y.B.B.B.B.B.B.B.B.B.B.B.B.B.B.B.",
"B.B.B.B.B.B.B.B.B.B.B.B.B.B.B.B.L.I. .- @ y p u ; y & u p p p p p p p p 0 @ @ q p p p 0 q p p d y.B.B.B.B.B.B.B.B.B.B.B.B.B.B.B.",
"B.B.B.B.B.B.B.B.B.B.B.B.B.B.B.B.m.m.v % @ y p p u u & u p p p p p p p q q p p p p p p q e u p d y.N.N.N.B.B.B.B.B.B.B.B.B.B.B.B.",
"B.B.B.B.B.B.B.B.B.B.B.B.B.B.B.B.N.m.v % @ y p u u u u & y & p p p p a w f s p p p p p p p p u & r.m.N.N.B.B.B.B.B.B.B.B.B.B.B.B.",
"B.B.B.B.B.B.B.B.B.B.B.B.B.B.B.B.N.N.b & @ y p & u u @ % y % u p p *.L.P.I.D._ 0 p p p p p u & @ r.B.N.N.B.B.B.B.B.B.B.B.B.B.B.B.",
"B.B.B.B.B.B.B.B.B.B.B.B.B.B.B.B.B.B.z $ @ y u % y y @ & r & p u x m.M.m.A.S.` 0 p p p u u 0 @ @ r.B.B.B.B.B.B.B.B.B.B.B.B.B.B.B.",
"B.B.B.B.B.B.B.B.B.B.B.B.B.B.B.B.B.B.b % & y p & r y & y @ : u i N V.C.Z.! G E 0 p u p u > @ # 4 a.m.B.B.B.B.B.B.B.B.B.B.B.B.B.B.",
"B.B.B.B.B.B.B.B.B.B.B.B.B.B.B.B.B.B.b % y p r % y y . u : r r e X n G.F.[ E E 0 p u p 0 * @ # r.N.N.B.B.B.B.B.B.B.B.B.B.B.B.B.B.",
"B.B.B.B.B.B.B.B.B.B.B.B.B.B.B.B.N.m.b % y p % @ e u p p u @ ; . o 8 y @ < W Z 0 p p r ; @ @ # p.N.B.B.B.B.B.B.B.B.B.B.B.B.B.B.B.",
"B.B.B.B.B.B.B.B.B.B.B.B.B.B.B.B.N.m.X.= y p % @ % u p e y & u r k o g 2 W Z @ 0 u y ; @ @ @ 6 d.B.B.B.B.B.B.B.B.B.B.B.B.B.B.B.B.",
"B.B.B.B.B.B.B.B.B.B.B.B.B.B.B.B.N.N.m.7 e p $ @ $ e q & y & y % p k O D C @ & e y ; @ @ @ # w.N.B.B.B.B.B.B.B.B.B.B.B.B.B.B.B.B.",
"B.B.B.B.B.B.B.B.B.B.B.B.B.B.B.B.B.B.m.x $ y $ @ @ @ @ . y : y % p p 9 N 3 # 0 p 0 @ @ @ @ # 9.N.B.B.B.B.B.B.B.B.B.B.B.B.B.B.B.B.",
"B.B.B.B.B.B.B.B.B.B.B.B.B.B.B.B.B.B.B.x % y 0   @ > 0 p p p u & i 9 m G Q 3 q y & @ @ @ @ 4 p.N.B.B.B.B.B.B.B.B.B.B.B.B.B.B.B.B.",
"B.B.B.B.B.B.B.B.B.B.B.B.B.B.B.B.B.B.B.x h U p j = e u p p p q 0 k m ;.V 8.{ ; ; @ @ @ @ # / N.N.B.B.B.B.B.B.B.B.B.B.B.B.B.B.B.B.",
"B.B.B.B.B.B.B.B.B.B.B.B.B.B.B.B.B.B.M.x 3.h.x t.< $ q p p y $ p k V ,.V 8.Q @ @ @ @ @ @ @ ^ N.N.B.B.B.B.B.B.B.B.B.B.B.B.B.B.B.B.",
"B.B.B.B.B.B.B.B.B.B.B.B.B.B.B.B.B.N.N.z T l.x a.L # % p p 0 & p i B ,.>.8.{ @ @ @ @ @ @ @ ^ N.N.B.B.B.B.B.B.B.B.B.B.B.B.B.B.B.B.",
"B.B.B.B.B.B.B.B.B.B.B.B.B.B.B.B.B.%.k.z X.@.@.x.r.* % u y $ $ q k M >.V 8.{ @ @ 1 1 @ @ @ ^ N.N.B.B.B.B.B.B.B.B.B.B.B.B.B.B.B.B.",
"B.B.B.B.B.B.B.B.B.B.B.B.B.B.B.B.B.#.@.o.l.@.x.M.l.K & u y $ : & i N m F 7.A @ @ ~ ) 4 @ @ ^ N.N.B.B.B.B.B.B.B.B.B.B.B.B.B.B.B.B.",
"B.B.B.B.B.B.B.B.B.B.N.N.B.B.B.B.B.B.%.x.M.N.B.B.B.r.= p y % 0 $ i   + S A @ @ @ ~ B.) 5   ^ B.B.B.B.B.B.N.N.B.N.N.B.B.B.B.B.B.B.",
"B.B.B.B.B.B.B.B.N.N.m.B.B.B.B.B.B.B.m.B.B.B.B.B.B.r.= q y $ : & y & r @ @ @ @ @ ~ B.N.K # / B.B.B.B.B.B.N.N.m.N.B.B.B.B.B.B.B.B.",
"B.B.B.B.B.B.N.N.z.g.h.B.B.B.B.B.B.B.B.B.B.B.B.B.N.r.# % y & y $ y & r @ @   6 j ~ B.M.P @ ^ B.B.B.B.B.B.N.h.s.j.m.N.N.B.B.B.B.B.",
"B.B.B.B.N.N.N.N.h.6.u.B.B.B.B.B.B.B.B.B.B.B.B.B.N.l.^ = y e y & y . r @ 5 6 P P ^ B.M.K   ^ B.B.B.B.B.N.m.u.6.g.m.N.B.B.B.B.B.B.",
"B.B.B.B.B.B.B.N.j.u.i.j.z.N.N.N.B.B.B.B.B.B.B.B.N.N.x.9.: u y $ l ( y   P a.d.a.d.B.B.P K d.N.B.B.B.N.z.j.s.i.j.m.B.B.B.B.B.B.B.",
"B.B.B.B.B.B.B.B.N.v.j.5.i.N.B.B.B.B.B.B.B.B.B.B.N.N.N.r.* ; y & p I r   P B.m.m.M.N.x.K / N.B.B.B.B.m.s.5.j.m.m.N.B.B.B.B.B.B.B.",
"B.B.B.B.B.B.B.B.N.B.j.6.g.B.B.B.B.B.B.B.B.B.B.B.B.B.B.x.9.= r % i p z P P B.N.N.m.m.~ < / N.B.B.B.B.B.s.6.j.N.N.N.N.B.B.B.B.B.B.",
"B.B.B.B.B.B.B.B.B.B.N.v.m.B.B.B.B.B.B.B.B.B.B.B.B.B.B.B.r.* $ @ > p b ~ ~ B.N.m.m.N.P P x.B.B.B.B.B.B.m.m.v.N.N.B.B.B.B.B.B.B.B.",
"m.c.B.B.B.B.B.B.B.B.B.B.B.B.B.B.B.B.B.B.B.B.B.B.B.B.B.B.x.9.* 1 a.0.d X.x.m.m.m.B.B.l.x.N.N.B.B.B.B.B.B.B.B.B.B.B.B.B.B.B.N.m.v.",
"6.u.N.B.B.B.B.B.B.B.B.B.B.B.B.B.B.B.B.B.B.B.B.B.B.B.B.B.m.z.a.d.m.x.$.O.m.m.N.N.B.B.m.m.N.N.B.B.B.B.B.B.B.B.B.B.B.B.B.B.B.m.u.6.",
"5.6.c.B.B.B.B.B.B.B.B.B.B.B.B.B.B.B.B.B.B.B.B.B.B.B.B.B.m.m.B.B.N.e.X.l.B.B.N.N.B.B.B.B.N.B.B.B.B.B.B.B.B.B.B.B.B.B.B.B.m.v.6.5.",
"5.6.B.B.B.B.B.B.B.B.B.B.B.B.B.B.B.B.B.B.B.B.B.B.B.B.N.m.m.m.B.B.N.m.l.M.B.B.B.B.B.B.B.B.N.N.B.B.B.B.B.B.B.B.B.B.B.B.B.B.N.v.6.5.",
"5.6.m.N.B.B.B.B.B.B.B.B.B.B.B.B.B.B.B.B.B.B.B.B.B.B.B.B.B.B.B.B.B.B.B.B.B.B.B.B.B.B.B.B.B.B.B.B.B.B.B.B.B.B.B.B.B.B.N.N.N.m.6.5.",
"5.6.v.N.B.B.B.B.B.B.B.B.B.B.B.B.B.B.B.B.B.B.B.B.B.B.B.B.B.B.B.B.B.B.B.B.B.B.B.B.B.B.B.B.B.B.B.B.B.B.B.B.B.B.B.B.B.B.N.N.N.v.6.5.",
"5.6.N.N.B.B.B.B.B.B.B.B.B.B.B.B.B.B.B.B.B.B.B.B.B.B.B.B.B.B.B.B.B.B.B.B.B.B.B.B.B.B.B.B.B.B.B.B.B.B.B.B.B.B.B.B.B.B.N.N.N.v.6.5.",
"<.1.v.N.B.B.B.B.B.B.B.B.B.B.B.B.B.B.B.B.B.B.B.B.B.B.B.B.B.B.B.B.B.B.B.B.B.B.B.B.B.B.B.B.B.B.B.B.B.B.B.B.B.B.B.B.B.B.N.N.N.v.1.<."
};
