/* XPM */
static char *_7830deda502479789a979da5f3d593eruqZNxmJ9xYdoSTp[] = {
/* columns rows colors chars-per-pixel */
"64 64 159 2 ",
"   c #17121F",
".  c #21171F",
"X  c #1F3716",
"o  c #1D3A12",
"O  c #313416",
"+  c #3C3D1B",
"@  c #190F20",
"#  c #1D1221",
"$  c #1E1921",
"%  c #200F20",
"&  c #231121",
"*  c #2B1121",
"=  c #231C22",
"-  c #2A1922",
";  c #231A29",
":  c #331221",
">  c #3B1321",
",  c #2D1F30",
"<  c #292223",
"1  c #282228",
"2  c #302223",
"3  c #3A2424",
"4  c #332F25",
"5  c #363226",
"6  c #3B3626",
"7  c #3D3B27",
"8  c #2A2331",
"9  c #3B323A",
"0  c #441321",
"q  c #4B1422",
"w  c #431A22",
"e  c #4F1A28",
"r  c #531522",
"t  c #5C1622",
"y  c #5C1D22",
"u  c #641723",
"i  c #691723",
"p  c #621A23",
"a  c #6C1823",
"s  c #661E2B",
"d  c #6A1E2B",
"f  c #701F24",
"g  c #701F29",
"h  c #4E2725",
"j  c #433C26",
"k  c #433A3C",
"l  c #6A2525",
"z  c #712324",
"x  c #722926",
"c  c #763127",
"v  c #793627",
"b  c #712D37",
"n  c #6B3434",
"m  c #1E461B",
"M  c #115D16",
"N  c #224D17",
"B  c #245516",
"V  c #196518",
"C  c #3D7913",
"Z  c #285D26",
"A  c #3F4C36",
"S  c #3C5D31",
"D  c #3E5338",
"F  c #2F6624",
"G  c #277124",
"H  c #3C6630",
"J  c #3B7933",
"K  c #444228",
"L  c #4B4B29",
"P  c #5D4228",
"I  c #54552B",
"U  c #545B2B",
"Y  c #5B5C2C",
"T  c #415B30",
"R  c #654228",
"E  c #7E4329",
"W  c #6A502A",
"Q  c #7D562B",
"!  c #4F602B",
"~  c #5A612C",
"^  c #406733",
"/  c #48653E",
"(  c #62662D",
")  c #6A672E",
"_  c #6A6D2E",
"`  c #766B2E",
"'  c #6C702F",
"]  c #70752F",
"[  c #757A30",
"{  c #3D2E41",
"}  c #3B3540",
"|  c #584D5A",
" . c #684556",
".. c #4F7143",
"X. c #5A7A51",
"o. c #5D5861",
"O. c #645F67",
"+. c #695C71",
"@. c #70646D",
"#. c #814D2B",
"$. c #84542C",
"%. c #875E2D",
"&. c #89622E",
"*. c #87712F",
"=. c #90702F",
"-. c #8F6F30",
";. c #937931",
":. c #4A8112",
">. c #66A314",
",. c #75B014",
"<. c #428A37",
"1. c #49893D",
"2. c #60852E",
"3. c #688B30",
"4. c #7C8432",
"5. c #75A334",
"6. c #7AA534",
"7. c #828A33",
"8. c #898E33",
"9. c #968232",
"0. c #998832",
"q. c #879033",
"w. c #8C9635",
"e. c #8F9935",
"r. c #9D9534",
"t. c #929D35",
"y. c #A19E36",
"u. c #87AB36",
"i. c #8BAD36",
"p. c #96A236",
"a. c #9AA637",
"s. c #90AF37",
"d. c #9DA937",
"f. c #9FAB38",
"g. c #95B137",
"h. c #96B238",
"j. c #9CB438",
"k. c #A3A336",
"l. c #A5A837",
"z. c #A4AC38",
"x. c #A8AF38",
"c. c #A4B439",
"v. c #AAB439",
"b. c #A5B839",
"n. c #ADBC3A",
"m. c #858186",
"M. c #888181",
"N. c #958795",
"B. c #B18F92",
"V. c #B7A7A9",
"C. c #B7BCB5",
"Z. c #BFB4B8",
"A. c #C0BDBF",
"S. c #CBBFC1",
"D. c #CAC4C6",
"F. c #D6CACD",
"G. c #D2CFD1",
"H. c #DCD3D5",
"J. c #EEECEC",
/* pixels */
"5.6.n.n.n.n.n.n.n.n.n.n.n.n.n.n.n.n.n.n.n.n.n.n.n.n.n.n.n.n.n.n.n.n.n.n.n.n.n.n.n.n.n.n.n.n.n.n.n.n.n.n.n.n.n.n.n.n.n.n.n.n.6.5.",
"6.6.n.n.n.n.n.n.n.n.n.n.n.n.n.n.n.n.n.n.n.n.n.n.n.n.n.n.n.n.n.n.n.n.n.n.n.n.n.n.n.n.n.n.n.n.n.n.n.n.n.n.n.n.n.n.n.n.n.n.n.n.u.6.",
"b.b.n.n.n.n.n.n.n.n.n.n.n.n.n.n.n.n.n.n.n.n.n.n.n.n.n.n.n.n.n.n.n.n.n.n.n.n.n.n.n.n.n.n.n.n.n.n.n.n.n.n.n.n.n.n.n.n.n.n.n.n.b.n.",
"n.n.n.n.n.n.n.n.n.n.n.n.n.n.n.n.n.n.n.n.n.n.n.n.n.n.n.n.n.n.n.n.n.n.n.n.n.n.n.n.n.n.n.n.n.n.n.n.n.n.n.n.n.n.n.n.n.n.n.n.n.n.n.n.",
"n.n.n.n.n.n.n.n.n.n.n.n.n.n.n.n.n.n.n.n.n.n.n.n.n.n.n.n.n.n.n.n.n.n.n.n.n.n.n.n.n.n.n.n.n.n.n.n.n.n.n.n.n.n.n.n.n.n.n.n.n.n.n.n.",
"n.n.n.n.n.n.n.n.n.n.n.n.n.n.n.n.n.n.n.n.n.n.n.n.n.n.n.n.n.n.n.n.n.n.n.n.n.n.n.n.n.n.n.n.n.n.n.n.n.n.n.n.n.n.n.n.n.n.n.n.n.n.n.n.",
"n.n.n.n.n.n.b.j.n.n.n.n.n.n.n.n.n.n.n.n.n.n.n.n.n.n.n.n.n.n.n.n.n.n.n.n.n.n.n.n.b.j.c.n.n.n.n.n.n.n.n.n.n.n.n.n.n.n.n.n.n.n.n.n.",
"n.n.n.n.n.n.h.6.s.n.n.n.n.n.n.n.n.n.n.n.n.n.n.n.n.n.n.n.n.l.0.0.0.0.0.0.k.n.n.n.c.5.i.n.n.n.n.n.n.n.n.n.n.n.n.n.n.n.n.n.n.n.n.n.",
"n.n.n.n.n.n.g.6.s.n.n.n.n.n.n.n.n.n.n.n.n.n.n.n.n.n.n.n.k.E a a g a a a $.v.n.n.j.6.i.b.n.n.n.n.n.n.n.n.n.n.n.n.n.n.n.n.n.n.n.n.",
"n.n.n.n.n.n.n.b.g.5.u.n.n.n.n.n.n.n.n.n.n.n.n.n.n.n.n.y.#.a a a a r r r p &.x.n.n.b.j.6.u.b.n.n.n.n.n.n.n.n.n.n.n.n.n.n.n.n.n.n.",
"n.n.n.n.n.n.n.n.g.5.i.n.n.n.n.n.n.n.n.n.n.n.n.n.n.n.;.z a a a a a u q @ * u c v.n.n.j.6.u.b.n.n.n.n.n.n.n.n.n.n.n.n.n.n.n.n.n.n.",
"n.n.n.n.n.n.n.n.n.n.n.n.n.n.n.n.n.n.n.n.n.n.n.n.n.k.a a a a a a i a i 0   * d v n.n.n.b.n.n.n.n.n.n.n.n.n.n.n.n.n.n.n.n.n.n.n.n.",
"n.n.n.n.n.n.n.n.n.n.n.n.n.n.n.n.n.n.n.n.n.n.n.n.n.k.t > a a a i % a a a w t.z.v x.n.n.n.n.n.n.n.n.n.n.n.n.n.n.n.n.n.n.n.n.n.n.n.",
"n.n.n.n.n.n.n.n.n.n.n.n.n.n.n.n.n.n.n.n.n.n.n.n.n.y.r : u a a t @ > i > & t.n.k.%.r.n.n.n.n.n.n.n.n.n.n.n.n.n.n.n.n.n.n.n.n.n.n.",
"n.n.n.n.n.n.n.n.n.n.n.n.n.n.n.n.n.n.n.n.n.n.n.n.n.y.r @ : r e # @ > r * $ _ z.n.;.;.n.n.n.n.n.n.n.n.n.n.n.n.n.n.n.n.n.n.n.n.n.n.",
"n.n.n.n.n.n.n.n.n.n.n.n.n.n.n.n.n.n.n.h.u.c.n.n.n.y.r @ @ @ @ @ @ > a r * $ p.n.n.n.n.n.n.n.n.n.n.n.n.n.n.g.u.j.n.n.n.n.n.n.n.n.",
"n.n.n.n.n.n.n.n.n.n.n.n.n.n.n.n.n.n.n.i.6.j.n.n.v.$.r # ; $ $ ; @ > i a 0 $ U n.n.n.n.n.n.n.n.n.n.n.n.n.n.u.5.g.b.n.n.n.n.n.n.n.",
"n.n.n.n.n.n.n.n.n.n.n.n.n.n.n.n.n.n.j.s.u.j.n.n.x.u # O.G.m.A.D.@ @ 0 i p & & c.n.n.n.n.n.n.n.n.n.n.n.b.j.s.u.j.n.n.n.n.n.n.n.n.",
"n.n.n.n.n.n.n.n.n.n.n.n.n.n.n.n.n.i.6.g.n.n.n.n.v.u @ , } 8 } } @ @ % q i % # 4 n.n.n.n.n.n.n.n.n.n.n.s.6.j.n.n.n.n.n.n.n.n.n.n.",
"n.n.n.n.n.n.n.n.n.n.n.n.n.n.n.n.n.s.6.j.n.n.n.n.k.t @ @ @ @ @ @ @ @ @ 0 a % # < n.n.n.n.n.n.n.n.n.n.n.s.6.j.n.n.n.n.n.n.n.n.n.n.",
"n.n.n.n.n.n.n.n.n.n.n.n.n.n.n.n.n.n.b.n.n.n.n.q.y i : @ @ @ @ @ @ @ & r a % @ = w.n.n.n.n.n.n.n.n.n.n.n.b.n.n.n.n.n.n.n.n.n.n.n.",
"n.n.n.n.n.n.n.n.n.n.n.n.n.n.n.n.n.n.n.n.n.n.a.h % a r @ @ @ @ @ @ % r a t @ @ @ L n.n.n.n.n.n.n.n.n.n.n.n.n.n.n.n.n.n.n.n.n.n.n.",
"n.n.n.n.n.n.n.n.n.n.n.n.n.n.n.n.n.n.n.n.n.t.R a * a t : @ @ @ @ @ r a a 0 @ @ q W n.n.n.n.n.n.n.n.n.n.n.n.n.n.n.n.n.n.n.n.n.n.n.",
"n.n.n.n.n.n.n.n.n.n.n.n.n.n.n.n.n.n.n.n.n.` r a * q i t * @ @ % q a a t * @ q a v 9.n.n.n.n.n.n.n.n.n.n.n.n.n.n.n.n.n.n.n.n.n.n.",
"n.n.n.n.n.n.n.n.n.n.n.n.n.n.n.n.n.n.n.n.7.h a a u % 0 i q % % t a a r % % t a a a $.v.n.n.n.n.n.n.n.n.n.n.n.n.n.n.n.n.n.n.n.n.n.",
"n.n.n.n.n.n.n.n.n.n.n.n.n.n.n.n.n.n.n.n.*.i a a a t % 0 q 0 * u a a q @ q i a a a f =.n.n.n.n.n.n.n.n.n.n.n.n.n.n.n.n.n.n.n.n.n.",
"n.n.n.n.n.n.n.n.n.n.n.n.n.n.n.n.n.n.n.[ : a a a a a r > 0 0 i * a q @ q i * i a a a &.v.n.n.n.n.n.n.n.n.n.n.n.n.n.n.n.n.n.n.n.n.",
"n.n.n.n.n.n.n.n.n.n.n.n.n.n.n.n.n.n.z.@ * r t a a a a t > > r 0 r > r a i * r a a a a #.x.n.n.n.n.n.n.n.n.n.n.n.n.n.n.n.n.n.n.n.",
"n.n.n.n.n.n.n.n.n.n.n.n.n.n.n.n.b._ Y % 0 0 q u a a a a a a q q 0 t a a a & @ q q t i f x.n.n.n.n.n.n.n.n.n.n.n.n.n.n.n.n.n.n.n.",
"n.n.n.n.n.n.n.n.n.n.n.n.n.n.n.n.v.< q r a i p i a a a a a a a r i t a a r @ @ % q q r f l.n.n.n.n.n.n.n.n.n.n.n.n.n.n.n.n.n.n.n.",
"n.n.n.n.n.n.n.n.n.n.n.n.n.n.n.n.c.2 a a i i a i a q a a a a a a a a i r * & 0 & r q q f y.n.n.n.n.n.n.n.n.n.n.n.n.n.n.n.n.n.n.n.",
"n.n.n.n.n.n.n.n.n.n.n.n.n.n.n.n.v.l a p : * : t a % i a a a a a a a r * % t a t 0 u a a c l.n.n.n.n.n.n.n.n.n.n.n.n.n.n.n.n.n.n.",
"n.n.n.n.n.n.n.n.n.n.n.n.n.n.n.n.v.x u d s s e t i % > a a a a a a r 0 a i a a a r q a a l l.n.n.n.n.n.n.n.n.n.n.n.n.n.n.n.n.n.n.",
"n.n.n.n.n.n.n.n.n.n.n.n.n.n.n.n.v.z % +.+.+. .: u u > a a a a a t > u u u a a a a a a u - a.n.n.n.n.n.n.n.n.n.n.n.n.n.n.n.n.n.n.",
"n.n.n.n.n.n.n.n.n.n.n.n.n.n.n.n.v.x ; H.H.Z. .w i u > u r t a a @.@.@.| , i a a a a t * = a.n.n.n.n.n.n.n.n.n.n.n.n.n.n.n.n.n.n.",
"n.n.n.n.n.n.n.n.n.n.n.n.n.n.n.n.v.x ; m.m.o.@ @ u i q 0 q t g B.H.H.F.N.{ i a a a t * @ & a.n.n.n.n.n.n.n.n.n.n.n.n.n.n.n.n.n.n.",
"n.n.n.n.n.n.n.n.n.n.n.n.n.n.n.n.v.x # @ @ @ @ 0 a i * > a a j S.J.J.C.X.T u a a t * @ # _ b.n.n.n.n.n.n.n.n.n.n.n.n.n.n.n.n.n.n.",
"n.n.n.n.n.n.n.n.n.n.n.n.n.n.n.n.v.c r @ @ @ : i u : @ > r > N V.A.A.M.H T u a a 0 @ @ $ p.n.n.n.n.n.n.n.n.n.n.n.n.n.n.n.n.n.n.n.",
"n.n.n.n.n.n.n.n.n.n.n.n.n.n.n.n.n.r.a @ @ > u u * % % > q   o n b h 8 ^ A u a u @ @ # $ p.n.n.n.n.n.n.n.n.n.n.n.n.n.n.n.n.n.n.n.",
"n.n.n.n.n.n.n.n.n.n.n.n.n.n.n.n.n.b.a @ : r % * % u r > q   t O y $ S S & u u @ @ @ @ $ p.n.n.n.n.n.n.n.n.n.n.n.n.n.n.n.n.n.n.n.",
"n.n.n.n.n.n.n.n.n.n.n.n.n.n.n.n.n.v.a @ : q > a . a r > 0 & u i X F H # q i % @ @ @ @ < a.n.n.n.n.n.n.n.n.n.n.n.n.n.n.n.n.n.n.n.",
"n.n.n.n.n.n.n.n.n.n.n.n.n.n.n.n.n.b.%.0 3 P * p * a > * t q u a 7 Z D @ q 0 @ @ @ @ @ _ n.n.n.n.n.n.n.n.n.n.n.n.n.n.n.n.n.n.n.n.",
"n.n.n.n.n.n.n.n.n.n.n.n.n.n.n.n.n.n.v.t j 3.7 t r a r > i q u + M G 1.D & # @ @ @ @ 7 e.n.n.n.n.n.n.n.n.n.n.n.n.n.n.n.n.n.n.n.n.",
"n.n.n.n.n.n.n.n.n.n.n.n.n.n.n.n.n.n.v.t 7 i.! t > a r > r * t B >.C <...@ @ @ @ @ # ! b.n.n.n.n.n.n.n.n.n.n.n.n.n.n.n.n.n.n.n.n.",
"n.n.n.n.n.n.n.n.n.n.n.n.n.n.n.n.n.n.c.y 6 p._ t * a r > q % p B ,.:.<...@ @ @ @ @ @ ~ 6.u.b.n.n.n.n.n.n.n.n.n.n.n.n.n.n.n.n.n.n.",
"n.n.n.n.n.n.n.n.n.n.n.n.n.n.n.n.n.n.n.*.l Q Y r & u r > q   p B ,.:.<...@ @ = @ @ @ ~ 6.u.b.n.n.n.n.n.n.n.n.n.n.n.n.n.n.n.n.n.n.",
"n.n.n.n.n.n.n.n.n.n.n.n.n.n.n.n.n.n.n.v.c.' & = @ * r > q % p m V V 1./ @ $ 4.< @ @ ~ b.b.n.n.n.n.n.n.n.n.n.n.n.n.n.n.n.n.n.n.n.",
"n.n.n.n.n.n.n.n.n.n.n.n.n.n.n.n.n.n.n.n.v.Y I 5 < . r 0 q % u . N J ..$ @ $ 4.w.= @ U a.n.n.n.n.n.n.n.n.n.n.n.n.n.n.n.n.n.n.n.n.",
"n.n.n.n.n.n.n.n.n.n.n.n.n.n.n.n.n.n.n.n.7.) v.5 8.& t a q % u & p @ @ @ 1 6 K 4.( @ @ I z.n.n.n.n.n.n.n.n.n.n.n.n.n.n.n.n.n.n.n.",
"n.n.n.n.n.n.n.n.n.n.n.n.n.n.n.n.n.n.n.n.n.n.v.7.d.# & q q @ u & p @ 6 L 4 p.c.4.e.[ K # 7 z.n.n.n.n.n.n.n.n.n.n.n.n.n.n.n.n.n.n.",
"n.n.n.n.n.n.n.n.n.g.j.n.n.n.n.n.n.n.n.n.n.n.n.n.c.= ~ > q % u 9 p @ L t.4.L a.n.n.n.e.[ 1 7 n.n.n.n.n.n.n.g.g.j.n.n.n.n.n.n.n.n.",
"n.n.n.n.n.n.n.n.j.6.i.n.n.n.n.n.n.n.n.n.n.n.n.n.z.< ] & & @ u k u @ L n.b.a.n.n.n.n.n.n.w.= 7 n.n.n.n.n.n.i.5.g.n.n.n.n.n.n.n.n.",
"n.n.n.n.n.n.n.n.j.u.s.j.b.n.n.n.n.n.n.n.n.n.n.n.n.f.b.( < = t d z ) L n.n.n.n.n.n.n.n.n.n.c.c.n.n.n.n.b.j.s.u.j.n.n.n.n.n.n.n.n.",
"n.n.n.n.n.n.n.n.n.n.h.6.i.n.n.n.n.n.n.n.n.n.n.n.n.n.n.n.c.Y 2 z z ) Y n.n.n.n.n.n.n.n.n.n.n.n.n.n.n.n.g.5.j.n.n.n.n.n.n.n.n.n.n.",
"n.n.n.n.n.n.n.n.n.n.j.6.i.n.n.n.n.n.n.n.n.n.n.n.n.n.n.n.n.n.v.z.c E n.n.n.n.n.n.n.n.n.n.n.n.n.n.n.n.n.j.6.j.n.n.n.n.n.n.n.n.n.n.",
"n.n.n.n.n.n.n.n.n.n.n.b.n.n.n.n.n.n.n.n.n.n.n.n.n.n.n.n.n.n.n.n.-.-.n.n.n.n.n.n.n.n.n.n.n.n.n.n.n.n.n.n.b.n.n.n.n.n.n.n.n.n.n.n.",
"n.n.n.n.n.n.n.n.n.n.n.n.n.n.n.n.n.n.n.n.n.n.n.n.n.n.n.n.n.n.n.n.r.n.n.n.n.n.n.n.n.n.n.n.n.n.n.n.n.n.n.n.n.n.n.n.n.n.n.n.n.n.b.n.",
"6.6.n.n.n.n.n.n.n.n.n.n.n.n.n.n.n.n.n.n.n.n.n.n.n.n.n.n.n.n.n.n.n.n.n.n.n.n.n.n.n.n.n.n.n.n.n.n.n.n.n.n.n.n.n.n.n.n.n.n.n.n.6.6.",
"5.6.n.n.n.n.n.n.n.n.n.n.n.n.n.n.n.n.n.n.n.n.n.n.n.n.n.n.n.n.n.n.n.n.n.n.n.n.n.n.n.n.n.n.n.n.n.n.n.n.n.n.n.n.n.n.n.n.n.n.n.n.6.5.",
"5.6.n.n.n.n.n.n.n.n.n.n.n.n.n.n.n.n.n.n.n.n.n.n.n.n.n.n.n.n.n.n.n.n.n.n.n.n.n.n.n.n.n.n.n.n.n.n.n.n.n.n.n.n.n.n.n.n.n.n.n.n.6.5.",
"5.6.b.n.n.n.n.n.n.n.n.n.n.n.n.n.n.n.n.n.n.n.n.n.n.n.n.n.n.n.n.n.n.n.n.n.n.n.n.n.n.n.n.n.n.n.n.n.n.n.n.n.n.n.n.n.n.n.n.n.n.n.6.5.",
"5.6.n.n.n.n.n.n.n.n.n.n.n.n.n.n.n.n.n.n.n.n.n.n.n.n.n.n.n.n.n.n.n.n.n.n.n.n.n.n.n.n.n.n.n.n.n.n.n.n.n.n.n.n.n.n.n.n.n.n.n.b.6.5.",
"5.6.n.n.n.n.n.n.n.n.n.n.n.n.n.n.n.n.n.n.n.n.n.n.n.n.n.n.n.n.n.n.n.n.n.n.n.n.n.n.n.n.n.n.n.n.n.n.n.n.n.n.n.n.n.n.n.n.n.n.n.n.6.5.",
"2.3.b.n.n.n.n.n.n.n.n.n.n.n.n.n.n.n.n.n.n.n.n.n.n.n.n.n.n.n.n.n.n.n.n.n.n.n.n.n.n.n.n.n.n.n.n.n.n.n.n.n.n.n.n.n.n.n.n.n.n.b.3.2."
};
