/* XPM */
static char *aa37367161ce4bd198ed59d21794c6832IAP9cfawRwyyP6N[] = {
/* columns rows colors chars-per-pixel */
"64 64 155 2 ",
"   c #18141F",
".  c #15241A",
"X  c #133C13",
"o  c #14311B",
"O  c #180F20",
"+  c #1D1220",
"@  c #1E1B22",
"#  c #200F20",
"$  c #221020",
"%  c #2B1121",
"&  c #221B22",
"*  c #201728",
"=  c #241B29",
"-  c #331221",
";  c #3E1321",
":  c #212226",
">  c #2A2423",
",  c #28272B",
"<  c #312B24",
"1  c #2A3828",
"2  c #353125",
"3  c #2F2533",
"4  c #432C1A",
"5  c #4B291C",
"6  c #46331D",
"7  c #4B311D",
"8  c #451322",
"9  c #4B1422",
"0  c #4C1922",
"q  c #541522",
"w  c #5B1622",
"e  c #5A1A21",
"r  c #521D2A",
"t  c #651723",
"y  c #691723",
"u  c #6D1823",
"i  c #701F24",
"p  c #592224",
"a  c #712325",
"s  c #762F26",
"d  c #702A2F",
"f  c #663927",
"g  c #773227",
"h  c #7A3A28",
"j  c #692630",
"k  c #115216",
"l  c #1A5A16",
"z  c #1E501A",
"x  c #1C6617",
"c  c #1E6916",
"v  c #2D4029",
"b  c #3F4A28",
"n  c #245320",
"m  c #2A6E25",
"M  c #297326",
"N  c #31792B",
"B  c #417F15",
"V  c #464428",
"C  c #4B4B29",
"Z  c #504929",
"A  c #425029",
"S  c #53532A",
"D  c #57582B",
"F  c #5A5C2B",
"G  c #774429",
"H  c #7D4D2A",
"J  c #72502A",
"K  c #7F5630",
"L  c #5E612C",
"P  c #67662D",
"I  c #6C712F",
"U  c #71762F",
"Y  c #6F7430",
"T  c #737930",
"R  c #4F4953",
"E  c #57545E",
"W  c #58535C",
"Q  c #66745F",
"!  c #554B61",
"~  c #6C676E",
"^  c #726069",
"/  c #796B73",
"(  c #80472A",
")  c #804929",
"_  c #84542B",
"`  c #875B2D",
"'  c #885E2D",
"]  c #85632E",
"[  c #8A612D",
"{  c #8E6D2F",
"}  c #847831",
"|  c #917530",
" . c #966966",
".. c #96656C",
"X. c #81727B",
"o. c #458215",
"O. c #568812",
"+. c #5B8B11",
"@. c #7AB413",
"#. c #50893B",
"$. c #58973F",
"%. c #60852E",
"&. c #688B30",
"*. c #7C8332",
"=. c #75A334",
"-. c #7AA534",
";. c #62994F",
":. c #639C50",
">. c #689F54",
",. c #5DA142",
"<. c #6EA857",
"1. c #978332",
"2. c #988632",
"3. c #998933",
"4. c #879034",
"5. c #8B9434",
"6. c #8F9935",
"7. c #9D9134",
"8. c #919B35",
"9. c #A09D36",
"0. c #83A035",
"q. c #87AB36",
"w. c #8CAD37",
"e. c #96A236",
"r. c #99A536",
"t. c #90AF37",
"y. c #9EAC38",
"u. c #95B137",
"i. c #96B238",
"p. c #9BB438",
"a. c #A4A537",
"s. c #A6A937",
"d. c #A3AE38",
"f. c #A8AF38",
"g. c #A5B539",
"h. c #AAB539",
"j. c #A3B839",
"k. c #A6B939",
"l. c #A8BA39",
"z. c #A9BA3A",
"x. c #AABB3A",
"c. c #ACBB3A",
"v. c #ACBC3A",
"b. c #ADBC3A",
"n. c #AFB948",
"m. c #B1BB4C",
"M. c #B3BA59",
"N. c #858187",
"B. c #969297",
"V. c #A69495",
"C. c #AA9FA2",
"Z. c #BAA9AE",
"A. c #C0B991",
"S. c #C5ADAD",
"D. c #C4B6B1",
/* pixels */
"=.-.v.v.b.b.b.b.b.b.b.b.b.b.b.b.b.b.b.b.b.b.b.b.b.b.b.b.b.b.b.b.b.b.b.b.b.b.b.b.b.b.b.b.b.b.b.b.b.b.b.b.b.b.b.b.b.b.b.b.b.z.-.=.",
"-.-.v.v.b.b.b.b.b.b.b.b.b.b.b.b.b.b.b.b.b.b.b.b.b.b.b.b.b.b.b.b.b.b.b.b.b.b.b.b.b.b.b.b.b.b.b.b.b.b.b.b.b.b.b.b.b.b.b.b.b.v.-.-.",
"z.c.v.v.b.b.b.v.b.b.b.b.b.b.b.b.b.b.b.b.b.b.b.b.b.b.b.b.b.b.b.b.b.b.b.b.b.b.b.b.b.b.b.b.b.b.b.b.b.b.b.b.b.b.b.b.b.b.b.b.v.v.v.v.",
"v.v.v.v.b.b.b.v.b.b.b.b.b.b.b.b.b.b.b.b.b.b.b.b.b.b.b.b.b.b.b.b.b.b.b.b.b.b.b.b.b.b.b.b.b.b.b.b.b.b.b.b.b.b.b.b.b.b.b.b.v.v.v.v.",
"v.v.b.b.b.b.v.v.b.b.b.b.b.b.b.b.b.b.b.b.b.b.b.b.b.b.b.b.b.2.( ( ( ( ( ( ( _ c.c.v.v.v.b.b.b.b.v.b.b.b.b.b.b.b.b.b.b.b.b.v.v.v.b.",
"v.v.b.b.b.b.v.v.v.b.b.b.b.b.b.b.b.b.b.b.b.b.b.b.b.b.b.b.1.g u u u u u u u i _ v.v.v.v.v.b.b.b.v.b.b.b.b.b.b.b.b.b.b.b.b.v.v.b.b.",
"v.b.b.b.b.v.z.p.z.c.b.b.b.b.b.b.b.b.b.b.b.b.b.b.b.b.b.1.s u u u u u - - - 8 i _ k.p.h.b.b.b.v.v.b.b.b.b.b.b.b.b.b.b.b.b.b.b.b.b.",
"v.b.b.b.b.c.u.-.t.v.b.b.b.b.b.b.b.b.b.b.b.b.b.b.b.b.2.g u u u u u u 9 8 O O 8 i _ -.w.b.b.b.v.v.b.b.b.b.b.b.b.b.b.b.b.b.b.b.b.b.",
"b.b.b.b.v.z.i.-.t.z.z.v.v.b.b.b.b.b.b.b.b.b.b.b.v.1.s u u u u i u u u y 8 O # 8 u J w.z.z.v.v.v.b.b.b.b.b.b.b.b.b.b.b.b.b.b.b.b.",
"b.b.b.b.v.c.c.z.u.-.w.v.v.v.b.b.b.b.b.b.b.b.b.b.v.` w q u u u u w 8 u u t 9 + P u a i.-.q.k.v.v.b.b.b.b.b.b.b.b.b.b.b.b.b.b.b.b.",
"b.b.b.b.b.b.b.c.i.-.w.v.b.b.b.b.b.b.b.b.b.b.b.b.v.[ 8 8 u u u u 9 $ 8 u t ; & f.[ a p.-.w.k.b.b.b.b.b.b.b.b.b.b.b.b.b.b.b.b.b.b.",
"b.b.b.b.b.b.b.b.z.z.z.c.b.b.b.b.b.b.b.b.b.b.b.b.v.[ 8 - w u u w - O % u 8   & v.s.a z.z.z.b.b.b.b.b.b.b.b.b.b.b.b.b.b.b.b.b.b.b.",
"b.b.b.b.b.b.b.b.b.b.b.b.b.b.b.b.b.b.b.b.b.b.b.b.v.[ 8 O % 8 ; % O O % t 8 O & D a.a b.b.b.b.b.b.b.b.b.b.v.v.v.b.b.b.b.b.b.b.b.b.",
"b.b.b.b.b.b.b.b.b.b.b.b.b.b.b.b.b.b.b.b.b.b.b.b.v.' 8 O O O O O O O % u t 8   & h.{ b.b.b.b.b.b.b.b.b.b.v.v.v.v.b.b.b.b.b.b.b.b.",
"b.b.b.b.b.b.b.b.b.b.b.b.b.b.b.b.b.b.v.v.c.v.v.v.3.g 8 O O O O O O O % u u t O $ F b.b.b.b.b.b.b.b.b.b.b.c.z.c.v.b.b.b.b.b.b.b.b.",
"b.b.b.b.b.b.b.b.b.b.b.b.b.b.b.b.b.b.b.i.q.p.v.v.' w % W B.~ R B.~ O $ 8 u y 8 O & b.b.b.b.b.b.b.b.b.b.b.c.u.w.p.v.b.b.b.b.b.b.b.",
"b.b.b.b.b.b.b.b.b.b.b.b.b.b.b.b.b.v.c.w.-.p.v.v.' 8 O W N.W R N.W O O $ 8 u t O & P b.b.b.b.b.b.b.b.b.v.c.w.=.i.z.v.b.b.b.b.b.b.",
"b.b.b.b.b.b.b.b.b.b.b.b.b.b.b.b.c.z.p.w.w.p.v.v.[ 8 O O O O O O O O O O % u t O O & b.b.b.b.b.b.b.b.v.h.p.w.q.p.z.v.b.b.b.b.b.b.",
"b.b.b.b.b.b.b.b.b.b.b.b.b.b.b.b.k.w.-.u.c.c.v.v.' 8 O O O O O O O O O O % u y O O & b.b.b.b.b.b.v.v.v.u.-.p.c.c.v.v.v.b.b.b.b.b.",
"b.b.b.b.b.b.b.b.b.b.b.b.b.b.b.b.k.w.-.p.c.b.h.9.h q % O O O O O O O O $ 9 u t O O & b.b.b.b.b.b.v.v.v.w.0.p.v.b.v.v.v.v.b.b.b.b.",
"b.b.b.b.b.b.b.b.b.b.b.b.b.b.b.b.v.c.c.c.c.5.P f u u 8 O O O O O O O # 8 u y 8 O O & b.b.b.b.b.b.v.v.b.v.c.c.b.b.b.b.b.b.b.b.b.b.",
"b.b.b.b.b.b.b.b.b.b.b.b.b.b.b.b.v.v.c.v.7.f - - w u q - O O O O O # 9 u u t O O O 0 { b.b.b.b.b.b.v.b.b.v.v.b.b.b.b.b.b.b.b.b.b.",
"b.b.b.b.b.b.b.b.b.b.b.b.b.b.b.b.v.v.v.v.` u w % 8 u u q % O O O % 8 u u y 8 O # 8 u a { b.b.b.b.b.b.b.b.v.b.b.b.b.b.b.b.b.b.b.b.",
"b.b.b.b.b.b.b.b.b.b.b.b.b.b.b.b.b.b.v.s.) u u 8 8 t u y 8 O O $ 9 u u u q O O - u u u a b.b.b.b.b.b.b.b.v.b.b.b.b.b.b.b.b.b.b.b.",
"b.b.b.b.b.b.b.b.b.b.b.b.b.b.b.b.b.b.b.` u u u 9 $ 8 t u 8 # $ ; u u u t O O - u u u u i 7.v.b.b.b.b.b.b.b.b.b.b.b.b.b.b.b.b.b.b.",
"b.b.b.b.b.b.b.b.b.b.b.b.b.b.b.b.b.b.a.( u u u u 9 $ 8 t 8 ; q 8 t u u q O - u w u u u u i v.b.b.b.b.b.b.b.b.b.b.b.b.b.b.b.b.b.b.",
"b.b.b.b.b.b.b.b.b.b.b.b.b.b.b.b.b.b.` u u y y u u 9 % 8 8 ; u 9 ; u q O ; u t $ u u u u a 3.v.b.b.b.b.b.b.b.b.b.b.b.b.b.b.b.b.b.",
"b.b.b.b.b.b.b.b.b.b.b.b.b.b.b.b.b.f.) u u 9 8 y u u u 9 O 8 u 9 8 w $ - y u y $ y u u u u a h.v.b.b.b.b.b.b.b.b.b.b.b.b.b.b.b.b.",
"b.b.b.b.b.b.b.b.b.b.b.b.b.b.b.b.d.) u u u u 8 8 u u u u 8 ; u q 8 t u u u u t O $ t t y t a 9.b.b.b.b.b.b.b.b.b.b.b.b.b.b.b.b.b.",
"b.b.b.b.b.b.b.b.b.b.b.b.b.b.v.v.S q u u u u 8 8 u u u u 9 8 u u 9 ; u u u u w O O $ $ $ % t a h.b.b.b.b.b.b.b.b.b.b.b.b.b.b.b.b.",
"b.b.b.b.b.b.b.b.b.b.b.b.b.b.b.v._ u u u u y 8 8 y y u u u u u u u u u u u w O O $ y t u u % a h.b.b.b.b.b.b.b.b.b.b.b.b.b.b.b.b.",
"b.b.b.b.b.b.b.b.b.b.b.b.b.b.b.d.H u u u y ; + 8 8 9 u u u u u u u u u u w O O $ $ $ $ t u u a b.b.b.b.b.b.b.b.b.b.b.b.b.b.b.b.b.",
"b.b.b.b.b.b.b.b.b.b.b.b.v.v.v.C 8 u y ; # $ $ 8 8 8 y u y y u u u u u w $ # % i u y # # u u a h.c.v.v.v.b.b.b.b.b.b.b.b.b.b.b.b.",
"b.b.b.b.b.b.b.b.b.b.b.b.b.v.v.Z q y 8 O 8 t 8 0 8 # 9 u 8 8 u u u u w - u u u u u u y # u u i h.c.v.b.v.b.b.b.b.b.b.b.b.b.b.b.b.",
"b.b.b.b.b.b.b.b.b.b.b.b.b.b.v.) y u 8 q 8 O 8 y y 8 8 i 8 ; u u u w % t y y y u u u t % u u a h.b.b.b.b.b.b.b.b.b.b.b.b.b.b.b.b.",
"b.b.b.b.b.b.b.b.b.b.b.b.b.b.v.V 9 y u y ; O O 8 ; O 8 u 8 ; u u q 3 3 3 3 * # u u u u u u t & g.b.b.b.b.b.b.b.b.b.b.b.b.b.b.b.b.",
"b.b.b.b.b.b.b.b.b.b.b.b.b.b.b.C O 9 i 8 O O = = O O 9 t 8 8 u u  .D.D.D.Z.! O u u u u y t O & g.b.b.b.b.b.b.b.b.b.b.b.b.b.b.b.b.",
"b.b.b.b.b.b.b.b.b.b.b.b.b.b.b.S   8 y ; O = X.^ $ 9 8 # 9 u u K n.v.n.M.C.E # u u u u t O O & g.b.b.b.b.b.b.b.b.b.b.b.b.b.b.b.b.",
"b.b.b.b.b.b.b.b.b.b.b.b.b.b.v.h.S 9 8 O = X...y y u 8 8 y t 4 Q A.m.n.e.n ,.# u u u t O O O & g.b.b.b.b.b.b.b.b.b.b.b.b.b.b.b.b.",
"b.b.b.b.b.b.b.b.b.b.b.b.b.b.b.b.Z 8 ; O / ..y 8 9 u 8 8 8   . Q S.S.Z.V.1 ;.# u u y t O O O & e.c.b.b.b.b.b.b.b.b.b.b.b.b.b.b.b.",
"b.b.b.b.b.b.b.b.b.b.b.b.b.b.b.b.S & $   r i 8 9 u u 8 8 8 O . 6 d j , = v $.$ u u w $ O O O O < h.b.b.b.b.b.b.b.b.b.b.b.b.b.b.b.",
"b.b.b.b.b.b.b.b.b.b.b.b.b.b.b.b.d.y.Z 8 t 9 9 y y y 8 8 8 O ; 5 4 e @ 1 #.: % u w $ O O O O & e.c.b.b.b.b.b.b.b.b.b.b.b.b.b.b.b.",
"b.b.b.b.b.b.b.b.b.b.b.b.b.b.b.b.c.v.D & O 8 y u 8 # O 8 8 # ; y 4 X z #.  $ y t $ O O O O O & g.v.v.b.b.b.b.b.b.b.b.b.b.b.b.b.b.",
"b.b.b.b.b.b.b.b.b.b.b.b.b.b.b.b.c.c.d.S & 9 y 8 8 8 # # 8 9 ; y 0   k , O $ u t O O O O O O & g.b.b.b.b.b.b.b.b.b.b.b.b.b.b.b.b.",
"b.b.b.b.b.b.b.b.b.b.b.b.b.b.b.b.b.v.v.0.b 8 9 # $ 8 8 O 8 9 8 u 6 k M ;.. $ w $ O O O O O O & g.b.b.b.b.b.b.b.b.b.b.b.b.b.b.b.b.",
"b.b.b.b.b.b.b.b.b.b.b.b.b.b.b.b.b.v.v.w.A $ 8 y 8 8 8 O 8 9 ; 7 l c c N >.  $ O O O O O O O & g.b.b.b.b.b.b.b.b.b.b.b.b.b.b.b.b.",
"b.b.b.b.b.b.b.b.b.b.b.b.b.b.b.b.b.b.v.c.y.S 9 u 9 8 8 O $ # ; 6 B @.O.M <.O O O O   O O O O & f.b.b.b.b.b.b.b.b.b.b.b.b.b.b.b.b.",
"b.b.b.b.b.b.b.b.b.b.b.b.b.b.b.b.b.b.v.v.v.S 8 y t u 8 8 ; O 8 6 o.q.+.c <.# O O O   O O O O > g.b.b.b.b.b.b.b.b.b.b.b.b.b.b.b.b.",
"b.b.b.b.b.b.b.b.b.b.v.v.v.b.b.b.b.b.b.b.b.F 8 8 8 u y 9 # O ; 6 B @.+.M <.O O O > 4.  O O & e.v.b.b.b.b.v.v.v.v.v.v.b.b.b.b.b.b.",
"b.b.b.b.b.b.b.b.v.c.c.v.v.v.b.b.b.b.b.b.b.S & $ $ 8 u y 8 O ; 7 l x x N >.O O & 5.e.@ O O & h.v.b.b.b.b.v.c.c.v.b.b.b.b.b.b.b.b.",
"b.b.b.b.b.b.v.c.k.t.i.c.b.b.b.b.b.b.b.b.b.d.S +   8 u u 8 O 8 0 o k m :.: O O & 2 z.4.+ O + g.c.b.b.b.b.c.i.t.p.c.v.v.b.b.b.b.b.",
"b.b.b.b.v.v.v.c.i.-.w.c.v.b.b.b.b.b.b.b.b.c.S S F 8 u u 8 O ; 9   % p : O O & 4.& v.e.O + & h.c.b.b.b.v.z.w.-.u.c.v.b.b.b.b.b.b.",
"b.b.b.b.b.b.b.v.p.w.t.i.h.v.v.v.b.b.b.b.c.Y F d.L $ 9 u 8 O ; 9   % t     & & e.> v.r.& O & h.c.b.b.v.h.p.t.w.p.c.b.b.b.b.b.b.b.",
"b.b.b.b.b.b.b.b.c.c.i.-.w.v.b.v.b.b.b.b.c.r.y.c.D # $ 9 8 O 8 9 & % t > 4.4.& h.8.c.h.*.  > h.c.b.b.v.t.-.p.c.c.v.b.b.b.b.b.b.b.",
"b.b.b.b.b.b.b.b.v.v.p.-.t.b.b.b.b.b.v.v.c.c.c.c.D S S 8 8 O ; G 8.} w > b.e.& v.v.v.c.6.& 5.b.b.b.b.b.w.=.p.v.v.v.b.b.b.b.b.b.b.",
"b.b.b.b.b.b.b.b.v.v.c.c.v.b.b.b.b.b.b.v.v.v.c.Y F y.S $ $ O ; _ c.7.w < v.r.> v.v.v.r.< > b.b.b.b.b.b.c.z.c.v.v.b.b.b.b.b.b.b.b.",
"c.c.v.v.b.b.b.b.v.v.b.b.b.b.b.b.b.b.b.b.b.b.b.5.5.*.< + + O 8 s | 2.e < z.d.*.v.v.y.V   T v.b.b.b.b.b.b.b.b.b.b.b.b.b.b.b.v.c.z.",
"-.0.c.v.b.b.b.b.v.v.b.b.b.b.b.b.b.b.b.b.b.b.b.b.c.8.U T C + % q g _ ] p F v.v.v.s.V @ T v.v.b.b.b.b.b.b.b.b.b.b.b.b.b.b.b.c.0.-.",
"=.-.c.c.b.b.b.b.v.b.b.b.b.b.b.b.b.b.b.b.b.b.b.b.v.v.v.v.6.T U } | 2.s.[ f b.b.b.h.I T b.v.b.b.b.b.b.b.b.b.b.b.b.b.b.b.b.v.z.-.=.",
"=.-.c.b.b.b.b.b.b.b.b.b.b.b.b.b.b.b.b.b.b.b.b.b.v.v.v.v.v.z.b.b.v.v.v.s.1.b.b.b.b.b.b.b.b.b.b.b.b.b.b.b.b.b.b.b.b.b.b.b.b.z.-.=.",
"=.-.z.v.b.b.b.b.b.b.b.b.b.b.b.b.b.b.b.b.b.b.b.b.v.v.v.b.b.b.b.b.b.b.b.b.b.b.b.b.b.b.b.b.b.b.b.b.b.b.b.b.b.b.b.b.b.b.v.v.b.z.-.=.",
"=.-.c.v.b.b.b.b.b.b.b.b.b.b.b.b.b.b.b.b.b.b.b.b.v.v.b.b.b.b.b.b.b.b.b.b.b.b.b.b.b.b.b.b.b.b.b.b.b.b.b.b.b.b.b.b.b.b.b.v.b.v.-.=.",
"=.-.z.v.b.b.b.b.b.b.b.b.b.b.b.b.b.b.b.b.b.b.b.b.b.b.b.b.b.b.b.b.b.b.b.b.b.b.b.b.b.b.b.b.b.b.b.b.b.b.b.b.b.b.b.b.b.b.v.v.v.z.-.=.",
"%.&.v.v.b.b.b.b.b.b.b.b.b.b.b.b.b.b.b.b.b.b.b.b.b.b.b.b.b.b.b.b.b.b.b.b.b.b.b.b.b.b.b.b.b.b.b.b.b.b.b.b.b.b.b.b.b.b.v.v.v.v.&.%."
};
