/* XPM */
static char *_4c74fa9b7354a21da161ace04b6c264jGZRH8U6SwTSqdVL[] = {
/* columns rows colors chars-per-pixel */
"64 64 185 2 ",
"   c #1A3716",
".  c #282B18",
"X  c #372F18",
"o  c #333918",
"O  c #3F391C",
"+  c #180F20",
"@  c #1F1320",
"#  c #241020",
"$  c #2D1121",
"%  c #221A22",
"&  c #331121",
"*  c #3D1321",
"=  c #272726",
"-  c #322D24",
";  c #2B3A29",
":  c #363226",
">  c #3E3B27",
",  c #3B2031",
"<  c #40241C",
"1  c #452B1A",
"2  c #56241E",
"3  c #431321",
"4  c #4A1422",
"5  c #491D29",
"6  c #551522",
"7  c #5B1622",
"8  c #581D29",
"9  c #651723",
"0  c #681723",
"q  c #661D22",
"w  c #6D1823",
"e  c #771D29",
"r  c #4B272B",
"t  c #532524",
"y  c #413E27",
"u  c #593727",
"i  c #562434",
"p  c #582433",
"a  c #722925",
"s  c #712228",
"d  c #783727",
"f  c #7B3C28",
"g  c #662533",
"h  c #6E2C3B",
"j  c #702C3C",
"k  c #683D33",
"l  c #155616",
"z  c #35411A",
"x  c #196518",
"c  c #276C16",
"v  c #3A7813",
"b  c #254424",
"n  c #384E33",
"m  c #3C5F31",
"M  c #38712A",
"N  c #4D4D29",
"B  c #53532A",
"V  c #57582B",
"C  c #5A5C2B",
"Z  c #4E5733",
"A  c #7A4F2B",
"S  c #78522B",
"D  c #735D2C",
"F  c #5E602C",
"G  c #446B37",
"H  c #62652D",
"J  c #64682D",
"K  c #6A6E2E",
"L  c #74662C",
"P  c #6E742F",
"I  c #757233",
"U  c #3B3245",
"Y  c #753545",
"T  c #4D4652",
"R  c #534D57",
"E  c #4A6B40",
"W  c #4B7440",
"Q  c #646F57",
"!  c #645E67",
"~  c #69636F",
"^  c #862631",
"/  c #882732",
"(  c #9B313D",
")  c #C2370F",
"_  c #BF6C1C",
"`  c #84532B",
"'  c #855C2E",
"]  c #885E2D",
"[  c #A2423F",
"{  c #8A642E",
"}  c #8C6A2F",
"|  c #8D702F",
" . c #8E7230",
".. c #917330",
"X. c #937B31",
"o. c #AA6B20",
"O. c #B86D20",
"+. c #B77423",
"@. c #B77D25",
"#. c #C34613",
"$. c #CA5C16",
"%. c #C76316",
"&. c #CF7515",
"*. c #883443",
"=. c #A63946",
"-. c #8C5157",
";. c #BA414E",
":. c #A35548",
">. c #AF4250",
",. c #905361",
"<. c #B75764",
"1. c #86726F",
"2. c #8C6F75",
"3. c #98747A",
"4. c #D64F5D",
"5. c #D3565B",
"6. c #D25959",
"7. c #CD734F",
"8. c #C67A4F",
"9. c #CE6357",
"0. c #D37864",
"q. c #4E8914",
"w. c #538E14",
"e. c #699F13",
"r. c #74A812",
"t. c #4A8C3D",
"y. c #60852E",
"u. c #688B30",
"i. c #7D8432",
"p. c #75A334",
"a. c #7AA535",
"s. c #509642",
"d. c #7B8077",
"f. c #958B2B",
"g. c #828B33",
"h. c #978332",
"j. c #9C9134",
"k. c #BA8228",
"l. c #AB932D",
"z. c #B2942D",
"x. c #B29A2F",
"c. c #87AB36",
"v. c #8CAD37",
"b. c #90AF37",
"n. c #9EAA37",
"m. c #95B137",
"M. c #96B238",
"N. c #9BB438",
"B. c #BCA92D",
"V. c #A5A837",
"C. c #B6AB31",
"Z. c #AFB337",
"A. c #A2B639",
"S. c #ABB639",
"D. c #A5B839",
"F. c #ADBC3A",
"G. c #B3B538",
"H. c #8F8C56",
"J. c #B99C44",
"K. c #A7985D",
"L. c #AFBC41",
"P. c #B3BE4D",
"I. c #B7BA6B",
"U. c #BDBA76",
"Y. c #C2854C",
"T. c #D99454",
"R. c #D8987E",
"E. c #BFC96A",
"W. c #837F85",
"Q. c #8F8290",
"!. c #928D94",
"~. c #B19198",
"^. c #BDBB87",
"/. c #BAA595",
"(. c #B0B3AA",
"). c #DEB580",
"_. c #E3B69D",
"`. c #C9B8A5",
"'. c #C6C68C",
"]. c #E4C091",
"[. c #CFC8AE",
"{. c #D6CBC6",
"}. c #DED4D5",
"|. c #E4DBDC",
" X c #EEECEC",
/* pixels */
"p.a.F.F.F.F.F.F.F.F.F.F.F.F.F.F.F.F.F.F.F.F.F.F.F.F.F.F.F.F.F.F.F.F.F.F.F.F.F.F.F.F.F.F.F.F.F.F.F.F.F.F.F.F.F.F.F.F.F.F.F.F.a.a.",
"a.a.F.F.F.F.F.F.F.F.F.F.F.F.F.F.F.F.F.F.F.F.F.F.F.F.F.F.F.F.F.F.F.F.F.S.F.F.F.F.F.F.F.F.F.F.F.F.F.F.F.F.F.F.F.F.F.F.F.F.F.F.a.a.",
"D.D.F.F.F.F.F.F.F.F.F.F.F.F.F.F.F.F.F.F.F.F.F.F.F.F.F.F.F.F.F.G.F.G.S.Z.S.S.S.D.F.F.F.F.F.F.F.F.F.F.F.F.F.F.F.F.F.F.F.F.F.F.F.F.",
"F.F.F.F.F.F.F.F.F.F.F.F.F.F.F.F.F.F.F.F.F.F.F.F.F.F.F.F.F.F.F.8.6.[ a a a a a } D.F.F.F.F.F.F.F.F.F.F.F.F.F.F.F.F.F.F.F.F.F.F.F.",
"F.F.F.F.F.F.F.F.F.F.F.F.F.F.F.F.F.F.F.F.F.F.F.F.F.F.F.F.F.F.Y.5.=.e w w w w w a ..S.F.F.F.F.F.F.F.F.F.F.F.F.G.F.F.F.F.F.F.F.F.F.",
"F.F.F.F.F.F.F.F.F.F.F.F.F.F.F.F.F.F.F.F.F.F.F.F.F.F.F.F.F.Y.5.=.e w w 4 & & $ 6 a  .S.F.F.F.F.F.F.F.F.F.F.F.F.F.F.F.F.F.F.F.F.F.",
"F.F.F.F.F.F.D.N.F.F.F.F.F.F.F.F.F.F.F.F.F.F.F.F.F.F.F.F.Y.5.4.( w w w 9 7 * + # 6 a  .S.F.F.F.F.F.F.F.F.F.F.F.F.F.F.F.F.F.F.F.F.",
"F.F.F.F.F.F.M.a.b.F.F.F.F.F.F.F.F.F.F.F.F.F.F.F.F.F.F.Y.6.4.=.^ w w w w w 9 * + # 4 a X.F.F.F.F.F.F.F.F.F.F.F.F.F.F.F.F.F.F.F.F.",
"F.F.F.F.F.F.m.a.b.F.F.F.F.F.F.F.F.F.F.F.F.F.F.F.F.F.F.8.>.;.( e w w 7 7 w w 6 $ & 7 w } F.F.F.F.F.F.F.F.F.F.F.F.F.F.F.F.F.F.F.F.",
"F.F.F.F.F.F.F.F.M.p.c.F.F.F.@.C.F.F.F.F.F.F.F.F.F.F.F.8.j *.=./ w w 3 & 7 w 7 $ u } d L c.D.F.F.F.F.F.F.F.F.F.F.F.F.F.F.F.F.F.F.",
"F.F.F.F.F.F.F.F.M.p.c.F.F.S.k.z.B.F.F.F.F.F.F.F.F.F.F.8.j p >.=.^ 7 $ + 4 7 $ + H D.A D c.D.F.F.F.F.F.F.F.F.F.F.F.F.F.F.F.F.F.F.",
"F.F.F.F.F.F.F.F.F.F.F.F.F.F.G.B.G.F.F.F.F.F.F.F.F.F.F.8.h + i j 8 $ + + 3 7 $ + > i.` } F.F.F.F.F.F.F.F.F.F.F.F.F.F.F.F.F.F.F.F.",
"F.F.F.F.F.F.F.F.F.F.F.F.F.F.F.F.F.F.F.F.F.F.F.F.F.F.F.8.h + + + + + + + 4 w 6 $ + H ` } F.F.F.F.F.F.F.F.F.F.F.F.F.F.F.F.F.F.F.F.",
"F.F.F.F.F.F.F.F.F.F.F.F.F.F.F.F.F.z.x.G.F.F.F.F.F.F.J.9.Y + + + + + + + 4 w w 3 + y D j.F.F.F.F.F.F.F.F.F.F.F.F.F.F.F.F.F.F.F.F.",
"F.F.F.F.F.F.F.F.F.F.F.F.F.F.F.F.C.@.x.F.F.F.F.F.F.F.8.>.5 R W.T R W.R + & 7 w 7 $ + H F.F.F.F.F.F.F.F.F.F.F.F.F.F.F.F.F.F.F.F.F.",
"F.F.F.F.F.F.F.F.F.F.F.F.F.F.F.F.C.C.F.M.c.A.F.F.F.F.8.j + ! !.T ~ !.R + + & 7 w 3 + > g.F.F.F.F.F.F.F.F.F.m.c.N.F.F.F.F.F.F.F.F.",
"F.F.F.F.F.F.F.F.F.F.F.F.F.F.F.F.F.F.F.v.p.N.F.F.F.F.8.j @ + + + + + + + + + 4 w 3 + + J F.F.F.F.F.F.F.F.F.c.p.m.F.F.F.F.F.F.F.F.",
"F.F.F.F.F.F.F.F.F.F.F.F.F.F.F.F.z.l.N.v.c.A.F.F.F.F.8.j + + + + + + + + + @ 4 w 3 + + H F.F.F.F.F.F.F.D.N.b.c.N.F.F.F.F.F.F.F.F.",
"F.F.F.F.F.F.F.F.F.F.F.F.F.F.F.@.O.f.a.M.F.F.F.F.F.J.9.=.5 + + + + + + + + $ 7 w 3 + + y g.F.F.F.F.F.F.b.p.N.F.F.F.F.F.F.F.F.F.F.",
"F.F.F.F.F.F.F.F.F.F.F.F.F.F.F.@.O.o.f.N.F.F.F.F.F.0.4.=.i + + + + + + + $ 7 w 6 $ + + + J F.F.F.F.F.F.b.a.N.F.F.F.F.F.F.F.F.F.F.",
"F.F.F.F.F.F.F.F.F.F.F.F.S.S.S.@.%.%._ x.F.F.F.F.g.:.4.=.6 $ + + + + + & 7 w w 3 + $ 3 $ y i.S.F.F.F.F.F.F.F.F.F.F.F.F.F.F.F.F.F.",
"F.F.F.F.F.F.F.F.F.F.F.F.F.S.L.).T.&.#.@.F.F.F.J.k i =.;.^ 6 $ + + + $ 7 w w 7 $ + 4 w 6 3 D F.F.F.F.F.F.F.F.F.F.F.F.F.F.F.F.F.F.",
"F.F.F.F.F.F.F.F.F.F.F.F.F.S.k.).].7.) @.F.F.J.9.=.i i =.( w * + + $ 7 w w 7 $ + & 7 w w w f h.S.F.F.F.F.F.F.F.F.F.F.F.F.F.F.F.F.",
"F.F.F.F.F.F.F.F.F.F.F.F.F.G.#.$._.R.) @.F.g.:.;.=.g & i e w 3 & $ 4 w w w 3 + & 7 w w w w w f h.F.F.F.F.F.F.F.F.F.F.F.F.F.F.F.F.",
"F.F.F.F.F.F.F.F.F.F.F.F.F.G.@.#.0.7.#.x.g.- p *./ 0 6 $ & 7 3 4 6 4 7 w 7 & $ 7 7 7 w w w w w ] F.F.F.F.F.F.F.F.F.F.F.F.F.F.F.F.",
"F.F.F.F.F.F.F.F.F.F.F.F.F.F.G.+.O.O.x.g.- + + p =.^ w 6 3 4 $ 4 w 3 3 7 $ $ 7 w 3 & 7 w w w w f j.F.F.F.F.F.F.F.F.F.F.F.F.F.F.F.",
"F.F.F.F.F.F.F.F.F.F.F.F.F.F.G.I.'.'.H.k *.g 3 $ g ^ w w w 6 $ 4 w 3 4 7 3 7 w w 3 + 4 w w w w w { F.F.F.F.F.F.F.F.F.F.F.F.F.F.F.",
"F.F.F.F.F.F.F.F.F.F.F.F.F.F.L.`.}.|.~.<.4.=./ 6 4 7 w w w w 3 4 w 3 3 w w w w w 7 & & 3 3 4 7 w { F.F.F.F.F.F.F.F.F.F.F.F.F.F.F.",
"F.F.F.F.F.F.F.F.F.F.F.F.F.F.L.[.}. X|.~.<.<.=.0 3 4 w w w w 7 7 w 3 4 w w w w w 7 $ + + & 3 4 7 A } S.F.F.F.F.F.F.F.F.F.F.F.F.F.",
"F.F.F.F.F.F.F.F.F.F.F.F.F.F.L.U.[.}.`.~ U Y / w 3 4 w w w w w w w 6 7 w w w w 7 # $ 3 & & 7 7 7 0 d F.F.F.F.F.F.F.F.F.F.F.F.F.F.",
"F.F.F.F.F.F.F.F.F.F.F.F.F.F.F.F.E.^.~ , + 3 w w * 4 7 7 w w w w w w w w w 7 3 $ & 9 w 6 $ 3 w w w d F.F.F.F.F.F.F.F.F.F.F.F.F.F.",
"F.F.F.F.F.F.F.F.F.F.F.F.F.F.F.F.L.L.` 3 + 3 w w 3 3 * & 7 w w w w w w w 7 3 3 4 7 w w w * 4 w w w f F.F.F.F.F.F.F.F.F.F.F.F.F.F.",
"F.F.F.F.F.F.F.F.F.F.F.F.F.F.F.F.F.S.` * + 3 w w 7 7 6 $ 4 7 7 w w w w 7 3 7 w w w w w w 6 7 w w 7 u F.F.F.F.F.F.F.F.F.F.F.F.F.F.",
"F.F.F.F.F.F.F.F.F.F.F.F.F.F.F.F.F.S.` 3 + 3 w 7 7 w 7 $ 4 * 4 w w w A 1.2.3.,.8 7 w w w w w w 7 $ : F.F.F.F.F.F.F.F.F.F.F.F.F.F.",
"F.F.F.F.F.F.F.F.F.F.F.F.F.F.F.F.F.D.` * + 4 w * 3 w * + 4 3 4 w w f K.`.[.{.Q.U 4 w w w w w 7 $ @ - F.F.F.F.F.F.F.F.F.F.F.F.F.F.",
"F.F.F.F.F.F.F.F.F.F.F.F.F.F.F.F.F.S.` 3 & 7 w 3 4 w * & 4 $ 4 w 2 I P.S.E.(.Q n 4 w w w w 7 $ + + - F.F.F.F.F.F.F.F.F.F.F.F.F.F.",
"F.F.F.F.F.F.F.F.F.F.F.F.F.F.F.F.F.S.` 3 4 w 9 & 4 w * 4 * $ 7 w X Q /.'.{.d.M m 4 w w w 7 $ + + - H F.F.F.F.F.F.F.F.F.F.F.F.F.F.",
"F.F.F.F.F.F.F.F.F.F.F.F.F.F.F.F.F.S.` 3 4 w 3 + 4 w 6 7 * 4 7 4 . 1 -.3.1.T G m 4 w w w * + + + C F.F.F.F.F.F.F.F.F.F.F.F.F.F.F.",
"F.F.F.F.F.F.F.F.F.F.F.F.F.F.F.F.F.S.X.r 4 w 3 + & 7 w w 7 4 3 * < < t 4 @ ; G b 4 w w 6 $ @ + + V F.F.F.F.F.F.F.F.F.F.F.F.F.F.F.",
"F.F.F.F.F.F.F.F.F.F.F.F.F.F.F.F.F.F.Z.F 4 7 3 + + 4 w 7 7 * 4 7 7 2 1 = b G ; + 4 w 7 $ + + + - i.F.F.F.F.F.F.F.F.F.F.F.F.F.F.F.",
"F.F.F.F.F.F.F.F.F.F.F.F.F.F.F.F.F.F.S.` * 3 3 + + 3 7 * 4 * 4 * 4 w 1   M n + @ 6 9 & + + + + V F.F.F.F.F.F.F.F.F.F.F.F.F.F.F.F.",
"F.F.F.F.F.F.F.F.F.F.F.F.F.F.F.F.F.F.F.` * 3 4 # + + + # 6 4 6 * 4 w q o b = + 3 w * + + + + + V F.F.F.F.F.F.F.F.F.F.F.F.F.F.F.F.",
"F.F.F.F.F.F.F.F.F.F.F.F.F.F.F.F.F.F.S.` u u s 3 + # $ 6 w w w * 4 q z l s.W = 4 9 * + + + + % K F.F.F.F.F.F.F.F.F.F.F.F.F.F.F.F.",
"F.F.F.F.F.F.F.F.F.F.F.F.F.F.F.F.F.F.S.` | c.S 2 = * 9 w w w 9 3 2 O c c x s.E * & + + + + + V F.F.F.F.F.F.F.F.F.F.F.F.F.F.F.F.F.",
"F.F.F.F.F.F.F.F.F.F.F.F.F.F.F.F.F.F.F.A L M.] } V + 3 9 w w 3 4 0 O w.r.v t.E + + + + + + + V F.F.F.F.F.F.F.F.F.F.F.F.F.F.F.F.F.",
"F.F.F.F.F.F.F.F.F.F.F.F.F.F.F.F.F.F.S.A L N.] } C % @ 4 w w * 4 w O w.r.q.t.E + + + + + + + V F.F.F.F.F.F.F.F.F.F.F.F.F.F.F.F.F.",
"F.F.F.F.F.F.F.F.F.F.F.F.F.F.F.F.F.F.S.` | F.] } F.V + 4 w * + 3 0 O q.e.v s.W + + @ % @ + + V F.F.F.F.F.F.F.F.F.F.F.F.F.F.F.F.F.",
"F.F.F.F.F.F.F.F.F.F.F.F.F.F.F.F.F.F.S.` ..F.{ X.F.F % 4 w * # + 4 O l l x s.m + + H F % + + V F.F.F.F.F.F.F.F.F.F.F.F.F.F.F.F.F.",
"F.F.F.F.F.F.F.F.F.F.F.F.F.F.F.F.F.F.F.` ..F.F.F.F.F.V 4 w 3 3 * 4 3   l s.G + + + H F.F % + V F.F.F.F.F.F.F.F.F.F.F.F.F.F.F.F.F.",
"F.F.F.F.F.F.F.F.F.F.F.F.F.F.F.F.F.F.F.{ h.F.F.F.F.F.V 3 9 3 + # 4 3 4 3 + + + @ + F F.F.B + V F.F.F.F.F.F.F.F.F.F.F.F.F.F.F.F.F.",
"F.F.F.F.F.F.F.F.F.m.N.F.F.F.F.F.F.F.F.F.G.F.F.F.F.F.B + 4 3 4 * 4 3 4 3 + + + @ % F F.F.N + V F.F.F.F.F.F.N.b.N.F.F.F.F.F.F.F.F.",
"F.F.F.F.F.F.F.F.N.a.c.F.F.F.F.F.F.F.F.F.F.F.F.F.F.F.C % 4 3 6 * 4 3 3 * + @ @ F B J F.F.N + V F.F.F.F.F.F.v.p.m.F.F.F.F.F.F.F.F.",
"F.F.F.F.F.F.F.F.N.c.b.N.A.F.F.F.F.F.F.F.F.F.F.F.F.F.F.C 2 9 w * 4 5 6 3 + F F K V K F.F.N % F F.F.F.F.D.N.b.c.M.F.F.F.F.F.F.F.F.",
"F.F.F.F.F.F.F.F.F.F.N.p.v.F.F.F.F.F.F.F.F.F.F.F.F.F.F.F.B 3 9 * 4 ' k 3 + F F.F.F.F.F.F.N Z F.F.F.F.F.m.p.N.F.F.F.F.F.F.F.F.F.F.",
"F.F.F.F.F.F.F.F.F.F.N.p.v.F.F.F.F.F.F.F.F.F.F.F.F.F.F.F.C % 4 * 4 S g 5 @ F F.F.F.F.F.n.N V F.F.F.F.F.N.a.N.F.F.F.F.F.F.F.F.F.F.",
"F.F.F.F.F.F.F.F.F.F.F.F.F.F.F.F.F.F.F.F.F.F.F.F.F.F.F.F.D.B 4 * 4 0 0 { B F F.F.F.F.F.B @ F F.F.F.F.F.F.F.F.F.F.F.F.F.F.F.F.F.F.",
"F.F.F.F.F.F.F.F.F.F.F.F.F.F.F.F.F.F.F.F.F.F.F.F.F.F.F.F.F.C % + % t s ` B K F.F.F.F.F.F P F.F.F.F.F.F.F.F.F.F.F.F.F.F.F.F.F.D.F.",
"p.a.F.F.F.F.F.F.F.F.F.F.F.F.F.F.F.F.F.F.F.F.F.F.F.F.F.F.F.S.C % P S.{ s } G.F.F.F.F.F.F.F.F.F.F.F.F.F.F.F.F.F.F.F.F.F.F.F.F.a.p.",
"p.a.F.F.F.F.F.F.F.F.F.F.F.F.F.F.F.F.F.F.F.F.F.F.F.F.F.F.F.F.F.D.F.F.V.` ..F.F.F.F.F.F.F.F.F.F.F.F.F.F.F.F.F.F.F.F.F.F.F.F.F.a.p.",
"p.a.F.F.F.F.F.F.F.F.F.F.F.F.F.F.F.F.F.F.F.F.F.F.F.F.F.F.F.F.F.F.F.F.{ ..S.F.F.F.F.F.F.F.F.F.F.F.F.F.F.F.F.F.F.F.F.F.F.F.F.F.a.p.",
"p.a.F.F.F.F.F.F.F.F.F.F.F.F.F.F.F.F.F.F.F.F.F.F.F.F.F.F.F.F.F.F.F.F.S.F.F.F.F.F.F.F.F.F.F.F.F.F.F.F.F.F.F.F.F.F.F.F.F.F.F.F.p.p.",
"p.a.F.F.F.F.F.F.F.F.F.F.F.F.F.F.F.F.F.F.F.F.F.F.F.F.F.F.F.F.F.F.F.F.F.F.F.F.F.F.F.F.F.F.F.F.F.F.F.F.F.F.F.F.F.F.F.F.F.F.F.F.a.p.",
"p.p.F.F.F.F.F.F.F.F.F.F.F.F.F.F.F.F.F.F.F.F.F.F.F.F.F.F.F.F.F.F.F.F.F.F.F.F.F.F.F.F.F.F.F.F.F.F.F.F.F.F.F.F.F.F.F.F.F.F.F.F.p.p.",
"y.u.F.F.F.F.F.F.F.F.F.F.F.F.F.F.F.F.F.F.F.F.F.F.F.F.F.F.F.F.F.F.F.F.F.F.F.F.F.F.F.F.F.F.F.F.F.F.F.F.F.F.F.F.F.F.F.F.F.F.F.F.u.y."
};
